SplineFontDB: 3.0
FontName: DavidCLM-Medium
FullName: David CLM Medium
FamilyName: David CLM
Weight: Medium
Copyright: Copyright 2002-2018 by Maxim Iorsh (iorsh@users.sourceforge.net).\nDistributed under the terms of GNU General Public License version 2(http://www.gnu.org/licenses/gpl.html). \nLatin glyphs and part of punctuation copyright 1990 as an unpublished work by Bitstream Inc. \nAll rights reserved.
UComments: "2002-9-22: Created.+AAoA-Substracting 20 on both sides of alef-tav for kerning+AAoACgAA-Avg digit width: 530.1+AAoA-Avg digit left margin: 60.0+AAoA-Avg digit right margin: 44.6+AAoACgAA-Avg letter width: 590+AAoA-Avg letter left margin: 37.7+AAoA-Avg letter right margin: 45.8" 
Version: 0.133
ItalicAngle: 0
UnderlinePosition: -100
UnderlineWidth: 50
Ascent: 960
Descent: 240
LayerCount: 2
Layer: 0 0 "Back"  1
Layer: 1 0 "Fore"  0
FSType: 0
OS2Version: 0
OS2_WeightWidthSlopeOnly: 0
OS2_UseTypoMetrics: 0
CreationTime: 1163025784
ModificationTime: 1537994735
PfmFamily: 17
TTFWeight: 500
TTFWidth: 5
LineGap: 90
VLineGap: 0
Panose: 2 0 6 3 0 0 0 0 0 0
OS2TypoAscent: 0
OS2TypoAOffset: 1
OS2TypoDescent: 0
OS2TypoDOffset: 1
OS2TypoLinegap: 0
OS2WinAscent: 0
OS2WinAOffset: 1
OS2WinDescent: 0
OS2WinDOffset: 1
HheadAscent: 0
HheadAOffset: 1
HheadDescent: 0
HheadDOffset: 1
OS2Vendor: 'PfEd'
Lookup: 1 1 0 "AltAyin"  {"AltAyin subtable"  } []
Lookup: 6 1 0 "ccmpAltAyin"  {"ccmpAltAyin contextual 0"  "ccmpAltAyin contextual 1"  "ccmpAltAyin contextual 2"  } ['ccmp' ('hebr' <'dflt' > ) ]
Lookup: 6 1 0 "ccmpVavHolam"  {"ccmpVavHolam subtable"  } ['ccmp' ('hebr' <'dflt' > ) ]
Lookup: 4 1 0 "Ligature Substitution lookup 3"  {"Ligature Substitution lookup 3 subtable"  } []
Lookup: 4 1 0 "ccmpCustomPrecomp"  {"ccmpCustomPrecomp subtable"  } ['ccmp' ('hebr' <'dflt' > ) ]
Lookup: 4 1 0 "ccmpDagesh"  {"ccmpDagesh subtable"  } ['ccmp' ('hebr' <'dflt' > ) ]
Lookup: 4 1 0 "ccmpSinShin"  {"ccmpSinShin subtable"  } ['ccmp' ('hebr' <'dflt' > ) ]

StartChar: exclam
Encoding: 33 33 0
Width: 355
VWidth: 1000
Flags: W
VStem: 100 155.976<57.0635 59.7314>
LayerCount: 2
Back
SplineSet
110 142.393 m 5
 142.817 115.324 163.764 89.4824 183.502 57.2432 c 5
 164.689 26.541 140.81 -0.154297 111.962 -20.7061 c 5
 82.2285 2.5293 56.2363 27.8848 34.9541 59.7842 c 5
 56.6182 93.7061 81.9219 119.2 110 142.393 c 5
150.225 696 m 1
 175.661 631.295 187.369 398.98 148.325 283 c 1
 127.425 258 107.95 241.5 82.7754 225 c 1
 79.9248 353 60.9248 505 44.7754 580 c 1
 72.3252 626 104.625 662 150.225 696 c 1
EndSplineSet
Fore
SplineSet
178.799 146.471 m 1
 213.256 118.048 235.251 90.9141 255.976 57.0635 c 1
 236.222 24.8262 211.148 -3.2041 180.858 -24.7832 c 1
 149.639 -0.386719 122.347 26.2373 100 59.7314 c 1
 122.747 95.3496 149.316 122.118 178.799 146.471 c 1
218.984 696 m 1
 244.421 631.295 256.129 398.98 217.085 283 c 1
 196.185 258 176.71 241.5 151.535 225 c 1
 148.685 353 129.685 505 113.535 580 c 1
 141.085 626 173.385 662 218.984 696 c 1
EndSplineSet
Validated: 33
EndChar

StartChar: quotedbl
Encoding: 34 34 1
Width: 403
VWidth: 1000
Flags: W
HStem: 412 386<60 154>
VStem: 35 317<422 798>
LayerCount: 2
Back
SplineSet
142 798 m 1
 247 696 131 518 48 412 c 1
 40.0879 411.927 32.1152 417.332 28 422 c 5
 66 532 105 631 64 710 c 5
 84.8793 744.808 108.178 771.319 142 798 c 1
330 798 m 1
 435 696 319 518 236 412 c 1
 228.873 411.849 220.652 416.719 216 422 c 1
 254 532 293 631 252 710 c 1
 275 746 299 774.5 330 798 c 1
EndSplineSet
Fore
SplineSet
154 798 m 1
 259 696 143 518 60 412 c 1
 52.0879 411.927 39.1152 417.332 35 422 c 1
 73 532 112 631 71 710 c 1
 91.8789 744.808 120.178 771.319 154 798 c 1
352 798 m 5
 457 696 341 518 258 412 c 5
 250.873 411.849 237.652 416.719 233 422 c 5
 271 532 310 631 269 710 c 5
 292 746 321 774.5 352 798 c 5
EndSplineSet
Validated: 33
EndChar

StartChar: numbersign
Encoding: 35 35 2
Width: 682
VWidth: 1000
Flags: W
HStem: 186 74<77 156.707 259.839 379.895 483.027 560> 446 74<142 226.663 330.18 449.851 553.369 625>
LayerCount: 2
Back
SplineSet
62 270 m 5
 572 270 l 5
 565.673 238.113 555.15 209.907 540 186 c 5
 30 186 l 5
 35.7129 215.754 44.9453 244.232 62 270 c 5
122 520 m 5
 632 520 l 5
 625.673 488.113 615.15 459.907 600 436 c 5
 90 436 l 5
 95.7129 465.754 104.945 494.232 122 520 c 5
493.396 727.503 m 5
 525.552 736.207 565.543 736.109 601.396 727.503 c 5
 496.305 425.503 466.32 277 394.98 -35 c 5
 359.375 -42.2578 327.396 -43.8184 287.98 -35 c 5
 386.576 247 432.625 446.503 493.396 727.503 c 5
270.208 727.503 m 5
 302.363 736.207 342.354 736.109 378.208 727.503 c 5
 273.116 425.503 243.132 277 171.792 -35 c 5
 136.187 -42.2578 104.208 -43.8184 64.792 -35 c 5
 163.388 247 209.437 446.503 270.208 727.503 c 5
EndSplineSet
Fore
SplineSet
290.208 727.503 m 1
 322.363 736.207 362.354 736.109 398.208 727.503 c 1
 371.243 650.015 349.223 582.632 330.18 520 c 1
 467.343 520 l 1
 513.396 727.503 l 1
 545.552 736.207 585.543 736.109 621.396 727.503 c 1
 594.431 650.015 572.411 582.632 553.369 520 c 1
 652 520 l 1
 645.673 488.113 640.15 469.907 625 446 c 1
 531.599 446 l 1
 513.757 383.217 498.33 323.296 483.027 260 c 1
 587 260 l 1
 580.673 228.113 575.15 209.907 560 186 c 1
 465.5 186 l 1
 414.98 -35 l 1
 379.375 -42.2578 347.396 -43.8184 307.98 -35 c 1
 335.577 43.9307 359.057 116.399 379.895 186 c 1
 242.312 186 l 1
 191.792 -35 l 1
 156.187 -42.2578 124.208 -43.8184 84.792 -35 c 1
 112.389 43.9307 135.869 116.399 156.707 186 c 1
 50 186 l 1
 55.7129 215.754 59.9453 234.232 77 260 c 1
 178.192 260 l 1
 195.748 322.401 211.525 383.475 226.663 446 c 1
 115 446 l 1
 120.713 475.754 124.945 494.232 142 520 c 1
 244.155 520 l 1
 290.208 727.503 l 1
308.411 446 m 1
 290.568 383.217 275.141 323.296 259.839 260 c 1
 401.38 260 l 1
 418.936 322.401 434.713 383.475 449.851 446 c 1
 308.411 446 l 1
EndSplineSet
Validated: 33
EndChar

StartChar: dollar
Encoding: 36 36 3
Width: 615
VWidth: 1000
Flags: W
HStem: -5.99414 100.358<200.635 291.382>
VStem: 287.285 56.656<-70.4902 -2.38867 100.578 290.137 427.194 599.336 701.062 763.49>
LayerCount: 2
Back
SplineSet
190.5 -13.1924 m 0
 238.756 -14.0908 288.971 -5.39669 316.137 5 c 0
 397.137 36 457.126 89.8075 498 169 c 0
 514 200 527.959 278.501 468 330 c 0
 394.145 393.434 239.69 423.798 166 466 c 0
 131.073 486.003 100.5 518.5 120.5 543 c 0
 170.614 604.389 249.63 608 345.863 608 c 0
 385 608 421.5 602.5 450.5 591 c 1
 467.5 620.5 477 647.5 485 681.5 c 1
 402.5 720 288.355 714.885 232.5 691 c 0
 156.5 658.5 94 605.5 63 534 c 0
 48.6769 500.964 44.085 435.189 104 383 c 0
 183.349 313.883 328.275 294.003 397 254 c 0
 430.544 234.475 457.5 192 437.5 156.5 c 0
 412.796 112.651 311.5 88.9102 238 88.9102 c 0
 181.5 88.9102 130.143 105.766 104.178 116.411 c 1
 77.4072 80.5664 59.9072 63.1895 41.4541 19.3027 c 1
 69.4182 6.39589 136.316 -13.1406 190.5 -13.1924 c 0
252.975 772 m 1
 252.975 -106.33 l 1
 273.829 -103 292.19 -94 310.775 -79 c 1
 310.775 799.33 l 1
 289.811 795.83 270.43 786.33 252.975 772 c 1
EndSplineSet
Fore
SplineSet
343.941 100.578 m 1
 398.681 110.265 451.374 130.567 468.126 160.3 c 0
 487.726 195.09 461.312 236.71 428.436 255.85 c 0
 406.562 268.582 376.812 279.234 343.941 290.137 c 1
 343.941 100.578 l 1
287.285 94.3643 m 1
 287.285 308.868 l 1
 234.11 327.005 179.815 348.719 141.295 382.27 c 0
 82.5723 433.414 87.0742 497.88 101.116 530.25 c 0
 131.496 600.32 192.746 652.26 267.226 684.11 c 0
 273.258 686.69 279.983 689.046 287.285 691.146 c 1
 287.285 763.49 l 1
 304.405 777.531 323.392 786.842 343.941 790.271 c 1
 343.941 701.062 l 1
 398.087 705.63 462.772 699.021 514.676 674.8 c 1
 506.835 641.48 497.526 615.02 480.866 586.11 c 1
 452.446 597.38 416.676 602.77 378.317 602.77 c 0
 366.591 602.77 355.125 602.715 343.941 602.504 c 1
 343.941 406.962 l 1
 401.84 386.037 460.523 362.532 498.016 330.33 c 0
 556.77 279.86 543.096 202.93 527.416 172.55 c 0
 487.358 94.9463 428.574 42.21 349.194 11.8301 c 0
 347.529 11.1934 345.777 10.5635 343.941 9.94141 c 1
 343.941 -70.4902 l 1
 325.72 -85.1904 307.728 -94.0098 287.285 -97.2715 c 1
 287.285 -2.38867 l 1
 267.885 -4.96387 246.79 -6.38281 226.066 -5.99414 c 0
 172.961 -5.94824 107.409 13.1924 80 25.8408 c 1
 98.084 68.8535 115.234 85.8809 141.465 121.008 c 1
 166.914 110.581 217.246 94.0576 272.616 94.0576 c 0
 277.396 94.0576 282.295 94.1602 287.285 94.3643 c 1
287.285 599.336 m 1
 233.995 593.605 189.647 578.497 157.466 539.07 c 0
 137.866 515.06 167.832 483.21 202.056 463.61 c 0
 224.434 450.794 254.412 439.092 287.285 427.194 c 1
 287.285 599.336 l 1
EndSplineSet
Validated: 33
EndChar

StartChar: percent
Encoding: 37 37 4
Width: 761
VWidth: 1000
Flags: W
HStem: -14 21G<540.388 581.844>
LayerCount: 2
Back
SplineSet
479.871 334.882 m 1
 456.822 297.051 455.003 268.538 455.003 224.39 c 16
 455.003 168.544 470.772 110.896 495.036 84.4746 c 0
 525.091 51.7432 555.828 63.9609 570.25 83.873 c 0
 593.3 115.699 595.726 160.137 594.513 203.973 c 8
 593.186 251.947 581.774 297.051 556.299 321.07 c 0
 535.17 340.992 506.561 343.89 479.871 334.882 c 1
495.534 419.973 m 1
 575.729 432.757 635.536 395.078 652.526 306.265 c 0
 661.951 256.998 669.536 176.126 642.332 100.38 c 16
 620.585 39.8252 573.689 -14 520 -14 c 0
 490.776 -14 448.154 5.55859 424.174 41.1709 c 16
 396.988 81.541 384.479 158.271 392.231 232.927 c 0
 399.706 304.919 426.892 371.529 495.534 419.973 c 1
124.905 622.909 m 1
 101.856 585.078 100.037 556.565 100.037 512.417 c 16
 100.037 456.571 115.807 398.923 140.07 372.502 c 0
 170.125 339.771 200.862 351.988 215.284 371.9 c 0
 238.334 403.727 240.76 448.164 239.547 492 c 8
 238.22 539.975 226.809 585.078 201.333 609.098 c 0
 180.204 629.02 151.595 631.917 124.905 622.909 c 1
140.568 708 m 1
 220.764 720.784 280.57 683.105 297.561 594.292 c 0
 306.985 545.025 314.57 464.153 287.366 388.407 c 16
 265.619 327.853 218.724 274.027 165.034 274.027 c 0
 135.811 274.027 93.1885 293.586 69.208 329.198 c 16
 42.0225 369.568 29.5127 446.298 37.2656 520.954 c 0
 44.7402 592.946 71.9258 659.557 140.568 708 c 1
515.433 712.711 m 1
 547.132 718.367 587.438 714.351 616.745 702.862 c 1
 422.939 418.549 347.088 276.852 180.245 -20.1211 c 1
 145.93 -24.0703 112.261 -22.3643 79.8291 -10.3594 c 1
 261.217 255.085 368.287 444.941 515.433 712.711 c 1
EndSplineSet
Fore
SplineSet
509.36 331.664 m 5
 490.615 292.43 490.917 263.868 493.997 219.828 c 20
 497.893 164.118 516.543 107.634 540.896 82.8506 c 4
 571.062 52.1484 598.727 66.3311 610.717 87.1299 c 4
 629.882 120.374 629.032 164.861 624.85 208.512 c 12
 620.271 256.282 606.538 300.536 581.229 322.844 c 4
 560.236 341.347 533.493 342.382 509.36 331.664 c 5
530.534 419.973 m 1
 610.729 432.757 670.536 395.078 687.526 306.265 c 0
 696.951 256.998 704.536 176.126 677.332 100.38 c 16
 655.585 39.8252 608.689 -14 555 -14 c 0
 525.776 -14 483.154 5.55859 459.174 41.1709 c 16
 431.988 81.541 419.479 158.271 427.23 232.927 c 0
 434.706 304.919 461.892 371.529 530.534 419.973 c 1
154.394 619.691 m 1
 135.649 580.457 135.951 551.896 139.03 507.855 c 16
 142.927 452.146 161.578 395.661 185.931 370.878 c 0
 216.097 340.177 243.761 354.357 255.751 375.157 c 0
 274.915 408.401 274.066 452.888 269.883 496.538 c 8
 265.306 544.311 251.573 588.562 226.263 610.872 c 0
 205.271 629.375 178.527 630.409 154.394 619.691 c 1
175.568 708 m 1
 255.764 720.784 315.57 683.105 332.561 594.292 c 0
 341.985 545.025 349.57 464.153 322.366 388.407 c 16
 300.619 327.853 253.724 274.027 200.034 274.027 c 0
 170.811 274.027 128.188 293.586 104.208 329.198 c 16
 77.0225 369.568 64.5127 446.298 72.2656 520.954 c 0
 79.7402 592.946 106.926 659.557 175.568 708 c 1
550.433 712.711 m 1
 582.132 718.367 622.438 714.351 651.745 702.862 c 1
 457.938 418.549 382.088 276.852 215.245 -20.1211 c 1
 180.93 -24.0703 147.261 -22.3643 114.829 -10.3594 c 1
 296.217 255.085 403.287 444.941 550.433 712.711 c 1
EndSplineSet
Validated: 33
EndChar

StartChar: ampersand
Encoding: 38 38 5
Width: 704
VWidth: 1000
Flags: W
HStem: -12 60<265 292> 0 21G<507 683> 637 46<264 292>
VStem: 53 92<184 206> 103 80<516 539> 374 83<515 541>
LayerCount: 2
Fore
SplineSet
276 390 m 1x2c
 343 421 374 463 374 528 c 0
 374 594 336 637 276 637 c 0
 223 637 183 596 183 539 c 0
 183 487 215 444 276 390 c 1x2c
311 357 m 1
 483 171 l 1
 513 214 532 252 539 289 c 1
 521 308 l 1
 466 316 l 1
 466 356 l 1
 669 356 l 1
 669 316 l 1
 597 306 l 1
 579 244 552 187 514 136 c 1
 592 46 l 1
 683 41 l 1
 683 0 l 1
 507 0 l 1x6c
 507 24 l 1
 462 74 l 1
 396 17 332 -12 266 -12 c 0
 141 -12 53 74 53 185 c 0xb4
 53 265 97 324 185 364 c 1
 131 417 103 463 103 517 c 0
 103 609 180 683 285 683 c 0
 391 683 457 616 457 533 c 0
 457 453 412 404 311 357 c 1
223 335 m 1
 170 299 145 260 145 206 c 0
 145 115 206 48 292 48 c 0xb4
 343 48 388 67 431 108 c 1
 223 335 l 1
EndSplineSet
Validated: 1
EndChar

StartChar: quotesingle
Encoding: 39 39 6
Width: 205
VWidth: 1000
Flags: W
HStem: 412 386<60 154>
VStem: 35 119<422 798>
LayerCount: 2
Back
SplineSet
142 798 m 1
 247 696 131 518 48 412 c 1
 40.0879 411.957 32.1152 417.358 28 422 c 1
 66 532 105 631 64 710 c 1
 86.7507 749.302 110.46 776.123 142 798 c 1
EndSplineSet
Fore
SplineSet
154 798 m 1
 259 696 143 518 60 412 c 1
 52.0879 411.957 39.1152 417.358 35 422 c 1
 73 532 112 631 71 710 c 1
 93.751 749.302 122.46 776.123 154 798 c 1
EndSplineSet
Validated: 33
EndChar

StartChar: parenleft
Encoding: 40 40 7
Width: 366
VWidth: 1000
Flags: W
VStem: 100.684 225.464<244.44 744.894>
LayerCount: 2
Back
SplineSet
124 693 m 1
 162 719 217 737 260 739 c 1
 185 564 140 493 133 332 c 8
 126.965 193.198 222 73 272 4 c 1
 257 -41 226 -90 194 -119 c 1
 98 -10 57.0391 75.3076 43 219 c 16
 26 393 79 559 124 693 c 1
EndSplineSet
Fore
SplineSet
206.38 713.551 m 1
 247.85 734.605 285.909 741.35 326.148 744.894 c 1
 242.094 574.059 193.438 505.511 178.021 345.099 c 8
 164.349 202.828 257.867 72.5459 304.188 1.02344 c 1
 286.854 -43.1299 267.261 -73.7139 233.786 -101 c 1
 143.623 12.876 107.183 100.21 100.684 244.44 c 16
 92.8135 419.091 154.428 582.09 206.38 713.551 c 1
EndSplineSet
Validated: 33
EndChar

StartChar: parenright
Encoding: 41 41 8
Width: 353
VWidth: 1000
Flags: W
VStem: 45 222.689<-99.0303 396.561>
LayerCount: 2
Back
SplineSet
134.208 -69.2295 m 1
 92.3779 -89.5566 45.6016 -103.487 5.30566 -106.328 c 5
 92.3311 63.0137 142.174 130.702 160.388 290.821 c 12
 176.541 432.832 85.3115 564.726 40.2461 637.045 c 5
 58.3486 680.89 87.0752 718.979 121.021 745.676 c 1
 209.184 630.244 244.094 542.287 248.075 397.966 c 16
 252.896 223.203 188.445 61.3047 134.208 -69.2295 c 1
EndSplineSet
Fore
SplineSet
161.992 -72.5508 m 1
 120.523 -93.6045 85.2402 -95.4863 45 -99.0303 c 1
 129.057 71.8047 177.711 140.353 193.127 300.765 c 8
 206.8 443.035 113.282 573.317 66.9619 644.839 c 1
 84.2959 688.993 101.11 714.715 134.585 742 c 1
 224.749 628.125 261.19 540.791 267.689 396.561 c 16
 275.558 221.909 213.943 58.9102 161.992 -72.5508 c 1
EndSplineSet
Validated: 33
EndChar

StartChar: asterisk
Encoding: 42 42 9
Width: 546
VWidth: 980
Flags: W
HStem: 149.818 431.163<200.474 209.849>
VStem: 51.2568 443.242<367.151 410.772 367.151 367.151>
LayerCount: 2
Back
SplineSet
481.657 554.521 m 1
 510.102 527.003 532.422 468.432 525.695 405.742 c 1
 358.002 385.98 l 1
 477.154 263.975 l 1
 452.78 226.102 402.135 192.6 354.594 177.892 c 1
 281.32 317.63 l 1
 210.4 176.177 l 1
 164.08 192.676 112.572 225.735 87.9932 263.975 c 1
 208.752 386.139 l 1
 40.5928 405.742 l 1
 36.2734 466.027 56.0254 527.084 84.6338 554.443 c 1
 230.922 488.858 l 1
 204.843 648.957 l 1
 249.406 672.01 317.206 673.132 361.731 649.035 c 1
 335.788 491.157 l 1
 481.657 554.521 l 1
EndSplineSet
Fore
SplineSet
455.628 487.009 m 1
 482.52 460.992 500.858 426.421 494.499 367.151 c 1
 309.456 351.884 l 1
 446.212 225.972 l 1
 423.167 190.165 389.112 165.369 344.169 151.465 c 1
 271.754 312.098 l 1
 200.474 149.818 l 1
 156.682 165.416 121.668 189.794 98.4316 225.947 c 1
 236.752 351.994 l 1
 51.2568 367.151 l 1
 47.1719 424.146 63.085 461.144 90.1299 487.009 c 1
 249.054 400 l 1
 209.849 580.981 l 1
 251.979 602.776 294.092 603.764 336.187 580.981 c 1
 297.127 401.516 l 1
 455.628 487.009 l 1
EndSplineSet
Validated: 33
EndChar

StartChar: plus
Encoding: 43 43 10
Width: 732
VWidth: 1068
Flags: W
HStem: 278 84<132 326 406 600>
VStem: 326 80<91 278 362 549>
LayerCount: 2
Back
SplineSet
388 596 m 5
 446 596 l 5
 446 327 l 5
 709 327 l 5
 709 270 l 5
 446 270 l 5
 446 0 l 5
 388 0 l 5
 388 270 l 5
 124 270 l 5
 124 327 l 5
 388 327 l 5
 388 596 l 5
EndSplineSet
Fore
SplineSet
406 91 m 5
 380.232 73.9453 355.754 64.7129 326 59 c 5
 326 278 l 5
 100 278 l 5
 105.713 307.754 114.945 336.232 132 362 c 5
 326 362 l 5
 326 549 l 5
 349.906 564.15 374.113 574.672 406 581 c 5
 406 362 l 5
 632 362 l 5
 625.672 330.113 615.15 301.906 600 278 c 5
 406 278 l 5
 406 91 l 5
EndSplineSet
Validated: 1
Substitution2: "saltMiscSAlt subtable" uniFB29
EndChar

StartChar: comma
Encoding: 44 44 11
Width: 261
VWidth: 1000
Flags: W
HStem: -222 369<83 154.999>
VStem: 58 96.999<-212 147>
LayerCount: 2
Back
SplineSet
96.999 147 m 1
 202 45 108 -116 25 -222 c 1
 18.001 -221 9.91113 -215.515 5 -212 c 5
 43 -102 59.999 -20 18.999 59 c 5
 41 95 67.7856 125.438 96.999 147 c 1
EndSplineSet
Fore
SplineSet
154.999 147 m 1
 260 45 166 -116 83 -222 c 1
 76.001 -221 62.9111 -215.515 58 -212 c 1
 96 -102 112.999 -20 71.999 59 c 1
 94 95 125.785 125.438 154.999 147 c 1
EndSplineSet
Validated: 33
EndChar

StartChar: hyphen
Encoding: 45 45 12
Width: 462
VWidth: 1000
Flags: W
HStem: 259.45 98.1<101.359 377>
VStem: 60 352.359<259.45 357.55>
LayerCount: 2
Back
SplineSet
21.5 254 m 1
 30.5 290.5 45.5 331 68 363 c 1
 379 363 l 1
 370.5 322.5 357 286 338.5 254 c 1
 21.5 254 l 1
EndSplineSet
Fore
SplineSet
60 259.45 m 5
 67.2783 292.3 80.3682 328.75 101.359 357.55 c 5
 412.359 357.55 l 5
 405.77 321.1 393.992 288.25 377 259.45 c 5
 60 259.45 l 5
EndSplineSet
Validated: 1
EndChar

StartChar: period
Encoding: 46 46 13
Width: 276
VWidth: 1000
Flags: W
HStem: -24 172<139 141>
VStem: 60 156<58 61>
LayerCount: 2
Back
SplineSet
93.0459 143.608 m 1
 125.863 116.54 146.81 90.6982 166.548 58.459 c 1
 147.735 27.7568 123.855 1.06152 95.0078 -19.4902 c 1
 65.2744 3.74512 39.2822 29.1006 18 61 c 1
 39.6641 94.9219 64.9678 120.416 93.0459 143.608 c 1
EndSplineSet
Fore
SplineSet
139 148 m 1
 173 119 195 92 216 58 c 1
 196 26 171 -2 141 -24 c 1
 110 1 82 27 60 61 c 1
 83 97 109 123 139 148 c 1
EndSplineSet
Validated: 1
EndChar

StartChar: slash
Encoding: 47 47 14
Width: 512
VWidth: 1000
Flags: W
VStem: 30 452<-35 727.503>
LayerCount: 2
Back
SplineSet
357 727.503 m 1
 392 741.503 447 741.503 480 727.503 c 5
 322 425.503 266 277 140 -35 c 5
 101 -47 54 -48 18 -35 c 1
 166 247 247 446.503 357 727.503 c 1
EndSplineSet
Fore
SplineSet
369 727.503 m 1
 402.68 736.207 447.655 736.109 482 727.503 c 1
 324 425.503 268 277 142 -35 c 1
 105.122 -42.2578 67.8711 -43.8184 30 -35 c 1
 178 247 259 446.503 369 727.503 c 1
EndSplineSet
Validated: 33
EndChar

StartChar: zero
Encoding: 48 48 15
Width: 582
VWidth: 1000
Flags: W
VStem: 73.7754 433.827<394.92 517.15 394.92 517.15>
LayerCount: 2
Back
SplineSet
178.108 588.793 m 1
 135.066 517.433 131.668 463.652 131.668 380.376 c 16
 131.668 275.034 161.118 166.294 206.427 116.455 c 0
 262.552 54.7168 319.95 77.7607 346.882 115.322 c 0
 389.925 175.355 394.455 259.176 392.19 341.863 c 8
 389.712 432.356 368.403 517.433 320.83 562.741 c 0
 281.373 600.318 227.948 605.784 178.108 588.793 c 1
213.223 706.595 m 1
 346.882 728.116 446.56 664.685 474.878 515.167 c 0
 490.586 432.227 503.227 296.078 457.887 168.56 c 16
 421.641 66.6162 343.483 -24 254 -24 c 0
 205.294 -24 134.257 8.92773 94.2891 68.8818 c 16
 48.9805 136.844 28.1309 266.019 41.0518 391.702 c 0
 53.5107 512.902 98.8193 625.04 213.223 706.595 c 1
EndSplineSet
Fore
SplineSet
206.641 601.758 m 1
 161.446 527.58 157.879 471.674 157.879 385.108 c 16
 157.879 275.605 188.801 162.57 236.376 110.763 c 0
 295.307 46.5859 355.575 70.54 383.854 109.585 c 0
 429.049 171.989 433.805 259.121 431.427 345.074 c 8
 428.825 439.142 406.45 527.58 356.499 574.678 c 0
 315.068 613.739 258.973 619.421 206.641 601.758 c 1
245.946 706.664 m 1
 379.605 727.97 479.283 665.173 507.602 517.15 c 0
 523.31 435.039 535.95 300.252 490.61 174.009 c 16
 454.364 73.085 376.207 -16.625 286.724 -16.625 c 0
 238.018 -16.625 166.98 15.9727 127.013 75.3271 c 16
 81.7041 142.61 60.8545 270.493 73.7754 394.92 c 0
 86.2344 514.907 131.543 625.924 245.946 706.664 c 1
EndSplineSet
Validated: 33
EndChar

StartChar: one
Encoding: 49 49 16
Width: 485
VWidth: 1000
Flags: W
HStem: 0 109<109.053 222.641 305.641 378.641>
VStem: 222.641 83<109 504.522>
LayerCount: 2
Back
SplineSet
276 713.604 m 1
 276 507.452 276 355.47 276 121 c 5
 406.777 121 l 1
 397.777 76 375.777 35 340.777 0 c 1
 10.9473 0 l 1
 18.7773 44 44.7773 91 74.7773 121 c 5
 178.588 121 l 5
 178.588 267.118 178.588 340.944 178.588 463.276 c 0
 178.588 499.522 169.525 519.911 135.545 542.565 c 8
 100.118 566.185 75.5117 574.281 41.5303 598.068 c 1
 118.554 651.306 193.312 686.419 276 713.604 c 1
EndSplineSet
Fore
SplineSet
305.641 718.604 m 1
 305.641 512.452 305.641 343.47 305.641 109 c 1
 440.418 109 l 1
 427.641 66 409.141 33.5 378.641 0 c 1
 55 0 l 1
 65.5527 41.5 86.0527 79 109.053 109 c 1
 222.641 109 l 1
 222.641 255.118 222.641 345.944 222.641 468.276 c 0
 222.641 504.522 213.577 524.911 179.598 547.565 c 8
 144.171 571.184 119.564 579.281 85.583 603.068 c 1
 162.606 656.306 222.952 691.419 305.641 718.604 c 1
EndSplineSet
Validated: 1
EndChar

StartChar: two
Encoding: 50 50 17
Width: 493
VWidth: 1000
Flags: W
HStem: 0 109<155.792 395.792>
VStem: 60.7764 387.386<0 109 0 109>
LayerCount: 2
Back
SplineSet
98.5 704.5 m 5
 201.5 725 289.5 723.5 358 650 c 4
 410.434 593.738 410.5 495.5 364 426 c 4
 320.893 361.571 262.76 320.717 198.891 252.593 c 16
 164.909 216.347 128 160 124 109 c 1
 416.37 109 l 1
 406 64.5 389 33.5 364 0 c 1
 28.9844 0 l 1
 26 61 30.915 105.089 56.1699 165.375 c 16
 91.2832 249.194 152.525 311.777 231.739 389.65 c 20
 298.568 455.347 303.3 546.406 251.068 587.588 c 4
 192.168 634.029 100.57 619.369 51 608.5 c 5
 61.5 647 74.4297 672.131 98.5 704.5 c 5
EndSplineSet
Fore
SplineSet
135.292 698 m 1
 238.292 718.5 326.292 717 394.792 643.5 c 0
 447.226 587.238 447.292 489 400.792 419.5 c 0
 357.685 355.071 294.252 320.397 230.683 252.593 c 16
 196.701 216.347 159.792 160 155.792 109 c 1
 448.162 109 l 1
 437.792 64.5 420.792 33.5 395.792 0 c 1
 60.7764 0 l 1
 57.792 61 62.707 105.089 87.9619 165.375 c 16
 123.075 249.194 189.521 307.922 268.531 383.15 c 0
 339.792 451 340.092 539.906 287.86 581.088 c 0
 228.96 627.529 137.362 612.869 87.792 602 c 1
 98.292 640.5 111.222 665.631 135.292 698 c 1
EndSplineSet
Validated: 33
EndChar

StartChar: three
Encoding: 51 51 18
Width: 517
VWidth: 1000
Flags: W
HStem: -11.4863 103.6<188.013 323.372>
LayerCount: 2
Back
SplineSet
119.653 710.319 m 1
 201.208 719.381 278 723 336 664 c 0
 373.126 626.234 383.784 551.646 363.185 505.3 c 0
 345.062 464.522 324.673 441.868 290.691 407.887 c 1
 337.133 407.887 411.028 374.455 422 312 c 16
 435 238 422.204 163.677 368.935 94.4932 c 24
 313.911 23.0303 253.398 -14.2461 167.313 -18.7773 c 0
 117.492 -21.4004 52.9102 -1.78711 11 22 c 1
 27 62 50 93 78.833 120.645 c 1
 98.666 110.677 154.069 83.876 204.835 87.0029 c 16
 265.502 90.7402 339.003 110.677 343.67 199.141 c 0
 349.121 302.46 241.002 320 129 320 c 1
 124.334 357.38 127.557 371.834 145 398 c 1
 213 414 288 467 279.8 523.044 c 0
 266.542 613.651 157.693 616.492 63 614 c 1
 75 654 93 683 119.653 710.319 c 1
EndSplineSet
Fore
SplineSet
163.653 703.028 m 1
 237 716 325 717 380 657.636 c 0
 415.628 619.181 425 548 407.185 502.109 c 0
 391.304 461.204 368 433 333 404.795 c 1
 378 399.896 443.554 365.065 460.309 304.946 c 0
 477 245.056 464.117 164.562 412.935 99.5186 c 24
 357.858 29.5254 297.398 -7.0459 211.313 -11.4863 c 0
 161.492 -14.0566 96.9102 5.16406 55 28.4756 c 1
 71 67.6758 94 98.0557 122.833 125.147 c 1
 142.666 115.379 198.069 89.1143 248.835 92.1787 c 16
 309.502 95.8408 383.003 115.379 387.67 202.073 c 0
 393.121 303.326 285.002 320.516 173 320.516 c 1
 171.5 347.955 176.5 371.476 189 396.955 c 1
 257 412.636 332 464.575 323.8 519.498 c 0
 310.542 608.293 201.693 611.077 107 608.636 c 1
 121.815 648.562 139.155 676.812 163.653 703.028 c 1
EndSplineSet
Validated: 33
EndChar

StartChar: four
Encoding: 52 52 19
Width: 546
VWidth: 1000
Flags: W
HStem: 196 109<124 330.9 415.05 481>
VStem: 330.9 84.15<46 196>
LayerCount: 2
Back
SplineSet
262.796 580.191 m 5
 158.587 528.087 77.0322 421.613 72.502 308.343 c 5
 258.266 308.343 l 5
 262.796 580.191 l 5
376.066 702.523 m 5
 368.138 678.737 360.834 643.646 357.943 605.111 c 20
 354.545 559.803 354.545 308.343 354.545 308.343 c 5
 483.674 308.343 l 5
 479.143 267.564 465.551 223.39 444.029 192.807 c 5
 354.545 192.807 l 5
 354.545 35.3604 l 5
 334.156 4.77734 293.379 -24.6729 256 -36 c 5
 256 192.807 l 5
 20.3975 192.807 l 5
 9.07031 225.655 5.67188 265.3 7.74805 306.077 c 5
 19.9873 407.681 50.8711 471.859 84.9619 521.291 c 4
 161.141 631.751 282.052 709.32 376.066 702.523 c 5
EndSplineSet
Fore
SplineSet
330.65 582 m 1
 220 526 148 418 124 305 c 5
 330.9 305 l 1
 330.65 582 l 1
435 703 m 1
 427.4 679 420.354 643.72 417.9 605 c 16
 415.05 560 415.05 305 415.05 305 c 1
 521 305 l 1
 513.5 264 500 229 481 196 c 1
 415.05 196 l 1
 415.05 46 l 1
 390.825 17 366.15 -6 331 -25 c 1
 331 196 l 1
 77 196 l 1
 68 233.5 65 267 65 306 c 1
 77 408 108 472 142 521 c 0
 218 632 345.7 709 435 703 c 1
EndSplineSet
Validated: 33
EndChar

StartChar: five
Encoding: 53 53 20
Width: 518
VWidth: 1000
Flags: W
HStem: -10 107.934<182.404 320.011> 347.129 99.678<125.445 189.795> 585 109<198.558 420.445>
LayerCount: 2
Back
SplineSet
147.303 741.311 m 5
 150.662 720.5 152.012 707.5 160.112 697 c 5
 435 697 l 5
 423.5 654 407 620.5 383.5 588 c 1
 149.341 588 l 1
 147.512 510 150.36 480.788 153.419 446.807 c 1
 213.566 449.072 333.167 452.071 385.839 377.712 c 0
 443.607 296.157 417.555 172.692 349.593 79.8105 c 8
 302.312 15.1943 252.235 -15.3584 169.492 -18.7354 c 0
 113.99 -21.001 41.4971 0.520508 12.0469 14.1133 c 1
 30.5 58 48 89.5 74.7705 125.345 c 1
 102.124 114.13 157.909 96.3867 204.408 97.9336 c 0
 279.337 100.426 338.805 139.051 342.371 217.547 c 8
 345.091 277.4 305.503 323.455 250.793 340.898 c 0
 187.8 360.982 136.5 348 87 347.129 c 1
 75.2256 449.299 68.8057 528.361 79 626.907 c 1
 97.5615 671.5 116.912 704.5 147.303 741.311 c 5
EndSplineSet
Fore
SplineSet
185.748 738.311 m 1
 189.107 717.5 190.457 704.5 198.558 694 c 1
 473.445 694 l 1
 464.945 660 441.445 613 420.445 585 c 1
 182.786 585 l 1
 180.957 507 183.806 480.788 186.864 446.807 c 1
 247.012 449.072 362.445 449 420.445 376 c 0
 482.616 297.75 454.445 173 392.546 88.5459 c 0
 345.214 23.9678 295.188 -6.62305 212.445 -10 c 0
 156.943 -12.2656 84.4502 9.25586 55 22.8486 c 1
 73.4531 66.7354 86.4453 89.5 113.216 125.345 c 1
 140.569 114.13 196.354 96.3867 242.854 97.9336 c 0
 317.782 100.426 382.879 139.051 386.445 217.547 c 8
 389.226 278.733 343.948 323.455 289.238 340.898 c 0
 226.245 360.982 174.945 348 125.445 347.129 c 1
 113.671 449.299 107.251 528.361 117.445 626.907 c 1
 136.007 671.5 155.357 701.5 185.748 738.311 c 1
EndSplineSet
Validated: 33
EndChar

StartChar: six
Encoding: 54 54 21
Width: 561
VWidth: 1000
Flags: W
VStem: 87.085 409<117 178>
LayerCount: 2
Back
SplineSet
148.176 329.181 m 1
 115.452 281.914 95.8848 196.812 148 135 c 8
 196.077 77.9775 287.555 74.6621 336.035 100.114 c 1
 376.03 148.594 386.845 245.612 342 305 c 8
 296.095 365.792 201.504 366.753 148.176 329.181 c 1
247.56 679.623 m 1
 294.5 699.5 337 709 383 712.472 c 1
 300.312 579.945 280.615 542.565 190 410.039 c 1
 242 434.5 290.5 452.5 324.583 453.082 c 0
 369.9 453.856 406.788 424.105 433.323 380.589 c 16
 461.641 334.148 475.129 261.121 453.712 189.162 c 16
 425.394 94.0146 369.892 47.5732 294 -13.5928 c 1
 188.658 -40.7773 66.3262 23.7871 34.6104 108.739 c 0
 -4.30762 212.982 28.9473 314.893 58.3975 371.527 c 0
 129.007 507.314 247.56 679.623 247.56 679.623 c 1
EndSplineSet
Fore
SplineSet
195.585 331 m 1
 162.085 272.5 146.97 196.812 199.085 135 c 8
 248.266 76.668 343.104 74.6621 391.585 100.114 c 1
 431.58 148.594 437.93 245.612 393.085 305 c 8
 346.269 366.999 256.585 374 195.585 331 c 1
298.645 679.623 m 1
 345.585 699.5 381.085 709 427.085 712.472 c 1
 344.397 579.945 324.7 542.565 234.085 410.039 c 1
 286.085 434.5 320.002 440.418 354.085 441 c 0
 399.401 441.774 447.046 416.414 475.696 369.427 c 16
 504.014 322.986 517.502 249.959 496.085 178 c 16
 471.223 94.4648 441.372 64.4707 383.097 17 c 0
 359.475 -2.24219 334.085 -8.5 298.085 -8.5 c 0
 206.868 -8.5 123.085 40 87.085 117 c 0
 45.542 205.855 68.085 293 109.482 371.527 c 0
 180.854 506.914 298.645 679.623 298.645 679.623 c 1
EndSplineSet
Validated: 33
EndChar

StartChar: seven
Encoding: 55 55 22
Width: 511
VWidth: 1000
Flags: W
HStem: 585 109<149.467 386.5>
VStem: 45 441.5<585 694>
LayerCount: 2
Back
SplineSet
489.556 679 m 17
 447.646 513.625 349.531 444.267 269.109 278.892 c 8
 233.493 205.651 217.005 162.224 214.739 77.2705 c 1
 186.422 30.8291 147.91 -9.94824 106 -36 c 1
 60.6914 38.7588 79.8828 125.021 125.256 209.797 c 16
 168.299 290.219 340 485 375 561 c 9
 15.9316 561 l 1
 39 627 80 692 138.281 745 c 1
 141.679 719.515 141.248 679 169 679 c 2
 489.556 679 l 17
EndSplineSet
Fore
SplineSet
486.5 694 m 17
 483.5 657 477.5 624.5 465.374 584 c 1
 428.584 472.972 365.957 388.911 297.5 271 c 8
 257.792 202.606 241.5 155 245.5 75 c 1
 218 33.5 190 3 152.5 -23 c 1
 112.5 43 131.395 147.118 179.5 237 c 16
 222.543 317.422 340.5 460 386.5 585 c 9
 45 585 l 1
 71.5 645 100.5 688 146.5 745 c 1
 149.898 719.515 149.467 694 177.219 694 c 2
 486.5 694 l 17
EndSplineSet
Validated: 33
EndChar

StartChar: eight
Encoding: 56 56 23
Width: 545
VWidth: 1000
Flags: W
HStem: -13.0146 93.7998<223.186 386.505>
VStem: 383.413 89.82<453.481 598.745> 415.639 73.3136<104.738 276.714>
LayerCount: 2
Back
SplineSet
202.491 330.693 m 1
 169.756 294.391 115.216 243.418 124.73 179.193 c 8
 135.427 106.996 213.238 74.8984 274.191 75.3252 c 0
 338.868 75.7783 381.576 113.782 387.405 158.806 c 0
 398.902 247.609 282.913 294.56 202.491 330.693 c 1
282.687 405.254 m 1
 328.164 448.353 353.86 471.161 355.18 522.941 c 16
 356.766 585.184 306.813 635.137 222.652 643.745 c 1
 181.933 623.242 136.961 572.827 147.441 520.959 c 16
 160.638 455.659 225.599 434.987 282.687 405.254 c 1
236.133 717.003 m 1
 366.394 721.533 435.488 663.766 447.948 564.087 c 8
 458.337 480.973 383 415 339 379 c 1
 394 351 471.735 293.371 461.541 193.692 c 8
 449.174 72.7637 356.221 -20.3887 235 -20.3887 c 0
 131.924 -20.3887 35.6436 47.5732 36.7764 176.702 c 0
 37.4727 255.997 106.957 310.294 150 359 c 1
 67 415 48.7217 492.066 76.4209 577.68 c 16
 101.341 654.704 185.161 695.481 236.133 717.003 c 1
EndSplineSet
Fore
SplineSet
230.725 331.045 m 1xa0
 197.989 295.47 143.449 245.516 152.964 182.575 c 8
 163.66 111.822 241.472 80.3662 302.425 80.7852 c 0
 367.102 81.2285 409.81 118.473 415.639 162.596 c 0
 427.136 249.623 311.146 295.635 230.725 331.045 c 1xa0
310.921 404.115 m 1
 356.397 446.353 382.094 468.704 383.413 519.448 c 16xc0
 384.999 580.446 335.046 629.4 250.886 637.836 c 1
 210.166 617.743 165.194 568.337 175.675 517.506 c 16
 188.871 453.512 253.832 433.253 310.921 404.115 c 1
264.366 709.629 m 1
 394.627 714.068 473.233 654.746 473.233 547.926 c 0
 473.233 467.566 411.233 413.666 367.233 378.386 c 1
 422.233 350.946 499.969 294.47 489.774 196.784 c 8
 477.407 78.2744 384.454 -13.0146 263.233 -13.0146 c 0
 160.157 -13.0146 63.877 53.5879 65.0098 180.134 c 0
 65.7061 257.843 135.19 311.055 178.233 358.786 c 1
 95.2334 413.666 82.5762 483.595 99.2334 555.766 c 0
 118.233 638.086 191.233 687.086 264.366 709.629 c 1
EndSplineSet
Validated: 33
EndChar

StartChar: nine
Encoding: 57 57 24
Width: 543
VWidth: 1000
Flags: W
VStem: 79.3271 406.001<517.558 568.618>
LayerCount: 2
Back
SplineSet
159 596.229 m 1
 96.9277 516.315 105.994 401.94 180 362 c 0
 243 328 309.945 328.544 374 370 c 1
 420.724 440.512 402.155 526.057 355.713 571.195 c 8
 300.255 625.097 211.388 627.206 159 596.229 c 1
216.872 711.339 m 1
 325.612 736.259 441.839 682.616 481.926 573.148 c 16
 511.376 492.727 490 388 451.343 323.954 c 0
 402.917 243.722 342.603 141.588 256.518 14.7256 c 1
 210 -5.5 187 -11.6113 132 -18 c 1
 163.716 46.5645 260.598 181.648 334.224 290.389 c 1
 307.895 278.096 280.815 268.253 241 257 c 0
 216.806 250.162 182 246 149.29 258 c 0
 34.7222 300.031 9.60283 418.823 45.834 521.045 c 0
 77.5498 610.528 142.114 667.163 216.872 711.339 c 1
EndSplineSet
Fore
SplineSet
184.684 591.237 m 1
 126.895 512.923 135.336 400.834 204.235 361.693 c 0
 262.889 328.373 325.215 328.906 384.85 369.533 c 1
 428.349 438.635 411.062 522.469 367.823 566.704 c 8
 316.192 619.528 233.457 621.596 184.684 591.237 c 1
238.563 704.046 m 1
 339.8 728.467 449.258 672.302 485.328 568.618 c 16
 512.746 489.806 492.845 387.174 456.855 324.408 c 0
 411.771 245.781 348.594 137.325 268.447 13 c 1
 225.14 -6.82129 203.727 -12.8096 152.521 -19.0713 c 1
 182.049 44.2021 279.271 184.949 347.816 291.515 c 1
 323.306 279.468 298.094 269.821 261.026 258.793 c 0
 238.501 252.092 206.097 248.014 175.645 259.773 c 0
 68.9814 300.964 45.5957 417.38 79.3271 517.558 c 0
 108.854 605.251 168.963 660.753 238.563 704.046 c 1
EndSplineSet
Validated: 33
EndChar

StartChar: colon
Encoding: 58 58 25
Width: 276
VWidth: 1000
Flags: W
HStem: -24.7832 539.86<138.799 140.904>
VStem: 60 156.021<57.0635 428.339>
LayerCount: 2
Back
SplineSet
102 511 m 5
 134.817 483.932 155.764 458.09 175.502 425.851 c 5
 156.689 395.148 132.81 368.453 103.962 347.901 c 5
 74.2285 371.137 48.2363 396.492 26.9541 428.392 c 5
 48.6182 462.312 73.9219 487.808 102 511 c 5
102.046 142.393 m 1
 134.863 115.324 155.81 89.4824 175.548 57.2432 c 1
 156.735 26.541 132.855 -0.154297 104.008 -20.7061 c 1
 74.2744 2.5293 48.2822 27.8848 27 59.7842 c 1
 48.6641 93.7061 73.9678 119.2 102.046 142.393 c 1
EndSplineSet
Fore
SplineSet
138.799 515.077 m 1
 173.256 486.656 195.251 459.521 215.976 425.671 c 1
 196.222 393.433 171.148 365.403 140.858 343.822 c 1
 109.639 368.222 82.3467 394.844 60 428.339 c 5
 82.7471 463.955 109.316 490.726 138.799 515.077 c 1
138.845 146.471 m 1
 173.302 118.048 195.297 90.9141 216.021 57.0635 c 1
 196.268 24.8262 171.193 -3.2041 140.904 -24.7832 c 1
 109.685 -0.386719 82.3926 26.2373 60.0459 59.7314 c 1
 82.793 95.3496 109.362 122.118 138.845 146.471 c 1
EndSplineSet
Validated: 1
EndChar

StartChar: semicolon
Encoding: 59 59 26
Width: 276
VWidth: 1000
Flags: W
VStem: 58 158.262<-212 425.82>
LayerCount: 2
Back
SplineSet
93.0459 511.149 m 1
 125.863 484.081 146.81 458.239 166.548 426 c 1
 147.736 395.298 123.855 368.604 95.0078 348.051 c 1
 65.2744 371.286 39.2822 396.642 18 428.541 c 1
 39.6641 462.463 64.9678 487.957 93.0459 511.149 c 1
EndSplineSet
Fore
SplineSet
154.999 147 m 1
 260 45 166 -116 83 -222 c 1
 76.001 -221 62.9111 -215.515 58 -212 c 1
 96 -102 112.999 -20 71.999 59 c 1
 94 95 125.785 125.438 154.999 147 c 1
139.085 515.227 m 1
 173.542 486.805 195.537 459.671 216.262 425.82 c 1
 196.509 393.583 171.434 365.555 141.145 343.974 c 1
 109.925 368.37 82.6328 394.994 60.2861 428.488 c 1
 83.0332 464.106 109.603 490.875 139.085 515.227 c 1
EndSplineSet
Validated: 33
EndChar

StartChar: less
Encoding: 60 60 27
Width: 518
VWidth: 1000
Flags: W
HStem: 39 594.989<414.924 463.196>
VStem: 30 438.196<129.989 273.053>
LayerCount: 2
Back
SplineSet
109.003 329.126 m 25
 421.585 528.138 l 25
13 273.053 m 17
 17.1963 306.989 26.1963 339.989 43.1963 372.989 c 9
 446.196 633.989 l 17
 443.196 593.989 435.196 563.989 419.049 531.232 c 9
 106.466 332.22 l 25
 451.196 129.989 l 17
 440.344 93.4043 424.547 67.4287 397.924 39 c 9
 13 273.053 l 17
EndSplineSet
Fore
SplineSet
30 273.053 m 21
 34.1963 306.988 43.1963 339.988 60.1963 372.988 c 13
 463.196 633.989 l 21
 460.196 593.989 449.139 557.329 433.002 524.571 c 13
 127.319 329.972 l 29
 468.196 129.989 l 21
 457.344 93.4043 441.547 67.4287 414.924 39 c 13
 30 273.053 l 21
EndSplineSet
Validated: 1
EndChar

StartChar: equal
Encoding: 61 61 28
Width: 772
VWidth: 1000
Flags: W
HStem: 177 84<152 620> 363 84<152 620>
VStem: 120 532<177 261>
LayerCount: 2
Back
SplineSet
124 420 m 1
 709 420 l 1
 709 363 l 1
 124 363 l 1
 124 420 l 1
124 233 m 1
 709 233 l 1
 709 176 l 1
 124 176 l 1
 124 233 l 1
EndSplineSet
Fore
SplineSet
152 261 m 1
 652 261 l 1
 645.673 229.113 635.15 200.907 620 177 c 1
 120 177 l 1
 125.713 206.754 134.945 235.232 152 261 c 1
152 447 m 1
 652 447 l 1
 645.673 415.113 635.15 386.907 620 363 c 1
 120 363 l 1
 125.713 392.754 134.945 421.232 152 447 c 1
EndSplineSet
Validated: 1
EndChar

StartChar: greater
Encoding: 62 62 29
Width: 518
VWidth: 1000
Flags: W
HStem: 19 594.989<55 103.272>
VStem: 50 438.196<382.938 523>
LayerCount: 2
Back
SplineSet
81.3271 124.577 m 9
 393.91 326.59 l 25
490.196 382.937 m 17
 486 349 477 316 460 283 c 9
 57 19 l 17
 60 59 68 89 84.1475 121.757 c 9
 396.73 323.77 l 25
 52 523 l 17
 62.8525 559.585 78.6494 585.561 105.272 613.989 c 9
 490.196 382.937 l 17
EndSplineSet
Fore
SplineSet
488.196 382.938 m 17
 484 349 475 316 458 283 c 9
 55 19 l 17
 58 59 68.668 95.3291 84.8154 128.086 c 9
 390.938 325.969 l 25
 50 523 l 17
 60.8525 559.585 76.6494 585.561 103.272 613.989 c 9
 488.196 382.938 l 17
EndSplineSet
Validated: 1
EndChar

StartChar: question
Encoding: 63 63 30
Width: 490
VWidth: 1000
Flags: W
HStem: 586 88.5<85 205.9>
VStem: 316.09 103.91<473.786 598.917>
LayerCount: 2
Back
SplineSet
83 674.5 m 1
 200 678.7 355.5 665.25 368 547 c 0
 373.02 499.518 332.423 440.623 279 400.35 c 16
 220.5 356.25 235.5 333.149 276 288 c 1
 248 261 215 239 179 223 c 1
 147 254.5 135 273 135 320 c 0
 135 395 273 432.4 264 508 c 0
 255.732 577.448 126 582.4 33 586 c 1
 46 621 61 649 83 674.5 c 1
194.511 142.393 m 5
 227.328 115.324 248.274 89.4824 268.013 57.2432 c 5
 249.2 26.541 225.32 -0.154297 196.473 -20.7061 c 5
 166.739 2.5293 140.747 27.8848 119.465 59.7842 c 5
 141.129 93.7061 166.433 119.2 194.511 142.393 c 5
EndSplineSet
Fore
SplineSet
135 674.5 m 1
 252 678.7 407.5 665.25 420 547 c 0
 425.02 499.518 384.423 440.623 331 400.35 c 16
 272.5 356.25 287.5 333.149 328 288 c 1
 300 261 267 239 231 223 c 1
 199 254.5 187 273 187 320 c 0
 187 395 325 432.4 316 508 c 0
 307.732 577.448 178 582.4 85 586 c 1
 98 621 113 649 135 674.5 c 1
246.55 146.471 m 5
 281.008 118.048 303.001 90.9141 323.727 57.0635 c 5
 303.973 24.8262 278.899 -3.2041 248.609 -24.7832 c 5
 217.389 -0.386719 190.098 26.2373 167.751 59.7314 c 5
 190.498 95.3496 217.067 122.118 246.55 146.471 c 5
EndSplineSet
Validated: 33
EndChar

StartChar: at
Encoding: 64 64 31
Width: 942
VWidth: 1000
Flags: W
HStem: -153 49<475 506> 55 56<625 667> 57 61<404 448> 452 40<523 545> 468 20G<645 699> 649 43<523 557>
VStem: 76 71<227 264> 280 85<207 231> 825 46<358 396>
LayerCount: 2
Fore
SplineSet
699 488 m 1x8f80
 686 455 680 419 672 381 c 1
 633 209 l 2
 627 183 625 165 625 154 c 0
 625 128 642 111 667 111 c 0
 693 111 726 128 755 163 c 0
 799 215 825 293 825 377 c 0
 825 533 711 649 542 649 c 0
 433 649 342 615 271 549 c 0
 188 472 147 376 147 258 c 0
 147 39 290 -104 504 -104 c 0
 593 -104 683 -80 767 -31 c 1
 781 -65 l 1
 675 -124 571 -153 477 -153 c 0
 365 -153 265 -114 188 -40 c 0
 114 31 76 128 76 246 c 0
 76 379 125 490 221 578 c 0
 300 650 413 692 528 692 c 0
 740 692 871 564 871 373 c 0
 871 299 852 233 815 176 c 0
 765 99 689 55 625 55 c 0xcf80
 577 55 551 81 551 132 c 0
 551 141 l 1
 497 85 450 57 404 57 c 0
 333 57 280 119 280 217 c 0
 280 280 300 339 336 388 c 0
 385 454 458 492 529 492 c 0xb780
 561 492 593 483 627 465 c 1
 645 488 l 1
 699 488 l 1x8f80
553 450 m 1
 546 451 538 452 531 452 c 0
 439 452 365 359 365 229 c 0
 365 156 395 118 448 118 c 0xb780
 484 118 518 140 553 184 c 1
 594 394 l 1
 553 450 l 1
EndSplineSet
Validated: 1
EndChar

StartChar: A
Encoding: 65 65 32
Width: 639
VWidth: 1000
Flags: W
HStem: 0 21G<-8 188 423 650> 251 46<201 403> 659 20G<284 350>
LayerCount: 2
Fore
SplineSet
284 679 m 1
 350 679 l 1
 590 53 l 1
 650 41 l 1
 650 0 l 1
 423 0 l 1
 423 41 l 1
 485 46 l 1
 492 60 l 1
 420 251 l 1
 184 251 l 1
 113 60 l 1
 123 46 l 1
 188 41 l 1
 188 0 l 1
 -8 0 l 1
 -8 41 l 1
 50 53 l 1
 284 679 l 1
300 574 m 1
 201 297 l 1
 403 297 l 1
 300 574 l 1
EndSplineSet
Validated: 1
EndChar

StartChar: B
Encoding: 66 66 33
Width: 604
VWidth: 1000
Flags: W
HStem: 0 47<233 299> 322.164 43.8365<234 266> 627 44<233 274>
VStem: 107 90<59 317 366 611> 418 99<495 513> 460 98<175 209>
LayerCount: 2
Fore
SplineSet
33 671 m 1xf4
 288 671 l 2
 441 671 517 619 517 509 c 0xf8
 517 433 468 382 372 356 c 1
 491 355 558 294 558 196 c 0
 558 70 467 0 297 0 c 2
 33 0 l 1
 33 41 l 1
 90 46 l 1
 107 60 l 1
 107 611 l 1
 90 625 l 1
 33 631 l 1
 33 671 l 1xf4
197 367 m 1
 210 366 223 366 235 366 c 0
 360 366 418 408 418 505 c 0
 418 586 364 627 254 627 c 0
 241 627 222 625 197 624 c 1
 197 367 l 1
197 50 m 1
 221 48 243 47 264 47 c 0
 398 47 460 88 460 189 c 0xf4
 460 280 406 323 295 323 c 0
 269 323 236 321 197 317 c 1
 197 50 l 1
EndSplineSet
Validated: 1
EndChar

StartChar: C
Encoding: 67 67 34
Width: 632
VWidth: 1000
Flags: W
HStem: -12 53<384 412> 630 53<378 412>
VStem: 43 103<323 357>
LayerCount: 2
Fore
SplineSet
588 23 m 1
 522 0 453 -12 386 -12 c 0
 320 -12 262 2 216 28 c 0
 109 89 43 205 43 336 c 0
 43 544 182 683 390 683 c 0
 449 683 515 672 588 649 c 1
 588 495 l 1
 532 495 l 1
 517 586 l 1
 504 604 l 1
 467 621 431 630 392 630 c 0
 243 630 146 522 146 343 c 0
 146 153 245 41 407 41 c 0
 435 41 464 45 494 54 c 1
 510 70 l 1
 532 181 l 1
 588 181 l 1
 588 23 l 1
EndSplineSet
Validated: 1
EndChar

StartChar: D
Encoding: 68 68 35
Width: 693
VWidth: 1000
Flags: W
HStem: 0 46<197 306> 625 46<197 306>
VStem: 107 90<59 611> 548 101<319 353>
LayerCount: 2
Fore
SplineSet
280 671 m 2
 517 671 649 546 649 336 c 0
 649 217 606 124 524 62 c 0
 456 11 380 0 280 0 c 2
 33 0 l 1
 33 41 l 1
 90 46 l 1
 107 60 l 1
 107 611 l 1
 90 625 l 1
 33 631 l 1
 33 671 l 1
 280 671 l 2
197 625 m 1
 197 46 l 1
 276 46 l 2
 459 46 548 142 548 336 c 0
 548 531 459 625 276 625 c 2
 197 625 l 1
EndSplineSet
Validated: 1
EndChar

StartChar: E
Encoding: 69 69 36
Width: 576
VWidth: 1000
Flags: W
HStem: 0 46<197 465> 326 46<197 361> 625 46<197 428>
VStem: 107 90<59 326 372 611>
LayerCount: 2
Fore
SplineSet
33 0 m 1
 33 41 l 1
 90 46 l 1
 107 60 l 1
 107 611 l 1
 90 625 l 1
 33 631 l 1
 33 671 l 1
 512 671 l 1
 512 525 l 1
 456 525 l 1
 442 610 l 1
 428 625 l 1
 197 625 l 1
 197 372 l 1
 361 372 l 1
 375 386 l 1
 385 459 l 1
 432 459 l 1
 432 239 l 1
 385 239 l 1
 375 311 l 1
 361 326 l 1
 197 326 l 1
 197 46 l 1
 465 46 l 1
 479 62 l 1
 496 163 l 1
 548 163 l 1
 548 0 l 1
 33 0 l 1
EndSplineSet
Validated: 1
EndChar

StartChar: F
Encoding: 70 70 37
Width: 537
VWidth: 1000
Flags: W
HStem: 0 21G<33 285> 316 46<197 361> 625 46<197 422>
VStem: 107 90<59 316 362 611>
LayerCount: 2
Fore
SplineSet
33 0 m 1
 33 41 l 1
 90 46 l 1
 107 60 l 1
 107 611 l 1
 90 625 l 1
 25 631 l 1
 25 671 l 1
 505 671 l 1
 505 515 l 1
 450 515 l 1
 435 610 l 1
 422 625 l 1
 197 625 l 1
 197 362 l 1
 361 362 l 1
 375 376 l 1
 385 449 l 1
 432 449 l 1
 432 228 l 1
 385 228 l 1
 375 301 l 1
 361 316 l 1
 197 316 l 1
 197 60 l 1
 214 46 l 1
 285 41 l 1
 285 0 l 1
 33 0 l 1
EndSplineSet
Validated: 1
EndChar

StartChar: G
Encoding: 71 71 38
Width: 694
VWidth: 1000
Flags: W
HStem: -12 53<378 419> 630 53<378 417>
VStem: 43 103<320 357> 505 90<53 263>
LayerCount: 2
Fore
SplineSet
417 322 m 1
 667 322 l 1
 667 281 l 1
 612 276 l 1
 595 262 l 1
 595 23 l 1
 516 0 447 -12 388 -12 c 0
 321 -12 262 2 216 28 c 0
 108 89 43 205 43 336 c 0
 43 547 181 683 402 683 c 0
 463 683 528 673 594 654 c 1
 594 495 l 1
 538 495 l 1
 523 586 l 1
 509 604 l 1
 472 621 435 630 395 630 c 0
 242 630 146 523 146 343 c 0
 146 154 246 41 403 41 c 0
 432 41 466 45 505 54 c 1
 505 262 l 1
 488 276 l 1
 417 281 l 1
 417 322 l 1
EndSplineSet
Validated: 1
EndChar

StartChar: H
Encoding: 72 72 39
Width: 738
VWidth: 1000
Flags: W
HStem: 0 21G<33 276 462 705> 329 46<197 541> 651 20G<33 276 462 705>
VStem: 107 90<59 329 375 611> 541 90<59 329 375 611>
LayerCount: 2
Fore
SplineSet
33 671 m 1
 276 671 l 1
 276 631 l 1
 214 625 l 1
 197 611 l 1
 197 375 l 1
 541 375 l 1
 541 611 l 1
 524 625 l 1
 462 631 l 1
 462 671 l 1
 705 671 l 1
 705 631 l 1
 648 625 l 1
 631 611 l 1
 631 60 l 1
 648 46 l 1
 705 41 l 1
 705 0 l 1
 462 0 l 1
 462 41 l 1
 524 46 l 1
 541 60 l 1
 541 329 l 1
 197 329 l 1
 197 60 l 1
 214 46 l 1
 276 41 l 1
 276 0 l 1
 33 0 l 1
 33 41 l 1
 90 46 l 1
 107 60 l 1
 107 611 l 1
 90 625 l 1
 33 631 l 1
 33 671 l 1
EndSplineSet
Validated: 1
EndChar

StartChar: I
Encoding: 73 73 40
Width: 324
VWidth: 1000
Flags: W
HStem: 0 21G<35 288> 651 20G<35 288>
VStem: 116 91<59 611>
LayerCount: 2
Fore
SplineSet
35 0 m 1
 35 41 l 1
 99 46 l 1
 116 60 l 1
 116 611 l 1
 99 625 l 1
 35 631 l 1
 35 671 l 1
 288 671 l 1
 288 631 l 1
 224 625 l 1
 207 611 l 1
 207 60 l 1
 224 46 l 1
 288 41 l 1
 288 0 l 1
 35 0 l 1
EndSplineSet
Validated: 1
EndChar

StartChar: J
Encoding: 74 74 41
Width: 444
VWidth: 1000
Flags: W
HStem: -12 48<123 157> 651 20G<187 440>
VStem: 271 90<227 611>
LayerCount: 2
Fore
SplineSet
271 611 m 1
 254 625 l 1
 187 631 l 1
 187 671 l 1
 440 671 l 1
 440 631 l 1
 378 625 l 1
 361 611 l 1
 361 256 l 2
 361 75 296 -12 143 -12 c 0
 101 -12 58 -4 12 12 c 1
 12 179 l 1
 68 179 l 1
 92 53 l 1
 106 40 l 1
 119 37 131 36 141 36 c 0
 236 36 271 107 271 252 c 2
 271 611 l 1
EndSplineSet
Validated: 1
EndChar

StartChar: K
Encoding: 75 75 42
Width: 611
VWidth: 1000
Flags: W
HStem: 0 21G<33 276 462 627> 651 20G<33 276 395 603>
VStem: 107 90<59 299 340 611>
LayerCount: 2
Fore
SplineSet
33 0 m 1
 33 41 l 1
 90 46 l 1
 107 60 l 1
 107 611 l 1
 90 625 l 1
 33 631 l 1
 33 671 l 1
 276 671 l 1
 276 631 l 1
 214 625 l 1
 197 611 l 1
 197 340 l 1
 235 340 l 1
 457 611 l 1
 451 625 l 1
 395 631 l 1
 395 671 l 1
 603 671 l 1
 603 631 l 1
 537 622 l 1
 327 372 l 1
 554 46 l 1
 627 41 l 1
 627 0 l 1
 462 0 l 1
 462 30 l 1
 271 299 l 1
 197 299 l 1
 197 60 l 1
 214 46 l 1
 276 41 l 1
 276 0 l 1
 33 0 l 1
EndSplineSet
Validated: 1
EndChar

StartChar: L
Encoding: 76 76 43
Width: 520
VWidth: 1000
Flags: W
HStem: 0 46<197 423> 651 20G<27 271>
VStem: 107 90<59 611>
LayerCount: 2
Fore
SplineSet
27 0 m 1
 27 41 l 1
 90 46 l 1
 107 60 l 1
 107 611 l 1
 90 625 l 1
 27 631 l 1
 27 671 l 1
 271 671 l 1
 271 631 l 1
 214 625 l 1
 197 611 l 1
 197 46 l 1
 423 46 l 1
 437 62 l 1
 454 182 l 1
 506 182 l 1
 506 0 l 1
 27 0 l 1
EndSplineSet
Validated: 1
EndChar

StartChar: M
Encoding: 77 77 44
Width: 866
VWidth: 1000
Flags: W
HStem: 0 21G<31 242 391 434 595 834> 651 20G<30 242 620 834>
VStem: 109 54<67 611> 671 88<59 611>
LayerCount: 2
Fore
SplineSet
31 0 m 1
 31 41 l 1
 91 49 l 1
 109 68 l 1
 109 611 l 1
 96 625 l 1
 30 631 l 1
 30 671 l 1
 242 671 l 1
 242 644 l 1
 430 142 l 1
 620 640 l 1
 620 671 l 1
 834 671 l 1
 834 631 l 1
 771 625 l 1
 759 611 l 1
 759 60 l 1
 771 46 l 1
 834 41 l 1
 834 0 l 1
 595 0 l 1
 595 41 l 1
 661 46 l 1
 671 60 l 1
 671 624 l 1
 434 0 l 1
 391 0 l 1
 163 614 l 1
 163 68 l 1
 181 49 l 1
 242 41 l 1
 242 0 l 1
 31 0 l 1
EndSplineSet
Validated: 1
EndChar

StartChar: N
Encoding: 78 78 45
Width: 713
VWidth: 1000
Flags: W
HStem: 0 21G<29 240 543 609> 651 20G<26 214 477 687>
VStem: 108 54<67 568> 555 54<134 604>
LayerCount: 2
Fore
SplineSet
29 0 m 1
 29 41 l 1
 90 49 l 1
 108 68 l 1
 108 611 l 1
 90 625 l 1
 26 631 l 1
 26 671 l 1
 214 671 l 1
 214 646 l 1
 555 134 l 1
 555 604 l 1
 537 622 l 1
 477 631 l 1
 477 671 l 1
 687 671 l 1
 687 631 l 1
 627 622 l 1
 609 604 l 1
 609 0 l 1
 543 0 l 1
 162 568 l 1
 162 68 l 1
 180 49 l 1
 240 41 l 1
 240 0 l 1
 29 0 l 1
EndSplineSet
Validated: 1
EndChar

StartChar: O
Encoding: 79 79 46
Width: 731
VWidth: 1000
Flags: W
HStem: -16 53<346 380> 634 54<346 380>
VStem: 43 104<319 353> 584 105<319 353>
LayerCount: 2
Fore
SplineSet
366 688 m 0
 452 688 526 658 586 600 c 0
 653 535 689 445 689 336 c 0
 689 262 672 196 638 138 c 0
 582 42 482 -16 366 -16 c 0
 281 -16 204 14 146 70 c 0
 78 136 43 227 43 336 c 0
 43 445 78 535 145 600 c 0
 205 658 280 688 366 688 c 0
366 634 m 0
 236 634 147 524 147 336 c 0
 147 150 236 37 366 37 c 0
 495 37 584 150 584 336 c 0
 584 522 495 634 366 634 c 0
EndSplineSet
Validated: 1
EndChar

StartChar: P
Encoding: 80 80 47
Width: 558
VWidth: 1000
Flags: W
HStem: 0 21G<33 285> 252 48<247 287> 625 46<212 274>
VStem: 107 90<59 257 304 611> 438 93<447 481>
LayerCount: 2
Fore
SplineSet
33 0 m 1
 33 41 l 1
 90 46 l 1
 107 60 l 1
 107 611 l 1
 90 625 l 1
 25 631 l 1
 25 671 l 1
 253 671 l 2
 445 671 531 619 531 467 c 0
 531 339 433 252 272 252 c 0
 253 252 228 254 197 257 c 1
 197 60 l 1
 214 46 l 1
 285 41 l 1
 285 0 l 1
 33 0 l 1
197 305 m 1
 226 302 248 300 263 300 c 0
 377 300 438 359 438 469 c 0
 438 576 377 625 249 625 c 0
 233 625 215 625 197 623 c 1
 197 305 l 1
EndSplineSet
Validated: 1
EndChar

StartChar: Q
Encoding: 81 81 48
Width: 731
VWidth: 1000
Flags: W
HStem: -176 46.7512<508 536> 635 54<358 376>
VStem: 39 106<319 353> 587 106<319 369>
LayerCount: 2
Fore
SplineSet
414 -11 m 1
 417 -90 464 -130 556 -130 c 0
 583 -130 614 -127 650 -119 c 1
 650 -160 l 1
 597 -171 550 -176 509 -176 c 0
 382 -176 319 -123 319 -11 c 1
 147 15 39 149 39 337 c 0
 39 446 75 537 144 602 c 0
 204 659 280 689 366 689 c 0
 452 689 529 659 589 602 c 0
 657 537 693 446 693 337 c 0
 693 150 586 17 414 -11 c 1
366 39 m 0
 498 39 587 152 587 337 c 0
 587 523 498 635 366 635 c 0
 234 635 145 525 145 337 c 0
 145 152 235 39 366 39 c 0
EndSplineSet
Validated: 1
EndChar

StartChar: R
Encoding: 82 82 49
Width: 646
VWidth: 1000
Flags: W
HStem: 0 21G<33 271> 300 46<196 273> 625 46<197 273>
VStem: 107 90<59 299 345 611> 429 100<471 505>
LayerCount: 2
Fore
SplineSet
33 671 m 1
 288 671 l 2
 450 671 529 614 529 491 c 0
 529 405 475 349 367 325 c 1
 416 312 450 291 470 258 c 0
 498 212 499 157 517 110 c 0
 539 51 571 39 647 39 c 0
 656 39 l 1
 656 1 l 1
 626 -5 601 -8 578 -8 c 0
 533 -8 500 1 477 21 c 0
 429 63 425 128 404 192 c 0
 377 274 338 300 247 300 c 0
 232 300 215 299 197 298 c 1
 197 60 l 1
 214 46 l 1
 271 41 l 1
 271 0 l 1
 33 0 l 1
 33 41 l 1
 90 46 l 1
 107 60 l 1
 107 611 l 1
 90 625 l 1
 33 631 l 1
 33 671 l 1
197 625 m 1
 197 346 l 1
 228 345 246 345 252 345 c 0
 372 345 429 384 429 483 c 0
 429 587 369 625 245 625 c 2
 197 625 l 1
EndSplineSet
Validated: 1
EndChar

StartChar: S
Encoding: 83 83 50
Width: 556
VWidth: 1000
Flags: W
HStem: -12 53<235 269> 633 50<283 317>
VStem: 71 93<490 512> 407 92<161 189>
LayerCount: 2
Fore
SplineSet
60 20 m 1
 60 196 l 1
 119 196 l 1
 131 81 l 1
 144 64 l 1
 173 49 211 41 256 41 c 0
 353 41 407 91 407 161 c 0
 407 244 349 262 240 309 c 0
 129 357 71 394 71 491 c 0
 71 604 160 683 302 683 c 0
 357 683 413 674 472 655 c 1
 472 500 l 1
 420 500 l 1
 405 595 l 1
 390 612 l 1
 365 626 335 633 300 633 c 0
 215 633 164 585 164 512 c 0
 164 445 212 420 304 381 c 0
 355 360 409 344 455 299 c 0
 484 270 499 233 499 189 c 0
 499 71 400 -12 240 -12 c 0
 168 -12 106 0 60 20 c 1
EndSplineSet
Validated: 1
EndChar

StartChar: T
Encoding: 84 84 51
Width: 597
VWidth: 1000
Flags: W
HStem: 0 21G<168 429> 625 46<98 253 344 499>
VStem: 253 91<59 625>
LayerCount: 2
Fore
SplineSet
16 671 m 1
 581 671 l 1
 581 517 l 1
 526 517 l 1
 512 610 l 1
 498 625 l 1
 344 625 l 1
 344 60 l 1
 362 46 l 1
 429 41 l 1
 429 0 l 1
 168 0 l 1
 168 41 l 1
 235 46 l 1
 253 60 l 1
 253 625 l 1
 99 625 l 1
 85 610 l 1
 71 517 l 1
 16 517 l 1
 16 671 l 1
EndSplineSet
Validated: 1
EndChar

StartChar: U
Encoding: 85 85 52
Width: 694
VWidth: 1000
Flags: W
HStem: -12 62<344 378> 651 20G<25 270 468 679>
VStem: 99 91<227 611> 547 54<227 604>
LayerCount: 2
Fore
SplineSet
25 671 m 1
 270 671 l 1
 270 631 l 1
 208 625 l 1
 190 611 l 1
 190 249 l 2
 190 113 241 50 369 50 c 0
 495 50 547 113 547 249 c 2
 547 604 l 1
 528 622 l 1
 468 631 l 1
 468 671 l 1
 679 671 l 1
 679 631 l 1
 619 622 l 1
 601 604 l 1
 601 240 l 2
 601 167 596 111 557 64 c 0
 519 18 445 -12 350 -12 c 0
 255 -12 181 18 143 64 c 0
 104 111 99 166 99 240 c 2
 99 611 l 1
 82 625 l 1
 25 631 l 1
 25 671 l 1
EndSplineSet
Validated: 1
EndChar

StartChar: V
Encoding: 86 86 53
Width: 618
VWidth: 1000
Flags: W
HStem: -5 21G<276 345> 651 20G<-23 210 438 637>
LayerCount: 2
Fore
SplineSet
-23 671 m 1
 210 671 l 1
 210 631 l 1
 152 625 l 1
 141 611 l 1
 329 107 l 1
 510 611 l 1
 500 625 l 1
 438 631 l 1
 438 671 l 1
 637 671 l 1
 637 631 l 1
 575 619 l 1
 345 -5 l 1
 276 -5 l 1
 41 619 l 1
 -23 631 l 1
 -23 671 l 1
EndSplineSet
Validated: 1
EndChar

StartChar: W
Encoding: 87 87 54
Width: 928
VWidth: 1000
Flags: W
HStem: 0 21G<231 298 633 701> 651 20G<0 224 443 513 720 927>
LayerCount: 2
Fore
SplineSet
231 0 m 1
 63 617 l 1
 0 631 l 1
 0 671 l 1
 224 671 l 1
 224 631 l 1
 161 623 l 1
 153 609 l 1
 282 147 l 1
 443 671 l 1
 513 671 l 1
 677 136 l 1
 798 605 l 1
 787 619 l 1
 720 631 l 1
 720 671 l 1
 927 671 l 1
 927 631 l 1
 860 617 l 1
 701 0 l 1
 633 0 l 1
 464 547 l 1
 298 0 l 1
 231 0 l 1
EndSplineSet
Validated: 1
EndChar

StartChar: X
Encoding: 88 88 55
Width: 600
VWidth: 1000
Flags: W
HStem: 0 21G<-9 204 356 609> 651 20G<11 252 390 594>
LayerCount: 2
Fore
SplineSet
11 671 m 1
 252 671 l 1
 252 631 l 1
 192 625 l 1
 184 613 l 1
 315 407 l 1
 457 609 l 1
 448 622 l 1
 390 631 l 1
 390 671 l 1
 594 671 l 1
 594 631 l 1
 530 621 l 1
 347 360 l 1
 541 53 l 1
 609 41 l 1
 609 0 l 1
 356 0 l 1
 356 41 l 1
 423 48 l 1
 430 62 l 1
 289 289 l 1
 131 65 l 1
 137 47 l 1
 204 41 l 1
 204 0 l 1
 -9 0 l 1
 -9 41 l 1
 57 54 l 1
 258 335 l 1
 77 618 l 1
 11 631 l 1
 11 671 l 1
EndSplineSet
Validated: 1
EndChar

StartChar: Y
Encoding: 89 89 56
Width: 586
VWidth: 1000
Flags: W
HStem: 0 21G<163 422> 651 20G<-13 219 403 607>
VStem: 247 91<59 272>
LayerCount: 2
Fore
SplineSet
-13 671 m 1
 219 671 l 1
 219 631 l 1
 162 625 l 1
 152 614 l 1
 305 339 l 1
 473 606 l 1
 464 620 l 1
 403 631 l 1
 403 671 l 1
 607 671 l 1
 607 631 l 1
 546 618 l 1
 338 285 l 1
 338 60 l 1
 354 46 l 1
 422 41 l 1
 422 0 l 1
 163 0 l 1
 163 41 l 1
 231 46 l 1
 247 60 l 1
 247 272 l 1
 48 621 l 1
 -13 631 l 1
 -13 671 l 1
EndSplineSet
Validated: 1
EndChar

StartChar: Z
Encoding: 90 90 57
Width: 586
VWidth: 1000
Flags: W
HStem: 0 49<154 456> 623 48<156 424>
LayerCount: 2
Fore
SplineSet
67 671 m 1
 534 671 l 1
 534 629 l 1
 154 49 l 1
 456 49 l 1
 467 62 l 1
 485 181 l 1
 539 181 l 1
 539 0 l 1
 45 0 l 1
 45 41 l 1
 424 623 l 1
 157 623 l 1
 138 610 l 1
 122 516 l 1
 67 516 l 1
 67 671 l 1
EndSplineSet
Validated: 1
EndChar

StartChar: bracketleft
Encoding: 91 91 58
Width: 466
VWidth: 1000
Flags: W
HStem: -134 99<216 359> 661 99<216 372>
VStem: 139 77<-35 654>
LayerCount: 2
Back
SplineSet
209 661 m 1
 209 -45 l 1
 405 -45 l 1
 397 -79 380 -107 359 -134 c 1
 139 -134 l 1
 139 654 l 1
 153 693 166 719 190 750 c 1
 420 750 l 1
 412 717 395 687 372 661 c 1
 209 661 l 1
EndSplineSet
Fore
SplineSet
216 661 m 1
 216 -35 l 1
 412 -35 l 1
 404 -69 380 -107 359 -134 c 1
 139 -134 l 1
 139 654 l 1
 153 693 173 729 197 760 c 1
 427 760 l 1
 419 727 395 687 372 661 c 1
 216 661 l 1
EndSplineSet
Validated: 1
EndChar

StartChar: backslash
Encoding: 92 92 59
Width: 512
VWidth: 1000
Flags: W
VStem: 30 452<-34.5508 727.952>
LayerCount: 2
Fore
SplineSet
369 -34.5508 m 1
 259 246.449 178 445.952 30 727.952 c 1
 67.8711 736.77 105.122 735.209 142 727.952 c 1
 268 415.952 324 267.449 482 -34.5508 c 1
 447.655 -43.1572 402.68 -43.2549 369 -34.5508 c 1
EndSplineSet
Validated: 33
EndChar

StartChar: bracketright
Encoding: 93 93 60
Width: 466
VWidth: 1000
Flags: W
HStem: -134 99<101 257> 661 99<114 257>
VStem: 257 77<-28 661>
LayerCount: 2
Back
SplineSet
257 -45 m 5
 257 661 l 1
 61 661 l 1
 69 695 86 723 107 750 c 5
 327 750 l 5
 327 -38 l 5
 313 -77 300 -103 276 -134 c 1
 46 -134 l 1
 54 -101 71 -71 94 -45 c 5
 257 -45 l 5
EndSplineSet
Fore
SplineSet
257 -35 m 1
 257 661 l 1
 61 661 l 1
 69 695 93 733 114 760 c 1
 334 760 l 1
 334 -28 l 1
 320 -67 300 -103 276 -134 c 1
 46 -134 l 1
 54 -101 78 -61 101 -35 c 1
 257 -35 l 1
EndSplineSet
Validated: 1
EndChar

StartChar: asciicircum
Encoding: 94 94 61
Width: 1000
VWidth: 1000
Flags: W
HStem: 694 20G<456 543>
LayerCount: 2
Fore
SplineSet
456 714 m 1
 543 714 l 1
 797 438 l 1
 752 438 l 1
 499 651 l 1
 245 438 l 1
 201 438 l 1
 456 714 l 1
EndSplineSet
Validated: 1
EndChar

StartChar: underscore
Encoding: 95 95 62
Width: 500
VWidth: 1000
Flags: W
HStem: -236 58<0 500>
LayerCount: 2
Fore
SplineSet
0 -178 m 1
 500 -178 l 1
 500 -236 l 1
 0 -236 l 1
 0 -178 l 1
EndSplineSet
Validated: 1
EndChar

StartChar: grave
Encoding: 96 96 63
Width: 500
VWidth: 1000
Flags: W
HStem: 716 20G<104 203>
LayerCount: 2
Fore
SplineSet
104 736 m 1
 203 736 l 1
 300 546 l 1
 250 546 l 1
 104 736 l 1
EndSplineSet
Validated: 1
EndChar

StartChar: a
Encoding: 97 97 64
Width: 507
VWidth: 1000
Flags: W
HStem: -7 54<170 210> 0 36<477.4 488> 447 43.1719<240 251>
VStem: 42 88<119 138> 66 100<365.618 381> 334 83<91 268 302 362>
LayerCount: 2
Fore
SplineSet
334 58 m 1x6c
 271 15 218 -7 170 -7 c 0
 91 -7 42 46 42 121 c 0xb4
 42 225 134 255 334 303 c 1
 334 335 l 2
 334 414 314 447 242 447 c 0
 217 447 193 442 166 431 c 1
 166 347 l 1
 97 347 l 2
 74 347 66 354 66 378 c 0
 66 439 142 491 268 491 c 0
 373 491 417 448 417 347 c 2
 417 57 l 1
 435 41 l 1
 488 36 l 1
 488 0 l 1
 347 0 l 1
 334 58 l 1x6c
334 92 m 1
 334 268 l 1
 193 229 130 202 130 129 c 0
 130 80 160 47 210 47 c 0
 243 47 284 63 334 92 c 1
EndSplineSet
Validated: 1
EndChar

StartChar: b
Encoding: 98 98 65
Width: 539
VWidth: 1000
Flags: W
HStem: 0 46<169 233> 438 53<257 306> 716 20G<131 169>
VStem: 86 83<45 422 456 669> 414 90<239 265>
LayerCount: 2
Fore
SplineSet
131 736 m 1
 169 736 l 1
 169 456 l 1
 217 479 262 491 306 491 c 0
 424 491 504 399 504 263 c 0
 504 91 405 0 214 0 c 2
 86 0 l 1
 86 669 l 1
 8 669 l 1
 8 700 l 1
 131 736 l 1
169 46 m 1
 200 45 219 45 224 45 c 0
 354 45 414 106 414 244 c 0
 414 369 357 438 257 438 c 0
 232 438 202 432 169 422 c 1
 169 46 l 1
EndSplineSet
Validated: 1
EndChar

StartChar: c
Encoding: 99 99 66
Width: 446
VWidth: 1000
Flags: W
HStem: -7 59<262 298> 451 40<260 278>
VStem: 37 91<232 266> 323 101<381.58 396>
LayerCount: 2
Fore
SplineSet
425 42 m 1
 370 10 316 -7 262 -7 c 0
 126 -7 37 93 37 241 c 0
 37 390 134 491 274 491 c 0
 370 491 424 451 424 393 c 0
 424 361 402 340 368 340 c 0
 353 340 338 345 323 355 c 1
 323 437 l 1
 308 446 292 451 275 451 c 0
 189 451 128 374 128 248 c 0
 128 125 194 52 298 52 c 0
 342 52 383 66 425 94 c 1
 425 42 l 1
EndSplineSet
Validated: 1
EndChar

StartChar: d
Encoding: 100 100 67
Width: 565
VWidth: 1000
Flags: W
HStem: -9 63<229 274> 0 36<521.4 531> 448 44<275 308> 716 20G<428 466>
VStem: 36 88<223 248> 383 83<88 432 481 669>
LayerCount: 2
Fore
SplineSet
383 669 m 1xbc
 306 669 l 1
 306 700 l 1
 428 736 l 1
 466 736 l 1
 466 57 l 1
 483 41 l 1
 531 36 l 1
 531 0 l 1
 383 0 l 1x7c
 383 52 l 1
 332 11 284 -9 229 -9 c 0
 120 -9 36 85 36 225 c 0
 36 385 142 492 294 492 c 0
 322 492 352 488 383 481 c 1
 383 669 l 1xbc
383 89 m 1
 383 432 l 1
 349 442 319 448 295 448 c 0
 194 448 124 367 124 242 c 0
 124 125 184 54 274 54 c 0xbc
 310 54 346 66 383 89 c 1
EndSplineSet
Validated: 1
EndChar

StartChar: e
Encoding: 101 101 68
Width: 491
VWidth: 1000
Flags: W
HStem: -9 57<259 291> 263 42<128 358> 446 45<253 270>
VStem: 37 86<230 263> 359 88.7699<305 312>
LayerCount: 2
Fore
SplineSet
448 106 m 1
 448 51 l 1
 388 11 323 -9 260 -9 c 0
 128 -9 37 90 37 237 c 0
 37 388 134 491 268 491 c 0
 377 491 448 417 448 294 c 0
 448 284 448 274 447 263 c 1
 123 263 l 1
 123 259 123 255 123 252 c 0
 123 124 190 48 291 48 c 0
 341 48 391 68 448 106 c 1
359 305 m 1
 359 310 359 316 359 321 c 0
 359 402 322 446 255 446 c 0
 191 446 134 390 128 305 c 1
 359 305 l 1
EndSplineSet
Validated: 1
EndChar

StartChar: f
Encoding: 102 102 69
Width: 321
VWidth: 1000
Flags: W
HStem: 0 36<29 39.6 249.6 262> 421 47<184 323>
VStem: 100 83<56 421 468 497>
LayerCount: 2
Fore
SplineSet
29 0 m 1
 29 36 l 1
 82 41 l 1
 100 57 l 1
 100 421 l 1
 36 421 l 1
 36 453 l 1
 100 468 l 1
 100 472 100 476 100 479 c 0
 100 645 185 744 303 744 c 0
 349 744 381 719 381 687 c 0
 381 663 366 644 340 637 c 1
 249 697 l 1
 206 677 184 625 184 541 c 2
 184 468 l 1
 323 468 l 1
 323 421 l 1
 183 421 l 1
 183 57 l 1
 200 41 l 1
 262 36 l 1
 262 0 l 1
 29 0 l 1
EndSplineSet
Validated: 1
EndChar

StartChar: g
Encoding: 103 103 70
Width: 523
VWidth: 1000
Flags: W
HStem: -218 46<220 256> 167 39<231 258> 416 47<402 512> 452 39<231 258>
VStem: 40 80<-90 -68> 62 86<309 343> 344 86<309 343> 405 74<-66 -40>
LayerCount: 2
Fore
SplineSet
369 463 m 1xe4
 512 463 l 1
 512 416 l 1
 402 416 l 1
 421 387 430 358 430 323 c 0xe6
 430 234 355 167 239 167 c 0
 234 167 228 167 222 167 c 1
 215 153 211 138 211 122 c 0
 211 117 212 109 213 98 c 1
 309 83 l 2
 427 65 479 34 479 -40 c 0
 479 -77 458 -120 419 -152 c 0
 366 -195 297 -218 221 -218 c 0
 106 -218 40 -169 40 -89 c 0xe9
 40 -25 80 23 148 35 c 1
 142 49 138 64 138 80 c 0
 138 106 154 137 186 175 c 1
 109 192 62 251 62 326 c 0
 62 423 138 491 256 491 c 0xd4
 294 491 331 482 369 463 c 1xe4
246 452 m 0xd6
 188 452 148 406 148 329 c 0
 148 254 188 206 246 206 c 0
 304 206 344 254 344 329 c 0
 344 405 304 452 246 452 c 0xd6
206 30 m 1
 151 13 120 -24 120 -68 c 0
 120 -126 174 -172 256 -172 c 0
 345 -172 405 -122 405 -66 c 0xc9
 405 -12 373 -1 303 12 c 2
 206 30 l 1
EndSplineSet
Validated: 1
EndChar

StartChar: h
Encoding: 104 104 71
Width: 564
VWidth: 1000
Flags: W
HStem: 0 36<25 35.8 234.6 244 328 337.4 535.4 546> 425 66<291 341> 716 20G<141 179>
VStem: 96 83<56 392 431 669> 392 83<56 341>
LayerCount: 2
Fore
SplineSet
141 736 m 1
 179 736 l 1
 179 431 l 1
 246 468 298 491 341 491 c 0
 428 491 475 439 475 339 c 2
 475 57 l 1
 493 41 l 1
 546 36 l 1
 546 0 l 1
 328 0 l 1
 328 36 l 1
 375 41 l 1
 392 57 l 1
 392 322 l 2
 392 395 365 425 291 425 c 0
 259 425 222 414 179 392 c 1
 179 57 l 1
 197 41 l 1
 244 36 l 1
 244 0 l 1
 25 0 l 1
 25 36 l 1
 79 41 l 1
 96 57 l 1
 96 669 l 1
 19 669 l 1
 19 700 l 1
 141 736 l 1
EndSplineSet
Validated: 1
EndChar

StartChar: i
Encoding: 105 105 72
Width: 280
VWidth: 1000
Flags: W
HStem: 0 36<35 45.6 249.2 260> 466 20G<150 188> 593 115<146 164>
VStem: 105 83<56 419>
LayerCount: 2
Fore
SplineSet
154 708 m 0
 186 708 212 682 212 650 c 0
 212 618 186 593 154 593 c 0
 122 593 96 618 96 650 c 0
 96 683 122 708 154 708 c 0
150 486 m 1
 188 486 l 1
 188 57 l 1
 206 41 l 1
 260 36 l 1
 260 0 l 1
 35 0 l 1
 35 36 l 1
 88 41 l 1
 105 57 l 1
 105 419 l 1
 35 419 l 1
 35 450 l 1
 150 486 l 1
EndSplineSet
Validated: 1
EndChar

StartChar: j
Encoding: 106 106 73
Width: 266
VWidth: 1000
Flags: W
HStem: 466 20G<154 192> 593 115<135 156>
VStem: 109 83<21 419>
LayerCount: 2
Fore
SplineSet
109 419 m 1
 38 419 l 1
 38 450 l 1
 154 486 l 1
 192 486 l 1
 192 84 l 2
 192 -19 190 -93 135 -153 c 0
 96 -195 45 -218 -9 -218 c 0
 -53 -218 -78 -196 -78 -164 c 0
 -78 -142 -66 -123 -41 -112 c 1
 56 -171 l 1
 93 -159 109 -108 109 -16 c 2
 109 419 l 1
88 650 m 0
 88 683 114 708 146 708 c 0
 178 708 204 682 204 650 c 0
 204 618 178 593 146 593 c 0
 114 593 88 618 88 650 c 0
EndSplineSet
Validated: 1
EndChar

StartChar: k
Encoding: 107 107 74
Width: 517
VWidth: 1000
Flags: W
HStem: 0 36<25 35.8 234.6 244> 0 38<515.2 528> 444 37<299 310.25 481 489> 716 20G<141 179>
VStem: 96 83<56 227 255 669>
LayerCount: 2
Fore
SplineSet
25 0 m 1xb8
 25 36 l 1xb8
 79 41 l 1
 96 57 l 1
 96 669 l 1
 19 669 l 1
 19 700 l 1
 141 736 l 1
 179 736 l 1
 179 255 l 1
 198 255 l 1
 351 426 l 1
 344 440 l 1
 299 444 l 1
 299 481 l 1
 489 481 l 1
 489 444 l 1
 425 436 l 1
 288 291 l 1
 464 43 l 1
 528 38 l 1
 528 0 l 1
 372 0 l 1x78
 372 33 l 1
 237 227 l 1
 179 227 l 1
 179 57 l 1
 197 41 l 1
 244 36 l 1
 244 0 l 1
 25 0 l 1xb8
EndSplineSet
Validated: 1
EndChar

StartChar: l
Encoding: 108 108 75
Width: 282
VWidth: 1000
Flags: W
HStem: 0 36<28 39.8 250.6 262> 716 20G<149 187>
VStem: 104 83<56 669>
LayerCount: 2
Fore
SplineSet
28 0 m 1
 28 36 l 1
 87 41 l 1
 104 57 l 1
 104 669 l 1
 27 669 l 1
 27 700 l 1
 149 736 l 1
 187 736 l 1
 187 57 l 1
 205 41 l 1
 262 36 l 1
 262 0 l 1
 28 0 l 1
EndSplineSet
Validated: 1
EndChar

StartChar: m
Encoding: 109 109 76
Width: 843
VWidth: 1000
Flags: W
HStem: 0 36<30 40.8 239.4 249 321 330.6 524.6 534 607 616.4 814.4 825> 425 66<298 344 582 626> 466 20G<146 184>
VStem: 101 83<56 392> 386 83<56 341> 672 83<56 341>
LayerCount: 2
Fore
SplineSet
454 424 m 1xdc
 529 468 586 491 626 491 c 0
 705 491 755 438 755 339 c 2
 755 57 l 1
 772 41 l 1
 825 36 l 1
 825 0 l 1
 607 0 l 1
 607 36 l 1
 654 41 l 1
 672 57 l 1
 672 322 l 2
 672 392 644 425 582 425 c 0
 550 425 512 413 469 392 c 1
 469 57 l 1
 487 41 l 1
 534 36 l 1
 534 0 l 1
 321 0 l 1
 321 36 l 1
 369 41 l 1
 386 57 l 1
 386 322 l 2
 386 392 358 425 298 425 c 0xdc
 265 425 228 414 184 392 c 1
 184 57 l 1
 201 41 l 1
 249 36 l 1
 249 0 l 1
 30 0 l 1
 30 36 l 1
 84 41 l 1
 101 57 l 1
 101 419 l 1
 30 419 l 1
 30 450 l 1
 146 486 l 1
 184 486 l 1xbc
 184 431 l 1
 250 470 302 491 344 491 c 0
 393 491 431 468 454 424 c 1xdc
EndSplineSet
Validated: 1
EndChar

StartChar: n
Encoding: 110 110 77
Width: 568
VWidth: 1000
Flags: W
HStem: 0 36<30 40.8 239.4 249 332 341.6 540.2 551> 425 66<296 345> 466 20G<146 184>
VStem: 101 83<56 392> 397 83<56 341>
LayerCount: 2
Fore
SplineSet
30 0 m 1xd8
 30 36 l 1
 84 41 l 1
 101 57 l 1
 101 419 l 1
 30 419 l 1
 30 450 l 1
 146 486 l 1
 184 486 l 1xb8
 184 431 l 1
 251 468 302 491 345 491 c 0
 432 491 480 439 480 339 c 2
 480 57 l 1
 497 41 l 1
 551 36 l 1
 551 0 l 1
 332 0 l 1
 332 36 l 1
 380 41 l 1
 397 57 l 1
 397 322 l 2
 397 395 370 425 296 425 c 0
 264 425 227 414 184 392 c 1
 184 57 l 1
 201 41 l 1
 249 36 l 1
 249 0 l 1
 30 0 l 1xd8
EndSplineSet
Validated: 1
EndChar

StartChar: o
Encoding: 111 111 78
Width: 539
VWidth: 1000
Flags: W
HStem: -9 43<260 278> 448 43<260 278>
VStem: 37 94<230 264> 408 94<230 264>
LayerCount: 2
Fore
SplineSet
269 491 m 0
 404 491 502 389 502 241 c 0
 502 93 403 -9 269 -9 c 0
 135 -9 37 93 37 241 c 0
 37 390 134 491 269 491 c 0
269 448 m 0
 188 448 131 371 131 241 c 0
 131 112 189 34 269 34 c 0
 350 34 408 111 408 241 c 0
 408 370 350 448 269 448 c 0
EndSplineSet
Validated: 1
EndChar

StartChar: p
Encoding: 112 112 79
Width: 551
VWidth: 1000
Flags: W
HStem: -218 36<23 33.8 245.2 258> -3 45<246 280> 428 63<282 324> 466 20G<139 177>
VStem: 94 83<-162 6 57 394> 428 88<229 263>
LayerCount: 2
Fore
SplineSet
23 -218 m 1xec
 23 -182 l 1
 77 -177 l 1
 94 -161 l 1
 94 419 l 1
 23 419 l 1
 23 450 l 1
 139 486 l 1
 177 486 l 1xdc
 177 431 l 1
 230 471 277 491 324 491 c 0
 434 491 516 397 516 257 c 0
 516 99 418 -3 270 -3 c 0
 245 -3 214 0 177 6 c 1
 177 -161 l 1
 194 -177 l 1
 258 -182 l 1
 258 -218 l 1
 23 -218 l 1xec
177 58 m 1
 210 47 238 42 262 42 c 0
 360 42 428 121 428 244 c 0
 428 359 369 428 282 428 c 0xec
 248 428 215 416 177 394 c 1
 177 58 l 1
EndSplineSet
Validated: 1
EndChar

StartChar: q
Encoding: 113 113 80
Width: 531
VWidth: 1000
Flags: W
HStem: -218 36<292 307.75 512.75 526> -3 53<234 279> 449 43<290 316>
VStem: 37 90<228 247> 372 83<-162 33 64 423>
LayerCount: 2
Fore
SplineSet
459 475 m 1
 457 436 455 412 455 402 c 2
 455 -161 l 1
 473 -178 l 1
 526 -182 l 1
 526 -218 l 1
 292 -218 l 1
 292 -182 l 1
 355 -178 l 1
 372 -161 l 1
 372 33 l 1
 321 9 276 -3 234 -3 c 0
 117 -3 37 88 37 230 c 0
 37 390 144 492 316 492 c 0
 358 492 406 486 459 475 c 1
372 438 m 1
 342 445 317 449 296 449 c 0
 193 449 127 373 127 243 c 0
 127 119 185 50 279 50 c 0
 302 50 332 55 372 65 c 1
 372 438 l 1
EndSplineSet
Validated: 1
EndChar

StartChar: r
Encoding: 114 114 81
Width: 382
VWidth: 1000
Flags: W
HStem: 0 36<30 40.6 257 271> 416 75<292 316> 466 20G<146 184>
VStem: 101 83<56 343 392 418>
LayerCount: 2
Fore
SplineSet
30 0 m 1xd0
 30 36 l 1
 83 41 l 1
 101 57 l 1
 101 419 l 1
 30 419 l 1
 30 450 l 1
 146 486 l 1
 184 486 l 1xb0
 184 392 l 1
 219 428 255 460 291 489 c 1
 299 491 308 491 316 491 c 0
 336 491 355 487 376 478 c 1
 376 392 l 1
 344 392 l 1
 331 408 314 416 293 416 c 0
 260 416 225 391 184 343 c 1
 184 57 l 1
 201 41 l 1
 271 36 l 1
 271 0 l 1
 30 0 l 1xd0
EndSplineSet
Validated: 1
EndChar

StartChar: s
Encoding: 115 115 82
Width: 400
VWidth: 1000
Flags: W
HStem: -9 42<169 189> 448 43<201 229>
VStem: 50 80<351 376> 281 78<114 141>
LayerCount: 2
Fore
SplineSet
344 469 m 1
 344 356 l 1
 295 356 l 1
 287 427 l 1
 261 441 237 448 213 448 c 0
 160 448 130 421 130 376 c 0
 130 333 159 312 215 285 c 0
 250 268 288 254 321 227 c 0
 345 208 359 178 359 141 c 0
 359 48 290 -9 172 -9 c 0
 121 -9 77 -1 42 12 c 1
 42 142 l 1
 90 142 l 1
 102 57 l 1
 130 41 158 33 187 33 c 0
 245 33 281 67 281 114 c 0
 281 166 245 184 179 214 c 0
 94 252 50 284 50 351 c 0
 50 439 113 491 227 491 c 0
 271 491 310 484 344 469 c 1
EndSplineSet
Validated: 1
EndChar

StartChar: t
Encoding: 116 116 83
Width: 334
VWidth: 1000
Flags: W
HStem: 421 47<171 323>
VStem: 88 83<140 421>
LayerCount: 2
Fore
SplineSet
88 421 m 1
 25 421 l 1
 25 452 l 1
 91 481 l 1
 134 574 l 1
 171 574 l 1
 171 468 l 1
 323 468 l 1
 323 421 l 1
 171 421 l 1
 171 157 l 2
 171 81 184 48 254 48 c 0
 277 48 300 51 323 56 c 1
 323 19 l 1
 276 4 231 -3 192 -3 c 0
 109 -3 88 27 88 98 c 2
 88 421 l 1
EndSplineSet
Validated: 1
EndChar

StartChar: u
Encoding: 117 117 84
Width: 569
VWidth: 1000
Flags: W
HStem: -10 64<231 277> 0 36<531.6 541> 471 20G<142 180 438 476>
VStem: 97 83<141 423> 393 83<83 423>
LayerCount: 2
Fore
SplineSet
142 491 m 1xb8
 180 491 l 1
 180 160 l 2
 180 88 210 54 277 54 c 0xb8
 314 54 352 64 393 84 c 1
 393 423 l 1
 322 423 l 1
 322 454 l 1
 438 491 l 1
 476 491 l 1
 476 57 l 1
 494 41 l 1
 541 36 l 1
 541 0 l 1
 393 0 l 1x78
 393 56 l 1
 333 13 280 -10 231 -10 c 0
 145 -10 97 43 97 143 c 2
 97 423 l 1
 26 423 l 1
 26 454 l 1
 142 491 l 1xb8
EndSplineSet
Validated: 1
EndChar

StartChar: v
Encoding: 118 118 85
Width: 494
VWidth: 1000
Flags: W
HStem: 0 21G<217 273> 444 37<-5 5.16667 198.75 212 330 343.5 499.625 507>
LayerCount: 2
Fore
SplineSet
-5 481 m 1
 212 481 l 1
 212 444 l 1
 159 440 l 1
 147 424 l 1
 264 97 l 1
 392 424 l 1
 384 440 l 1
 330 444 l 1
 330 481 l 1
 507 481 l 1
 507 444 l 1
 448 436 l 1
 273 0 l 1
 217 0 l 1
 56 438 l 1
 -5 444 l 1
 -5 481 l 1
EndSplineSet
Validated: 1
EndChar

StartChar: w
Encoding: 119 119 86
Width: 771
VWidth: 1000
Flags: W
HStem: 0 21G<192 254 510 572> 444 37<-2 8.16667 201.75 215 594 607.5>
LayerCount: 2
Fore
SplineSet
-2 481 m 1
 215 481 l 1
 215 444 l 1
 162 440 l 1
 150 424 l 1
 241 99 l 1
 375 481 l 1
 436 481 l 1
 554 99 l 1
 656 424 l 1
 648 440 l 1
 594 444 l 1
 594 481 l 1
 771 481 l 1
 771 444 l 1
 715 436 l 1
 572 0 l 1
 510 0 l 1
 389 379 l 1
 254 0 l 1
 192 0 l 1
 59 438 l 1
 -2 444 l 1
 -2 481 l 1
EndSplineSet
Validated: 1
EndChar

StartChar: x
Encoding: 120 120 87
Width: 503
VWidth: 1000
Flags: W
HStem: 0 37<12 19.125 192.857 201 492.5 500> 444 37<225.333 233 301 309>
LayerCount: 2
Fore
SplineSet
18 481 m 1
 233 481 l 1
 233 444 l 1
 187 438 l 1
 182 428 l 1
 266 297 l 1
 357 425 l 1
 349 438 l 1
 301 444 l 1
 301 481 l 1
 481 481 l 1
 481 444 l 1
 425 434 l 1
 293 259 l 1
 440 45 l 1
 500 37 l 1
 500 0 l 1
 287 0 l 1
 287 37 l 1
 329 44 l 1
 334 52 l 1
 241 201 l 1
 139 56 l 1
 144 44 l 1
 201 37 l 1
 201 0 l 1
 12 0 l 1
 12 37 l 1
 69 45 l 1
 213 238 l 1
 79 433 l 1
 18 444 l 1
 18 481 l 1
EndSplineSet
Validated: 1
EndChar

StartChar: y
Encoding: 121 121 88
Width: 495
VWidth: 1000
Flags: W
HStem: 444 37<-1 9.16667 202.75 216 334 347.5 504.75 512>
LayerCount: 2
Fore
SplineSet
-1 481 m 1
 216 481 l 1
 216 444 l 1
 163 440 l 1
 151 424 l 1
 271 113 l 1
 396 424 l 1
 388 440 l 1
 334 444 l 1
 334 481 l 1
 512 481 l 1
 512 444 l 1
 454 436 l 1
 254 -50 l 2
 207 -163 159 -218 94 -218 c 0
 52 -218 25 -195 25 -162 c 0
 25 -142 34 -124 51 -108 c 1
 147 -146 l 1
 174 -117 203 -67 228 4 c 1
 60 438 l 1
 -1 444 l 1
 -1 481 l 1
EndSplineSet
Validated: 1
EndChar

StartChar: z
Encoding: 122 122 89
Width: 468
VWidth: 1000
Flags: W
HStem: 0 46<139 354> 435 46<126 312>
LayerCount: 2
Fore
SplineSet
45 0 m 1
 45 50 l 1
 312 435 l 1
 127 435 l 1
 113 419 l 1
 102 342 l 1
 55 342 l 1
 55 481 l 1
 416 481 l 1
 416 443 l 1
 139 46 l 1
 354 46 l 1
 369 62 l 1
 380 147 l 1
 431 147 l 1
 431 0 l 1
 45 0 l 1
EndSplineSet
Validated: 1
EndChar

StartChar: braceleft
Encoding: 123 123 90
Width: 486
VWidth: 1000
Flags: W
HStem: -134 39<361.5 418 393 418> 268 44<65 98> 666 37<384.667 418>
VStem: 211 80<25 139 438 555>
LayerCount: 2
Fore
SplineSet
418 703 m 1
 418 666 l 1
 318 663 291 634 291 546 c 2
 291 465 l 2
 291 360 260 311 160 290 c 1
 254 269 291 221 291 121 c 2
 291 38 l 2
 291 -62 305 -93 418 -95 c 1
 418 -134 l 1
 409 -134 401 -134 393 -134 c 0
 251 -134 211 -90 211 49 c 2
 211 134 l 2
 211 233 180 269 88 269 c 0
 81 269 73 268 65 268 c 1
 65 312 l 1
 74 311 83 311 91 311 c 0
 181 311 211 347 211 440 c 2
 211 542 l 2
 211 656 268 703 405 703 c 0
 409 703 414 703 418 703 c 1
EndSplineSet
Validated: 1
EndChar

StartChar: bar
Encoding: 124 124 91
Width: 500
VWidth: 1000
Flags: W
VStem: 219 62<-236 764>
LayerCount: 2
Fore
SplineSet
219 764 m 1
 281 764 l 1
 281 -236 l 1
 219 -236 l 1
 219 764 l 1
EndSplineSet
Validated: 1
EndChar

StartChar: braceright
Encoding: 125 125 92
Width: 486
VWidth: 1000
Flags: W
HStem: -134 39<64 120.5 64.1254 88> 269 42<383 417> 666 37<64 97.3333>
VStem: 191 80<25 139 438 555>
LayerCount: 2
Fore
SplineSet
64 703 m 1
 68 703 73 703 77 703 c 0
 214 703 271 656 271 542 c 2
 271 440 l 2
 271 347 301 311 391 311 c 0
 399 311 408 311 417 312 c 1
 417 268 l 1
 409 268 401 269 394 269 c 0
 302 269 271 233 271 134 c 2
 271 49 l 2
 271 -89 231 -134 88 -134 c 0
 64 -134 l 1
 64 -95 l 1
 177 -93 191 -62 191 38 c 2
 191 121 l 2
 191 221 228 269 322 290 c 1
 222 311 191 360 191 465 c 2
 191 546 l 2
 191 634 164 663 64 666 c 1
 64 703 l 1
EndSplineSet
Validated: 1
EndChar

StartChar: asciitilde
Encoding: 126 126 93
Width: 833
VWidth: 1000
Flags: W
HStem: 236 58<550 568> 303 58<262 296>
LayerCount: 2
Fore
SplineSet
747 370 m 1
 747 306 l 1
 681 259 618 236 558 236 c 0
 529 236 498 242 465 253 c 0
 396 276 337 303 275 303 c 0
 216 303 158 275 87 225 c 1
 87 290 l 1
 155 337 218 361 276 361 c 0
 328 361 373 345 418 329 c 0
 466 312 509 294 559 294 c 0
 619 294 677 321 747 370 c 1
EndSplineSet
Validated: 1
EndChar

StartChar: afii57801
Encoding: 1457 1457 95
Width: 0
VWidth: 1100
Flags: HMW
AnchorPoint: "ColumnToBaseMark" -273.059 -106.764 basemark 0
AnchorPoint: "DotToBaseMark" -256.059 -106.764 basemark 0
AnchorPoint: "BarToBaseMark" -246.059 -106.764 basemark 0
AnchorPoint: "2DotsToBaseMark" 202.059 -106.764 mark 0
AnchorPoint: "DiaToBase3" 0 0 mark 0
LayerCount: 2
Back
SplineSet
-123.529 -214.705 m 1
 -111.447 -194.397 -96.7783 -179.729 -76.4707 -167.646 c 1
 -56.1631 -179.729 -41.4932 -194.397 -29.4111 -214.705 c 1
 -41.4932 -235.013 -56.1631 -249.683 -76.4707 -261.765 c 1
 -96.7783 -249.683 -111.447 -235.013 -123.529 -214.705 c 1
94.1182 -214.705 m 1
 106.199 -194.397 120.869 -179.729 141.177 -167.646 c 1
 161.484 -179.729 176.153 -194.397 188.235 -214.705 c 1
 176.153 -235.013 161.484 -249.683 141.177 -261.765 c 1
 120.869 -249.683 106.199 -235.013 94.1182 -214.705 c 1
94.1182 -97.0586 m 1
 106.199 -76.751 120.869 -62.0811 141.177 -50 c 1
 161.484 -62.0811 176.153 -76.751 188.235 -97.0586 c 1
 176.153 -117.366 161.484 -132.035 141.177 -144.117 c 1
 120.869 -132.035 106.199 -117.366 94.1182 -97.0586 c 1
-58.8232 -97.0586 m 1
 -46.7412 -76.751 -32.0723 -62.0811 -11.7646 -50 c 1
 8.54297 -62.0811 23.2129 -76.751 35.2939 -97.0586 c 1
 23.2129 -117.366 8.54297 -132.035 -11.7646 -144.117 c 1
 -32.0723 -132.035 -46.7412 -117.366 -58.8232 -97.0586 c 1
-188.235 -97.0586 m 1
 -176.153 -76.751 -161.484 -62.0811 -141.177 -50 c 1
 -120.868 -62.0811 -106.199 -76.751 -94.1172 -97.0586 c 1
 -106.199 -117.366 -120.868 -132.035 -141.177 -144.117 c 1
 -161.484 -132.035 -176.153 -117.366 -188.235 -97.0586 c 1
EndSplineSet
Fore
SplineSet
-130.882 -236.176 m 5
 -117.592 -213.837 -101.456 -197.702 -79.1182 -184.41 c 5
 -56.7793 -197.702 -40.6426 -213.837 -27.3525 -236.176 c 5
 -40.6426 -258.515 -56.7793 -274.651 -79.1182 -287.941 c 5
 -101.456 -274.651 -117.592 -258.515 -130.882 -236.176 c 5
98.5293 -236.176 m 1
 111.818 -213.837 127.956 -197.702 150.295 -184.41 c 1
 172.633 -197.702 188.769 -213.837 202.059 -236.176 c 1
 188.769 -258.515 172.633 -274.651 150.295 -287.941 c 1
 127.956 -274.651 111.818 -258.515 98.5293 -236.176 c 1
98.5293 -106.765 m 1
 111.818 -84.4258 127.956 -68.2891 150.295 -55 c 1
 172.633 -68.2891 188.769 -84.4258 202.059 -106.765 c 1
 188.769 -129.103 172.633 -145.238 150.295 -158.528 c 1
 127.956 -145.238 111.818 -129.103 98.5293 -106.765 c 1
-59.7051 -106.765 m 5
 -46.415 -84.4258 -30.2793 -68.2891 -7.94141 -55 c 5
 14.3975 -68.2891 30.5342 -84.4258 43.8232 -106.765 c 5
 30.5342 -129.103 14.3975 -145.238 -7.94141 -158.528 c 5
 -30.2793 -145.238 -46.415 -129.103 -59.7051 -106.765 c 5
-202.059 -106.765 m 5
 -188.769 -84.4258 -172.633 -68.2891 -150.295 -55 c 5
 -127.955 -68.2891 -111.819 -84.4258 -98.5293 -106.765 c 5
 -111.819 -129.103 -127.955 -145.238 -150.295 -158.528 c 5
 -172.633 -145.238 -188.769 -129.103 -202.059 -106.765 c 5
EndSplineSet
Validated: 1
Substitution2: "WideMarkToNarrow subtable" hatafsegol.narrow
EndChar

StartChar: afii57800
Encoding: 1458 1458 96
Width: 0
VWidth: 1100
Flags: HMW
AnchorPoint: "ColumnToBaseMark" -270.406 -106.764 basemark 0
AnchorPoint: "DotToBaseMark" -253.406 -106.764 basemark 0
AnchorPoint: "2DotsToBaseMark" 209.406 -106.764 mark 0
AnchorPoint: "DiaToBase3" 0 0 mark 0
LayerCount: 2
Back
SplineSet
-194.118 -62 m 1
 64.7051 -62 l 1
 61.1846 -90.7393 53.25 -114.542 38.8232 -139.646 c 1
 -220 -139.646 l 17
 -216.479 -110.907 -208.545 -87.1045 -194.118 -62 c 1
105.883 -214.705 m 1
 117.964 -194.397 132.634 -179.729 152.941 -167.646 c 1
 173.249 -179.729 187.918 -194.397 200 -214.705 c 1
 187.918 -235.013 173.249 -249.683 152.941 -261.765 c 1
 132.634 -249.683 117.964 -235.013 105.883 -214.705 c 1
105.883 -97.0586 m 1
 117.964 -76.751 132.634 -62.0811 152.941 -50 c 1
 173.249 -62.0811 187.918 -76.751 200 -97.0586 c 1
 187.918 -117.366 173.249 -132.035 152.941 -144.117 c 1
 132.634 -132.035 117.964 -117.366 105.883 -97.0586 c 1
-176.471 -50 m 5
 58.8232 -50 l 5
 55.6221 -76.127 48.4092 -97.7656 35.2939 -120.588 c 5
 -200 -120.588 l 21
 -196.799 -94.4609 -189.586 -72.8223 -176.471 -50 c 5
EndSplineSet
Fore
SplineSet
-185.877 -69.04 m 1
 60.9453 -69.04 l 5
 57.7441 -95.167 50.5312 -116.806 37.416 -139.628 c 1
 -209.406 -139.628 l 17
 -206.205 -113.501 -198.992 -91.8623 -185.877 -69.04 c 1
105.879 -236.176 m 1
 119.168 -213.837 135.304 -197.702 157.643 -184.41 c 1
 179.98 -197.702 196.117 -213.837 209.406 -236.176 c 1
 196.117 -258.515 179.98 -274.651 157.643 -287.941 c 1
 135.304 -274.651 119.168 -258.515 105.879 -236.176 c 1
105.879 -106.765 m 1
 119.168 -84.4258 135.304 -68.2891 157.643 -55 c 1
 179.98 -68.2891 196.117 -84.4258 209.406 -106.765 c 1
 196.117 -129.103 179.98 -145.238 157.643 -158.528 c 1
 135.304 -145.238 119.168 -129.103 105.879 -106.765 c 1
EndSplineSet
Validated: 1
Substitution2: "WideMarkToNarrow subtable" hatafpatah.narrow
EndChar

StartChar: afii57802
Encoding: 1459 1459 97
Width: 0
VWidth: 1100
Flags: HMW
AnchorPoint: "ColumnToBaseMark" -276.002 -106.764 basemark 0
AnchorPoint: "DotToBaseMark" -259.002 -106.764 basemark 0
AnchorPoint: "2DotsToBaseMark" 215.002 -106.764 mark 0
AnchorPoint: "DiaToBase3" 0 0 mark 0
LayerCount: 2
Back
SplineSet
38.8232 -139.646 m 1
 -38.8232 -139.646 l 1
 -38.8232 -243.176 l 1
 -52.3398 -245.444 -63.9404 -246.41 -77.6465 -246.41 c 1
 -91.3525 -246.41 -102.953 -245.444 -116.47 -243.176 c 1
 -116.47 -139.646 l 1
 -220 -139.646 l 17
 -216.479 -110.907 -208.545 -87.1045 -194.118 -62 c 1
 64.7051 -62 l 1
 61.1846 -90.7393 53.25 -114.542 38.8232 -139.646 c 1
35.2939 -120.588 m 5
 -35.2939 -120.588 l 5
 -35.2939 -214.705 l 5
 -47.582 -216.768 -58.1279 -217.646 -70.5879 -217.646 c 5
 -83.0479 -217.646 -93.5938 -216.768 -105.882 -214.705 c 5
 -105.882 -120.588 l 5
 -200 -120.588 l 21
 -196.799 -94.4609 -189.586 -72.8223 -176.471 -50 c 5
 58.8232 -50 l 5
 55.6221 -76.127 48.4092 -97.7656 35.2939 -120.588 c 5
105.883 -214.705 m 1
 117.964 -194.397 132.634 -179.729 152.941 -167.646 c 1
 173.249 -179.729 187.918 -194.397 200 -214.705 c 1
 187.918 -235.013 173.249 -249.683 152.941 -261.765 c 1
 132.634 -249.683 117.964 -235.013 105.883 -214.705 c 1
105.883 -97.0586 m 1
 117.964 -76.751 132.634 -62.0811 152.941 -50 c 1
 173.249 -62.0811 187.918 -76.751 200 -97.0586 c 1
 187.918 -117.366 173.249 -132.035 152.941 -144.117 c 1
 132.634 -132.035 117.964 -117.366 105.883 -97.0586 c 1
EndSplineSet
Fore
SplineSet
44.1406 -139.262 m 5
 -37.8242 -139.262 l 5
 -37.8232 -243.062 l 5
 -50.1113 -245.125 -60.6572 -246.003 -73.1172 -246.003 c 5
 -85.5771 -246.003 -96.123 -245.125 -108.411 -243.062 c 5
 -108.412 -139.262 l 5
 -215.002 -139.263 l 21
 -211.801 -113.136 -204.588 -91.4971 -191.473 -68.6748 c 5
 67.6699 -68.6738 l 5
 64.4688 -94.8008 57.2559 -116.439 44.1406 -139.262 c 5
111.474 -236.176 m 1
 124.763 -213.837 140.899 -197.702 163.237 -184.41 c 1
 185.576 -197.702 201.712 -213.837 215.002 -236.176 c 1
 201.712 -258.515 185.576 -274.651 163.237 -287.941 c 1
 140.899 -274.651 124.763 -258.515 111.474 -236.176 c 1
111.474 -106.765 m 1
 124.763 -84.4258 140.899 -68.2891 163.237 -55 c 1
 185.576 -68.2891 201.712 -84.4258 215.002 -106.765 c 1
 201.712 -129.103 185.576 -145.238 163.237 -158.528 c 1
 140.899 -145.238 124.763 -129.103 111.474 -106.765 c 1
EndSplineSet
Validated: 1
Substitution2: "WideMarkToNarrow subtable" hatafqamats.narrow
EndChar

StartChar: afii57793
Encoding: 1460 1460 98
Width: 0
VWidth: 1100
Flags: HMW
AnchorPoint: "CtxAnchors_M_D1" -70.7959 0 mark 0
AnchorPoint: "CtxAnchors_Yerushalam" 0 0 mark 0
AnchorPoint: "ColumnToBaseMark" -122.765 -106.764 basemark 0
AnchorPoint: "DotToBaseMark" -105.765 -106.764 basemark 0
AnchorPoint: "BarToBaseMark" -95.7646 -106.764 basemark 0
AnchorPoint: "DotToBaseMark" 51.7646 -106.764 mark 0
AnchorPoint: "DiaToBase1" 0 0 mark 0
LayerCount: 2
Back
SplineSet
-47.0586 -97.0586 m 1
 -34.9766 -76.751 -20.3086 -62.0811 0 -50 c 1
 20.3086 -62.0811 34.9766 -76.751 47.0586 -97.0586 c 1
 34.9766 -117.366 20.3086 -132.035 0 -144.117 c 1
 -20.3086 -132.035 -34.9766 -117.366 -47.0586 -97.0586 c 1
EndSplineSet
Fore
SplineSet
-51.7646 -106.765 m 1
 -38.4746 -84.4258 -22.3398 -68.2891 0 -55 c 1
 22.3398 -68.2891 38.4746 -84.4258 51.7646 -106.765 c 1
 38.4746 -129.103 22.3398 -145.238 0 -158.528 c 1
 -22.3398 -145.238 -38.4746 -129.103 -51.7646 -106.765 c 1
EndSplineSet
Validated: 1
Comment: "+AAoA%BarToBaseMark+AD0A-44+AAoA%ColumnToBaseMark+AD0A-71+AAoA%DotToBaseMark+AD0A-54" 
EndChar

StartChar: afii57794
Encoding: 1461 1461 99
Width: 0
VWidth: 1100
Flags: HMW
AnchorPoint: "CtxAnchors_M_D2" -70.7959 0 mark 0
AnchorPoint: "ColumnToBaseMark" -200.41 -106.764 basemark 0
AnchorPoint: "DotToBaseMark" -183.41 -106.764 basemark 0
AnchorPoint: "BarToBaseMark" -173.41 -106.764 basemark 0
AnchorPoint: "DotToBaseMark" 129.41 -106.764 mark 0
AnchorPoint: "DiaToBase2" 0 0 mark 0
LayerCount: 2
Back
SplineSet
23.5293 -97.0586 m 1
 35.6113 -76.751 50.2812 -62.0811 70.5879 -50 c 1
 90.8965 -62.0811 105.566 -76.751 117.646 -97.0586 c 1
 105.566 -117.366 90.8965 -132.035 70.5879 -144.117 c 1
 50.2812 -132.035 35.6113 -117.366 23.5293 -97.0586 c 1
-117.646 -97.0586 m 1
 -105.564 -76.751 -90.8965 -62.0811 -70.5879 -50 c 1
 -50.2793 -62.0811 -35.6113 -76.751 -23.5293 -97.0586 c 1
 -35.6113 -117.366 -50.2793 -132.035 -70.5879 -144.117 c 1
 -90.8965 -132.035 -105.564 -117.366 -117.646 -97.0586 c 1
EndSplineSet
Fore
SplineSet
25.8818 -106.765 m 1
 39.1729 -84.4258 55.3096 -68.2891 77.6465 -55 c 1
 99.9863 -68.2891 116.123 -84.4258 129.41 -106.765 c 1
 116.123 -129.103 99.9863 -145.238 77.6465 -158.528 c 1
 55.3096 -145.238 39.1729 -129.103 25.8818 -106.765 c 1
-129.41 -106.765 m 1
 -116.12 -84.4258 -99.9863 -68.2891 -77.6465 -55 c 1
 -55.3076 -68.2891 -39.1729 -84.4258 -25.8818 -106.765 c 1
 -39.1729 -129.103 -55.3076 -145.238 -77.6465 -158.528 c 1
 -99.9863 -145.238 -116.12 -129.103 -129.41 -106.765 c 1
EndSplineSet
Validated: 1
Substitution2: "WideMarkToNarrow subtable" tsere.narrow
EndChar

StartChar: afii57795
Encoding: 1462 1462 100
Width: 0
VWidth: 1100
Flags: HMW
AnchorPoint: "CtxAnchors_M_D2" -70.7959 0 mark 0
AnchorPoint: "ColumnToBaseMark" -200.41 -106.764 basemark 0
AnchorPoint: "DotToBaseMark" -183.41 -106.764 basemark 0
AnchorPoint: "BarToBaseMark" -173.41 -106.764 basemark 0
AnchorPoint: "DotToBaseMark" 129.41 -106.764 mark 0
AnchorPoint: "DiaToBase2" 0 0 mark 0
LayerCount: 2
Back
SplineSet
-47.0586 -202.94 m 1
 -34.9766 -182.633 -20.3066 -167.964 0 -155.882 c 1
 20.3086 -167.964 34.9766 -182.633 47.0586 -202.94 c 1
 34.9766 -223.248 20.3086 -237.918 0 -250 c 1
 -20.3066 -237.918 -34.9766 -223.248 -47.0586 -202.94 c 1
23.5293 -97.0586 m 1
 35.6113 -76.751 50.2812 -62.0811 70.5879 -50 c 1
 90.8965 -62.0811 105.566 -76.751 117.646 -97.0586 c 1
 105.566 -117.366 90.8965 -132.035 70.5879 -144.117 c 1
 50.2812 -132.035 35.6113 -117.366 23.5293 -97.0586 c 1
-117.646 -97.0586 m 1
 -105.564 -76.751 -90.8965 -62.0811 -70.5879 -50 c 1
 -50.2793 -62.0811 -35.6113 -76.751 -23.5293 -97.0586 c 1
 -35.6113 -117.366 -50.2793 -132.035 -70.5879 -144.117 c 1
 -90.8965 -132.035 -105.564 -117.366 -117.646 -97.0586 c 1
EndSplineSet
Fore
SplineSet
-51.7646 -223.234 m 1
 -38.4746 -200.896 -22.3369 -184.761 0 -171.471 c 1
 22.3398 -184.761 38.4746 -200.896 51.7646 -223.234 c 1
 38.4746 -245.573 22.3398 -261.71 0 -275 c 1
 -22.3369 -261.71 -38.4746 -245.573 -51.7646 -223.234 c 1
25.8818 -106.765 m 1
 39.1729 -84.4258 55.3096 -68.2891 77.6465 -55 c 1
 99.9863 -68.2891 116.123 -84.4258 129.41 -106.765 c 1
 116.123 -129.103 99.9863 -145.238 77.6465 -158.528 c 1
 55.3096 -145.238 39.1729 -129.103 25.8818 -106.765 c 1
-129.41 -106.765 m 1
 -116.12 -84.4258 -99.9863 -68.2891 -77.6465 -55 c 5
 -55.3076 -68.2891 -39.1729 -84.4258 -25.8818 -106.765 c 1
 -39.1729 -129.103 -55.3076 -145.238 -77.6465 -158.528 c 1
 -99.9863 -145.238 -116.12 -129.103 -129.41 -106.765 c 1
EndSplineSet
Validated: 1
Substitution2: "WideMarkToNarrow subtable" segol.narrow
EndChar

StartChar: afii57798
Encoding: 1463 1463 101
Width: 0
VWidth: 1100
Flags: HMW
AnchorPoint: "CtxAnchors_M_D2" -65.7959 0 mark 0
AnchorPoint: "ColumnToBaseMark" -198 -106.764 basemark 0
AnchorPoint: "DotToBaseMark" -181 -106.764 basemark 0
AnchorPoint: "BarToBaseMark" 135.029 -106.764 mark 0
AnchorPoint: "DiaToBase2" 0 0 mark 0
LayerCount: 2
Back
SplineSet
-116.472 -62 m 1
 142.354 -62 l 1
 138.832 -90.7393 130.897 -114.542 116.472 -139.646 c 1
 -142.354 -139.646 l 17
 -138.832 -110.907 -130.897 -87.1045 -116.472 -62 c 1
-105.883 -50 m 5
 129.412 -50 l 5
 126.211 -76.127 118.998 -97.7656 105.883 -120.588 c 5
 -129.412 -120.588 l 21
 -126.211 -94.4609 -118.998 -72.8223 -105.883 -50 c 5
EndSplineSet
Fore
SplineSet
-113.471 -68.9121 m 1
 135.029 -68.9121 l 5
 131.828 -95.0391 124.615 -116.678 111.5 -139.5 c 5
 -137 -139.5 l 17
 -133.799 -113.373 -126.586 -91.7344 -113.471 -68.9121 c 1
EndSplineSet
Validated: 1
Substitution2: "WideMarkToNarrow subtable" patah.narrow
Comment: "+AAoA%ColumnToBaseMark+AD0A-61+AAoA%DotToBaseMark+AD0A-44" 
EndChar

StartChar: afii57797
Encoding: 1464 1464 102
Width: 0
VWidth: 1100
Flags: HMW
AnchorPoint: "CtxAnchors_M_D2" -65.7959 0 mark 0
AnchorPoint: "ColumnToBaseMark" -203 -106.764 basemark 0
AnchorPoint: "DotToBaseMark" -186 -106.764 basemark 0
AnchorPoint: "BarToBaseMark" 140.029 -106.764 mark 0
AnchorPoint: "DiaToBase2" 0 0 mark 0
LayerCount: 2
Back
SplineSet
116.472 -139.646 m 1
 38.8242 -139.646 l 1
 38.8242 -243.176 l 1
 25.3066 -245.444 13.707 -246.41 0 -246.41 c 1
 -13.7051 -246.41 -25.3066 -245.444 -38.8223 -243.176 c 1
 -38.8223 -139.646 l 1
 -142.354 -139.646 l 17
 -138.832 -110.907 -130.897 -87.1045 -116.472 -62 c 1
 142.354 -62 l 1
 138.832 -90.7393 130.897 -114.542 116.472 -139.646 c 1
105.883 -120.588 m 5
 35.2949 -120.588 l 5
 35.2949 -214.705 l 5
 23.0059 -216.768 12.4609 -217.646 0 -217.646 c 5
 -12.459 -217.646 -23.0059 -216.768 -35.293 -214.705 c 5
 -35.293 -120.588 l 5
 -129.412 -120.588 l 21
 -126.211 -94.4609 -118.998 -72.8223 -105.883 -50 c 5
 129.412 -50 l 5
 126.211 -76.127 118.998 -97.7656 105.883 -120.588 c 5
EndSplineSet
Fore
SplineSet
116.5 -139.5 m 1
 35.2949 -139.5 l 1
 35.2949 -243.5 l 1
 23.0059 -245.562 12.4609 -246.44 0 -246.44 c 1
 -12.459 -246.44 -23.0059 -245.562 -35.293 -243.5 c 1
 -35.293 -139.5 l 1
 -142 -139.5 l 17
 -138.799 -113.373 -131.586 -91.7344 -118.471 -68.9121 c 1
 140.029 -68.9121 l 1
 136.828 -95.0391 129.615 -116.678 116.5 -139.5 c 1
EndSplineSet
Validated: 1
Substitution2: "WideMarkToNarrow subtable" qamats.narrow
EndChar

StartChar: afii57806
Encoding: 1465 1465 103
Width: 0
VWidth: 1040
Flags: HMW
AnchorPoint: "DiaToBaseO" 0 0 mark 0
LayerCount: 2
Back
SplineSet
-47.0586 700.559 m 1
 -34.9766 720.867 -20.3086 735.537 0 747.617 c 1
 20.3086 735.537 34.9766 720.867 47.0586 700.559 c 1
 34.9766 680.252 20.3086 665.582 0 653.5 c 1
 -20.3086 665.582 -34.9766 680.252 -47.0586 700.559 c 1
EndSplineSet
Fore
SplineSet
-51.7646 690.615 m 1
 -38.4746 712.954 -22.3398 729.091 0 742.379 c 1
 22.3398 729.091 38.4746 712.954 51.7646 690.615 c 1
 38.4746 668.277 22.3398 652.141 0 638.85 c 1
 -22.3398 652.141 -38.4746 668.277 -51.7646 690.615 c 1
EndSplineSet
Validated: 1
EndChar

StartChar: afii57796
Encoding: 1467 1467 104
Width: 0
VWidth: 1100
Flags: HMW
AnchorPoint: "CtxAnchors_M_D3Narrow" -54.2959 0 mark 0
AnchorPoint: "ColumnToBaseMark" -206.235 -106.764 basemark 0
AnchorPoint: "DotToBaseNarrowMark" -196.235 -106.764 basemark 0
AnchorPoint: "BarToBaseNarrowMark" -196.235 -106.764 basemark 0
AnchorPoint: "2DotsToBaseNarrowMark" 168.235 -106.764 mark 0
AnchorPoint: "DiaToBaseU" 0 0 mark 0
LayerCount: 2
Back
SplineSet
58.8232 -214.705 m 5
 70.9053 -194.397 85.5742 -179.729 105.883 -167.646 c 5
 126.19 -179.729 140.859 -194.397 152.941 -214.705 c 5
 140.859 -235.013 126.19 -249.683 105.883 -261.765 c 5
 85.5742 -249.683 70.9053 -235.013 58.8232 -214.705 c 5
-47.0586 -155.882 m 5
 -34.9766 -135.574 -20.3076 -120.905 0 -108.823 c 5
 20.3076 -120.905 34.9766 -135.574 47.0586 -155.882 c 5
 34.9766 -176.189 20.3076 -190.859 0 -202.94 c 5
 -20.3076 -190.859 -34.9766 -176.189 -47.0586 -155.882 c 5
-152.941 -97.0586 m 5
 -140.859 -76.751 -126.19 -62.0811 -105.883 -50 c 5
 -85.5742 -62.0811 -70.9053 -76.751 -58.8232 -97.0586 c 5
 -70.9053 -117.366 -85.5742 -132.035 -105.883 -144.117 c 5
 -126.19 -132.035 -140.859 -117.366 -152.941 -97.0586 c 5
EndSplineSet
Fore
SplineSet
64.7051 -236.176 m 5
 77.9961 -213.837 94.1318 -197.702 116.472 -184.41 c 5
 138.809 -197.702 154.945 -213.837 168.235 -236.176 c 5
 154.945 -258.515 138.809 -274.651 116.472 -287.941 c 5
 94.1318 -274.651 77.9961 -258.515 64.7051 -236.176 c 5
-51.7646 -171.471 m 5
 -38.4746 -149.132 -22.3379 -132.995 0 -119.705 c 5
 22.3379 -132.995 38.4746 -149.132 51.7646 -171.471 c 5
 38.4746 -193.808 22.3379 -209.945 0 -223.234 c 5
 -22.3379 -209.945 -38.4746 -193.808 -51.7646 -171.471 c 5
-168.235 -106.765 m 5
 -154.945 -84.4258 -138.809 -68.2891 -116.472 -55 c 5
 -94.1318 -68.2891 -77.9961 -84.4258 -64.7051 -106.765 c 5
 -77.9961 -129.103 -94.1318 -145.238 -116.472 -158.528 c 5
 -138.809 -145.238 -154.945 -129.103 -168.235 -106.765 c 5
EndSplineSet
Validated: 1
EndChar

StartChar: afii57807
Encoding: 1468 1468 105
Width: 0
VWidth: 1000
Flags: HMW
AnchorPoint: "DiaToBaseD" 0 0 mark 0
LayerCount: 2
Back
SplineSet
-61.1758 300 m 1
 -43.9202 323.385 -24.7599 342.277 0 361.177 c 1
 24.4055 343.293 43.3962 324.137 61.1758 300 c 1
 42.202 275.757 22.9391 256.817 0 238.823 c 1
 -22.7584 256.656 -41.5005 275.916 -61.1758 300 c 1
EndSplineSet
Fore
SplineSet
-61.1758 300 m 1
 -43.9202 323.385 -24.7599 342.277 0 361.177 c 1
 24.4055 343.293 43.3962 324.137 61.1758 300 c 1
 42.202 275.757 22.9391 256.817 0 238.823 c 1
 -22.7584 256.656 -41.5005 275.916 -61.1758 300 c 1
EndSplineSet
Validated: 1
EndChar

StartChar: afii57839
Encoding: 1469 1469 106
Width: 0
VWidth: 1100
Flags: W
HStem: -280.059 217.118
VStem: -35.2959 70.5918<-282.83 -60.1696>
AnchorPoint: "CtxAnchors_D3Narrow_M" -195.022 0 mark 0
AnchorPoint: "CtxAnchors_D1_M" -87.2646 0 mark 0
AnchorPoint: "CtxAnchors_D2_M" -161.514 0 mark 0
AnchorPoint: "CtxAnchors_D2Narrow_M" -139.889 0 mark 0
AnchorPoint: "2DotsToBaseNarrowMark" -73.2959 -106.764 basemark 0
AnchorPoint: "DotToBaseMark" -106.296 -106.764 basemark 0
AnchorPoint: "DotToBaseNarrowMark" -72.2959 -106.764 basemark 0
AnchorPoint: "2DotsToBaseMark" -106.296 -106.764 basemark 0
AnchorPoint: "BarToBaseNarrowMark" -79.2959 -106.764 basemark 0
AnchorPoint: "BarToBaseMark" -96.2959 -106.764 basemark 0
AnchorPoint: "ColumnToBaseMark" 35.2959 -106.764 mark 0
AnchorPoint: "DiaToBase1" 0 0 mark 0
LayerCount: 2
Back
SplineSet
35.2949 -68.9414 m 1
 35.2949 -263.059 l 1
 23.0059 -265.121 12.4609 -266 0 -266 c 0
 -12.4609 -266 -23.0059 -265.121 -35.2949 -263.059 c 1
 -35.2949 -68.9414 l 17
 -23.0059 -66.8789 -12.4609 -66 0 -66 c 0
 12.4609 -66 23.0059 -66.8789 35.2949 -68.9414 c 1
EndSplineSet
Fore
SplineSet
35.2959 -62.9414 m 1
 35.2959 -280.059 l 5
 23.0049 -282.121 12.46 -283 -0.000976562 -283 c 0
 -12.4619 -283 -23.0068 -282.121 -35.2959 -280.059 c 1
 -35.2959 -62.9414 l 17
 -23.0068 -60.8789 -12.4619 -60 -0.000976562 -60 c 0
 12.46 -60 23.0049 -60.8789 35.2959 -62.9414 c 1
EndSplineSet
Validated: 1
Comment: "+AAoA%2DotsToBaseMark+AD0A-71+AAoA%2DotsToBaseNarrowMark+AD0A-38+AAoA%BarToBaseMark+AD0A-61+AAoA%BarToBaseNarrowMark+AD0A-44+AAoA%DotToBaseMark+AD0A-71+AAoA%DotToBaseNarrowMark+AD0A-37" 
EndChar

StartChar: afii57645
Encoding: 1470 1470 107
Width: 491
VWidth: 1000
Flags: W
HStem: 491 109<120 382>
VStem: 70 356<491 600>
LayerCount: 2
Back
SplineSet
39.5 479 m 5
 47 519 71 572 97 600 c 5
 373 600 l 1
 367 559 347 510 321.5 479 c 1
 39.5 479 l 5
EndSplineSet
Fore
SplineSet
70 491 m 1
 78.5 528.5 94.5 564 120 600 c 1
 426 600 l 5
 417.5 560.5 402.765 523.474 382 491 c 5
 70 491 l 1
EndSplineSet
Validated: 1
EndChar

StartChar: afii57841
Encoding: 1471 1471 108
Width: 0
VWidth: 1100
Flags: HMW
HStem: 665.912 70.588<-121.579 121.58>
AnchorPoint: "CtxAnchors_Rafe" 0 0 mark 0
AnchorPoint: "RafeToBase" 0 0 mark 0
LayerCount: 2
Back
SplineSet
-116.472 736.499 m 1
 142.354 736.499 l 1
 138.832 707.76 130.897 683.956 116.472 658.853 c 1
 -142.354 658.853 l 17
 -138.832 687.592 -130.897 711.395 -116.472 736.499 c 1
-105.883 724.09 m 5
 129.412 724.09 l 5
 126.211 697.963 118.998 676.324 105.883 653.502 c 5
 -129.412 653.502 l 21
 -126.211 679.629 -118.998 701.268 -105.883 724.09 c 5
EndSplineSet
Fore
SplineSet
-117.485 736.5 m 1
 141.015 736.5 l 1
 137.813 710.373 130.601 688.734 117.485 665.912 c 1
 -141.015 665.912 l 17
 -137.813 692.039 -130.601 713.678 -117.485 736.5 c 1
EndSplineSet
Validated: 1
EndChar

StartChar: afii57842
Encoding: 1472 1472 109
Width: 170
VWidth: 1070
Flags: W
VStem: 51.5811 76.4999<-57 635.67>
LayerCount: 2
Fore
SplineSet
51.5811 635.67 m 1
 74.6836 650 100.333 659.5 128.081 663 c 1
 128.081 -57 l 1
 103.483 -72 79.1836 -81 51.5811 -84.3301 c 1
 51.5811 635.67 l 1
EndSplineSet
Validated: 1
EndChar

StartChar: afii57804
Encoding: 1473 1473 110
Width: 0
VWidth: 1100
Flags: HMW
LayerCount: 2
Back
SplineSet
474.941 669.059 m 5
 487.023 689.366 501.692 704.036 522 716.117 c 5
 542.309 704.036 556.978 689.366 569.06 669.059 c 5
 556.978 648.751 542.309 634.082 522 622 c 5
 501.692 634.082 487.023 648.751 474.941 669.059 c 5
EndSplineSet
Fore
SplineSet
503.2 675.965 m 1
 516.49 698.303 532.626 714.439 554.965 727.729 c 1
 577.305 714.439 593.441 698.303 606.731 675.965 c 1
 593.441 653.626 577.305 637.49 554.965 624.2 c 1
 532.626 637.49 516.49 653.626 503.2 675.965 c 1
EndSplineSet
Validated: 1
EndChar

StartChar: afii57803
Encoding: 1474 1474 111
Width: 0
VWidth: 1100
Flags: HMW
LayerCount: 2
Back
SplineSet
142.941 669.059 m 5
 155.023 689.366 169.692 704.036 190 716.117 c 5
 210.309 704.036 224.978 689.366 237.06 669.059 c 5
 224.978 648.751 210.309 634.082 190 622 c 5
 169.692 634.082 155.023 648.751 142.941 669.059 c 5
EndSplineSet
Fore
SplineSet
155 675.965 m 5
 168.29 698.303 184.426 714.439 206.765 727.729 c 5
 229.104 714.439 245.24 698.303 258.53 675.965 c 5
 245.24 653.626 229.104 637.49 206.765 624.2 c 5
 184.426 637.49 168.29 653.626 155 675.965 c 5
EndSplineSet
Validated: 1
EndChar

StartChar: uni05C4
Encoding: 1476 1476 113
Width: 0
VWidth: 1136
Flags: HMW
LayerCount: 2
Back
SplineSet
-47.0586 700.559 m 5
 -34.9766 720.867 -20.3086 735.537 0 747.617 c 5
 20.3086 735.537 34.9766 720.867 47.0586 700.559 c 5
 34.9766 680.252 20.3086 665.582 0 653.5 c 5
 -20.3086 665.582 -34.9766 680.252 -47.0586 700.559 c 5
EndSplineSet
Fore
SplineSet
-62.1172 752.118 m 1
 -46.1699 778.925 -26.8076 798.289 0 814.235 c 1
 26.8076 798.289 46.1699 778.925 62.1172 752.118 c 1
 46.1699 725.312 26.8076 705.949 0 690 c 1
 -26.8076 705.949 -46.1699 725.312 -62.1172 752.118 c 1
EndSplineSet
Validated: 1
EndChar

StartChar: afii57664
Encoding: 1488 1488 114
Width: 723
VWidth: 1000
Flags: W
HStem: -20 21G<581 656> 0 109<172.922 224.85>
AnchorPoint: "CtxAnchors_D3Narrow_M" 370 0 basechar 0
AnchorPoint: "CtxAnchors_D1_M" 390 0 basechar 0
AnchorPoint: "CtxAnchors_D2_M" 370 0 basechar 0
AnchorPoint: "CtxAnchors_D2Narrow_M" 370 0 basechar 0
AnchorPoint: "CtxAnchors_M_D2" 370 0 basechar 0
AnchorPoint: "CtxAnchors_M_D1" 390 0 basechar 0
AnchorPoint: "CtxAnchors_M_D3Narrow" 370 0 basechar 0
AnchorPoint: "CtxAnchors_M_D2Narrow" 370 0 basechar 0
AnchorPoint: "DiaToBaseD" 342.5 -135 basechar 0
AnchorPoint: "DiaToBaseU" 370 0 basechar 0
AnchorPoint: "DiaToBase4" 370 0 basechar 0
AnchorPoint: "DiaToBase3" 370 0 basechar 0
AnchorPoint: "DiaToBase2" 390 0 basechar 0
AnchorPoint: "DiaToBase1" 375 0 basechar 0
AnchorPoint: "RafeToBase" 350 0 basechar 0
AnchorPoint: "DiaToBaseO" -10 0 basechar 0
LayerCount: 2
Back
SplineSet
96 653.501 m 1
 229 563 365 430 484 320 c 1
 533 407 520 487 489 551 c 1
 514 594 545 628 575 653.505 c 1
 705 563 563 307 533 271 c 1
 610 197 654 151 705 89 c 1
 683 38 666 -4 648 -36 c 1
 502 137 379 265 230 394 c 1
 205 364 155 280 178 161 c 8
 182.188 139.339 183.886 127.021 218 121 c 2
 269 121 l 1
 258 81 236 31 217 0 c 1
 50 0 l 5
 61 30 69.1387 49.1602 76 82 c 5
 75 170 77 239 96 296 c 12
 116.223 356.669 157 409 178 438 c 5
 129 479 89 510 25 553 c 1
 35 582 68 627 96 653.501 c 1
EndSplineSet
Fore
SplineSet
185 445 m 1x40
 141 482 98 517 40 556 c 1
 49 582 75 615 100 639 c 1
 247 530 379 418 487 310 c 1
 544 401 551 491 515 547 c 1
 537 585 565 616 592 639 c 1
 698 544 581 323 531 266 c 1
 600 199 647 141 693 86 c 1
 682 51 666 14 646 -20 c 1x80
 516 134 366 289 232 405 c 1
 185 353 149 252 170 145 c 8
 174 126 184 109 206 109 c 2
 267 109 l 1
 257 73 237 28 220 0 c 1
 53 0 l 1
 64 30 72 49 79 82 c 1
 78 170 80 239 99 296 c 8
 120 360 164 416 185 445 c 1x40
EndSplineSet
Validated: 33
Substitution2: "jaltWideLetters subtable" uniFB21
Comment: "%DiaToBase1+AD0A-375+AAoA%DiaToBase2+AD0A-390+AAoA%DiaToBase3+AD0A-370+AAoA%DiaToBaseU+AD0A-370+AAoA%DiaToBaseO+AD0A--10+AAoA%RafeToBase+AD0A-350+AAoA%DiaToBase4+AD0A-370+AAoA" 
EndChar

StartChar: afii57665
Encoding: 1489 1489 115
Width: 627
VWidth: 1000
Flags: W
HStem: 0 109<92.7958 432 515 538.094> 491 109<168.778 419.312>
VStem: 432 83<109 483.218>
AnchorPoint: "CtxAnchors_D3Narrow_M" 300 0 basechar 0
AnchorPoint: "CtxAnchors_D1_M" 300 0 basechar 0
AnchorPoint: "CtxAnchors_D2_M" 295 0 basechar 0
AnchorPoint: "CtxAnchors_D2Narrow_M" 295 0 basechar 0
AnchorPoint: "CtxAnchors_M_D2" 295 0 basechar 0
AnchorPoint: "CtxAnchors_M_D1" 300 0 basechar 0
AnchorPoint: "CtxAnchors_M_D3Narrow" 300 0 basechar 0
AnchorPoint: "CtxAnchors_M_D2Narrow" 295 0 basechar 0
AnchorPoint: "DiaToBaseD" 265 0 basechar 0
AnchorPoint: "DiaToBaseU" 295 0 basechar 0
AnchorPoint: "DiaToBase4" 300 0 basechar 0
AnchorPoint: "DiaToBase3" 295 0 basechar 0
AnchorPoint: "DiaToBase2" 300 0 basechar 0
AnchorPoint: "DiaToBase1" 300 0 basechar 0
AnchorPoint: "RafeToBase" 320 0 basechar 0
AnchorPoint: "DiaToBaseO" 35 0 basechar 0
LayerCount: 2
Back
SplineSet
169.499 653.5 m 1
 172.499 631 173.5 600 198 600 c 2
 374 600 l 2
 468.5 600 510.804 533.998 511 466.25 c 2
 512 121 l 25
 610 121 l 1
 593 80 566 38 529 0 c 1
 32.5 0 l 1
 54 48.5 85 93 112 121 c 1
 414.5 121 l 25
 406 422.5 l 2
 405.232 460.475 380.5 479 351.5 479 c 2
 44 479 l 1
 72.5 547 110.999 594.5 169.499 653.5 c 1
EndSplineSet
Fore
SplineSet
515 109 m 25
 607 109 l 1
 590 72 565 36 532 0 c 1
 30 0 l 1
 52 42 72 74 99 109 c 1
 432 109 l 25
 425 440 l 2
 424 474 408 491 376 491 c 2
 47 491 l 1
 78 548 116 600 165 654 c 1
 167 633 169 600 191 600 c 2
 360 600 l 2
 416 600 453 587 478 561 c 0
 503 536 514 503 514 443 c 2
 515 109 l 25
EndSplineSet
Validated: 1
Comment: "%DiaToBase1+AD0A-300+AAoA%DiaToBase2+AD0A-300+AAoA%DiaToBaseU+AD0A-295+AAoA%DiaToBaseO+AD0A-35+AAoA%DiaToBase3+AD0A-295+AAoA%RafeToBase+AD0A-320+AAoA%DiaToBase4+AD0A-300+AAoA" 
EndChar

StartChar: afii57666
Encoding: 1490 1490 116
Width: 424
VWidth: 1000
Flags: W
HStem: -17 122<71.4954 138.786>
VStem: 338 56<49.0168 89.655>
AnchorPoint: "CtxAnchors_Rafe" 240.78 0 basechar 0
AnchorPoint: "CtxAnchors_D3Narrow_M" 200 0 basechar 0
AnchorPoint: "CtxAnchors_D1_M" 210 0 basechar 0
AnchorPoint: "CtxAnchors_D2_M" 210 0 basechar 0
AnchorPoint: "CtxAnchors_D2Narrow_M" 210 0 basechar 0
AnchorPoint: "CtxAnchors_M_D2" 210 0 basechar 0
AnchorPoint: "CtxAnchors_M_D1" 210 0 basechar 0
AnchorPoint: "CtxAnchors_M_D3Narrow" 200 0 basechar 0
AnchorPoint: "CtxAnchors_M_D2Narrow" 210 0 basechar 0
AnchorPoint: "DiaToBaseD" 152.5 0 basechar 0
AnchorPoint: "DiaToBaseU" 200 0 basechar 0
AnchorPoint: "DiaToBase4" 200 0 basechar 0
AnchorPoint: "DiaToBase3" 210 0 basechar 0
AnchorPoint: "DiaToBase2" 210 0 basechar 0
AnchorPoint: "DiaToBase1" 210 0 basechar 0
AnchorPoint: "RafeToBase" 220 0 basechar 0
AnchorPoint: "DiaToBaseO" 20 0 basechar 0
LayerCount: 2
Back
SplineSet
116 639 m 1
 167 610 210.262 579.705 251 547 c 0
 286.5 518.5 309.5 488 320 431.5 c 0
 340.461 321.399 362 192 377 66 c 1
 364 26 345 -7 324 -35 c 1
 311 6 296.5 86 283.5 148 c 1
 241.5 77 144.5 -21 33.5 -17 c 1
 45 26.6667 59.3333 65 78 105 c 1
 137 120 248.5 172 259.5 234 c 1
 259.5 271 243.67 343.582 232 383 c 0
 209.5 459 149.5 487 49.5 542 c 1
 73.5 580 85 604 116 639 c 1
EndSplineSet
Fore
SplineSet
133 639 m 1
 184 610 227 580 268 547 c 0
 304 518 326 488 337 432 c 0
 357 321 379 192 394 66 c 1
 378 28 360 2 338 -25 c 1
 326 22 314 86 300 148 c 1
 258 77 142 -21 30 -17 c 1
 42 27 56 65 75 105 c 1
 175 116 254 170 278 220 c 1
 275 284 261 344 249 383 c 0
 226 459 166 487 66 542 c 1
 90 580 102 604 133 639 c 1
EndSplineSet
Validated: 33
Comment: "%DiaToBase1+AD0A-210+AAoA%DiaToBase2+AD0A-210+AAoA%DiaToBaseU+AD0A-200+AAoA%DiaToBaseO+AD0A-20+AAoA%DiaToBase3+AD0A-210+AAoA%RafeToBase+AD0A-220+AAoA%DiaToBase4+AD0A-200+AAoA" 
EndChar

StartChar: afii57667
Encoding: 1491 1491 117
Width: 636
VWidth: 1000
Flags: W
HStem: 491 109<169.703 394 482 547.407>
VStem: 402 80<49.1217 491>
AnchorPoint: "CtxAnchors_D3Narrow_M" 340 0 basechar 0
AnchorPoint: "CtxAnchors_D1_M" 400 0 basechar 0
AnchorPoint: "CtxAnchors_D2_M" 380 0 basechar 0
AnchorPoint: "CtxAnchors_D2Narrow_M" 380 0 basechar 0
AnchorPoint: "CtxAnchors_M_D2" 380 0 basechar 0
AnchorPoint: "CtxAnchors_M_D1" 400 0 basechar 0
AnchorPoint: "CtxAnchors_M_D3Narrow" 340 0 basechar 0
AnchorPoint: "CtxAnchors_M_D2Narrow" 380 0 basechar 0
AnchorPoint: "DiaToBaseD" 280 0 basechar 0
AnchorPoint: "DiaToBaseU" 380 0 basechar 0
AnchorPoint: "DiaToBase4" 340 0 basechar 0
AnchorPoint: "DiaToBase3" 380 0 basechar 0
AnchorPoint: "DiaToBase2" 400 0 basechar 0
AnchorPoint: "DiaToBase1" 430 0 basechar 0
AnchorPoint: "RafeToBase" 330 0 basechar 0
AnchorPoint: "DiaToBaseO" 30 0 basechar 0
LayerCount: 2
Back
SplineSet
34 491 m 1
 68 547 107 600 159 654 c 1
 162 633 164 600 188 600 c 2
 418 600 l 1
 435 620 455 640 474 654 c 5
 476 636 476 621 476 600 c 5
 590 600 l 1
 577 558 561 528 537 491 c 1
 476 491 l 1
 476 65 l 17
 456 28 434 1 396 -35 c 1
 388 491 l 1
 34 491 l 1
EndSplineSet
Fore
SplineSet
40 491 m 1
 74 547 113 600 165 654 c 1
 168 633 170 600 194 600 c 2
 424 600 l 1
 441 620 461 640 480 654 c 1
 482 636 482 621 482 600 c 1
 596 600 l 1
 583 558 567 528 543 491 c 1
 482 491 l 1
 482 60 l 17
 459 26 435 0 402 -25 c 1
 394 491 l 1
 40 491 l 1
EndSplineSet
Validated: 1
Substitution2: "jaltWideLetters subtable" uniFB22
Comment: "%DiaToBase1+AD0A-430+AAoA%DiaToBase2+AD0A-400+AAoA%DiaToBaseU+AD0A-380+AAoA%DiaToBaseO+AD0A-30+AAoA%DiaToBase3+AD0A-380+AAoA%RafeToBase+AD0A-330+AAoA%DiaToBase4+AD0A-340+AAoA" 
EndChar

StartChar: afii57668
Encoding: 1492 1492 118
Width: 676
VWidth: 1000
Flags: W
HStem: 491 109<161.429 501.257>
VStem: 86 86<55.6946 299.886> 533 83<51.151 459.164>
AnchorPoint: "CtxAnchors_D3Narrow_M" 340 0 basechar 0
AnchorPoint: "CtxAnchors_D1_M" 335 0 basechar 0
AnchorPoint: "CtxAnchors_D2_M" 340 0 basechar 0
AnchorPoint: "CtxAnchors_D2Narrow_M" 340 0 basechar 0
AnchorPoint: "CtxAnchors_M_D2" 340 0 basechar 0
AnchorPoint: "CtxAnchors_M_D1" 335 0 basechar 0
AnchorPoint: "CtxAnchors_M_D3Narrow" 340 0 basechar 0
AnchorPoint: "CtxAnchors_M_D2Narrow" 340 0 basechar 0
AnchorPoint: "DiaToBaseD" 352.5 -25 basechar 0
AnchorPoint: "DiaToBaseU" 330 0 basechar 0
AnchorPoint: "DiaToBase4" 340 0 basechar 0
AnchorPoint: "DiaToBase3" 340 0 basechar 0
AnchorPoint: "DiaToBase2" 335 0 basechar 0
AnchorPoint: "DiaToBase1" 345 0 basechar 0
AnchorPoint: "RafeToBase" 360 0 basechar 0
AnchorPoint: "DiaToBaseO" 20 0 basechar 0
LayerCount: 2
Back
SplineSet
206 412 m 1
 208 261 209 215 203 70 c 1
 181 30 157 0 114 -36 c 1
 109 25 112 204 113 288 c 1
 133 334 168 380 206 412 c 1
532 380 m 2
 530.421 452.966 477 479 443 479 c 2
 34 479 l 1
 62.5 547 100.999 594.5 159.499 653.5 c 1
 162.499 631 163.5 600 188 600 c 2
 471 600 l 2
 558 600 630.488 533.701 633 466 c 2
 633 61 l 1
 608 19 584 -6 541 -36 c 1
 532 104 532 380 532 380 c 2
EndSplineSet
Fore
SplineSet
175 399 m 1
 177 263 178 193 172 62 c 1
 145 28 121 0 86 -25 c 1
 82 30 84 211 85 287 c 1
 109 326 147 368 175 399 c 1
616 62 m 5
 591 28 567 3 533 -25 c 5
 525 101 525 402 525 402 c 6
 524 468 476 491 445 491 c 6
 40 491 l 1
 73 550 110 600 157 654 c 1
 160 632 162 600 186 600 c 2
 454 600 l 6
 541 600 616 534 616 466 c 6
 616 62 l 5
EndSplineSet
Validated: 33
Substitution2: "jaltWideLetters subtable" uniFB23
Comment: "%DiaToBase1+AD0A-345+AAoA%DiaToBase2+AD0A-335+AAoA%DiaToBase3+AD0A-340+AAoA%DiaToBaseU+AD0A-330+AAoA%DiaToBaseO+AD0A-20+AAoA%RafeToBase+AD0A-360+AAoA%DiaToBase4+AD0A-340+AAoA" 
EndChar

StartChar: afii57669
Encoding: 1493 1493 119
Width: 341
VWidth: 1000
Flags: W
VStem: 195 86<48.443 448.947>
AnchorPoint: "CtxAnchors_Rafe" 205.78 0 basechar 0
AnchorPoint: "CtxAnchors_D3Narrow_M" 175 0 basechar 0
AnchorPoint: "CtxAnchors_D1_M" 200 0 basechar 0
AnchorPoint: "CtxAnchors_D2_M" 180 0 basechar 0
AnchorPoint: "CtxAnchors_D2Narrow_M" 180 0 basechar 0
AnchorPoint: "CtxAnchors_M_D2" 180 0 basechar 0
AnchorPoint: "CtxAnchors_M_D1" 200 0 basechar 0
AnchorPoint: "CtxAnchors_M_D3Narrow" 175 0 basechar 0
AnchorPoint: "CtxAnchors_M_D2Narrow" 180 0 basechar 0
AnchorPoint: "DiaToBaseD" 91.1758 0 basechar 0
AnchorPoint: "DiaToBaseU" 180 0 basechar 0
AnchorPoint: "DiaToBase4" 175 0 basechar 0
AnchorPoint: "DiaToBase3" 180 0 basechar 0
AnchorPoint: "DiaToBase2" 200 0 basechar 0
AnchorPoint: "DiaToBase1" 225 0 basechar 0
AnchorPoint: "RafeToBase" 170 0 basechar 0
AnchorPoint: "DiaToBaseO" -15 0 basechar 0
LayerCount: 2
Back
SplineSet
113 639 m 1
 159 609 188 586 234 550 c 16
 277 515 284 476 284 441 c 0
 284 317 283 196 282 46 c 1
 257 16 233 -8 198 -35 c 1
 194 45 195 215 194 339 c 0
 193 418 187 438 145 468 c 8
 104 496 76 510 39 536 c 1
 62 575 85 607 113 639 c 1
EndSplineSet
Fore
SplineSet
114 639 m 5
 160 609 192 584 231 553 c 4
 274 518 281 479 281 444 c 4
 281 320 280 206 279 56 c 5
 254 23 234 0 199 -25 c 5
 195 55 196 215 195 339 c 4
 194 418 188 438 146 468 c 12
 106 497 77 510 40 536 c 5
 63 575 86 607 114 639 c 5
EndSplineSet
Validated: 1
Comment: "%DiaToBase1+AD0A-225+AAoA%DiaToBase2+AD0A-200+AAoA%DiaToBaseU+AD0A-180+AAoA%DiaToBaseO+AD0A--15+AAoA%DiaToBase3+AD0A-180+AAoA%RafeToBase+AD0A-170+AAoA%DiaToBase4+AD0A-175+AAoA" 
EndChar

StartChar: afii57670
Encoding: 1494 1494 120
Width: 390
VWidth: 1000
Flags: W
VStem: 89 68<271.578 431.363>
AnchorPoint: "CtxAnchors_Rafe" 220.78 0 basechar 0
AnchorPoint: "CtxAnchors_D3Narrow_M" 170 0 basechar 0
AnchorPoint: "CtxAnchors_D1_M" 185 0 basechar 0
AnchorPoint: "CtxAnchors_D2_M" 185 0 basechar 0
AnchorPoint: "CtxAnchors_D2Narrow_M" 185 0 basechar 0
AnchorPoint: "CtxAnchors_M_D2" 185 0 basechar 0
AnchorPoint: "CtxAnchors_M_D1" 185 0 basechar 0
AnchorPoint: "CtxAnchors_M_D3Narrow" 170 0 basechar 0
AnchorPoint: "CtxAnchors_M_D2Narrow" 185 0 basechar 0
AnchorPoint: "DiaToBaseD" 61.1758 0 basechar 0
AnchorPoint: "DiaToBaseU" 165 0 basechar 0
AnchorPoint: "DiaToBase4" 170 0 basechar 0
AnchorPoint: "DiaToBase3" 185 0 basechar 0
AnchorPoint: "DiaToBase2" 185 0 basechar 0
AnchorPoint: "DiaToBase1" 190 0 basechar 0
AnchorPoint: "RafeToBase" 190 0 basechar 0
LayerCount: 2
Back
SplineSet
168 439 m 1
 150 421 137 404 136 377 c 16
 136 315 186 214 236 87 c 1
 221 40 204 -1 186 -36 c 1
 105 154 65 263 68 329 c 0
 71 390 92 442 116 479 c 1
 19 553 l 1
 42 585 67 612 96 639 c 1
 174 582 273 507 329 459 c 1
 313 425 292 395 270 370 c 1
 236 393 199 419 168 439 c 1
EndSplineSet
Fore
SplineSet
189 439 m 1
 171 421 157 404 157 377 c 16
 157 315 207 214 257 87 c 1
 244 45 226 10 202 -25 c 1
 124 158 86 263 89 329 c 0
 92 390 113 442 137 479 c 1
 40 553 l 1
 63 585 88 612 117 639 c 1
 195 582 294 507 350 459 c 1
 334 425 313 395 291 370 c 1
 257 393 220 419 189 439 c 1
EndSplineSet
Validated: 33
Comment: "%DiaToBase1+AD0A-190+AAoA%DiaToBase2+AD0A-185+AAoA%DiaToBaseU+AD0A-165+AAoA%DiaToBase3+AD0A-185+AAoA%RafeToBase+AD0A-190+AAoA%DiaToBase4+AD0A-170+AAoA" 
EndChar

StartChar: afii57671
Encoding: 1495 1495 121
Width: 687
VWidth: 1000
Flags: W
HStem: 491 109<173.14 441.881>
VStem: 76 84<45.9495 256.625> 550 74<43.1133 245.248>
AnchorPoint: "CtxAnchors_D3Narrow_M" 340 0 basechar 0
AnchorPoint: "CtxAnchors_D1_M" 340 0 basechar 0
AnchorPoint: "CtxAnchors_D2_M" 340 0 basechar 0
AnchorPoint: "CtxAnchors_D2Narrow_M" 340 0 basechar 0
AnchorPoint: "CtxAnchors_M_D2" 340 0 basechar 0
AnchorPoint: "CtxAnchors_M_D1" 340 0 basechar 0
AnchorPoint: "CtxAnchors_M_D3Narrow" 340 0 basechar 0
AnchorPoint: "CtxAnchors_M_D2Narrow" 340 0 basechar 0
AnchorPoint: "DiaToBaseD" 346 0 basechar 0
AnchorPoint: "DiaToBaseU" 335 0 basechar 0
AnchorPoint: "DiaToBase4" 340 0 basechar 0
AnchorPoint: "DiaToBase3" 340 0 basechar 0
AnchorPoint: "DiaToBase2" 340 0 basechar 0
AnchorPoint: "DiaToBase1" 345 0 basechar 0
AnchorPoint: "RafeToBase" 350 0 basechar 0
AnchorPoint: "DiaToBaseO" 25 0 basechar 0
LayerCount: 2
Back
SplineSet
151 654 m 1
 154 631 155 600 180 600 c 2
 180 600 280 600 345 600 c 16
 510 600 589 488 603 380 c 0
 616 277 617 179 611 50 c 1
 594 10 576 -12 537 -35 c 1
 536 85 532 182 523 270 c 0
 514 361 498 453 397 478 c 0
 359 487 257 491 160 491 c 1
 160.983 370.133 161 133.39 146.767 55 c 0
 138.567 9.83963 95.3991 -15.6637 62 -35 c 1
 80 154 88 359 47 533 c 1
 73 588 106 618 151 654 c 1
EndSplineSet
Fore
SplineSet
164 654 m 5
 167 631 168 600 193 600 c 6
 193 600 294 600 358 600 c 20
 523 600 602 488 616 380 c 0
 629 277 630 184 624 55 c 1
 604 22 583 0 550 -25 c 1
 549 95 545 182 536 270 c 0
 527 361 511 453 410 478 c 4
 372 487 270 491 173 491 c 5
 174 370 174 133 160 55 c 5
 134 22 108 -2 76 -25 c 5
 92 156 101 359 60 533 c 5
 86 580 120 617 164 654 c 5
EndSplineSet
Validated: 33
Comment: "%DiaToBase1+AD0A-345+AAoA%DiaToBase2+AD0A-340+AAoA%DiaToBase3+AD0A-340+AAoA%DiaToBaseU+AD0A-335+AAoA%DiaToBaseO+AD0A-25+AAoA%RafeToBase+AD0A-350+AAoA%DiaToBase4+AD0A-340+AAoA" 
EndChar

StartChar: afii57672
Encoding: 1496 1496 122
Width: 717
VWidth: 1000
Flags: W
VStem: 596 81<238.051 440.451>
AnchorPoint: "CtxAnchors_D3Narrow_M" 360 0 basechar 0
AnchorPoint: "CtxAnchors_D1_M" 365 0 basechar 0
AnchorPoint: "CtxAnchors_D2_M" 380 0 basechar 0
AnchorPoint: "CtxAnchors_D2Narrow_M" 380 0 basechar 0
AnchorPoint: "CtxAnchors_M_D2" 380 0 basechar 0
AnchorPoint: "CtxAnchors_M_D1" 365 0 basechar 0
AnchorPoint: "CtxAnchors_M_D3Narrow" 360 0 basechar 0
AnchorPoint: "CtxAnchors_M_D2Narrow" 380 0 basechar 0
AnchorPoint: "DiaToBaseD" 400 0 basechar 0
AnchorPoint: "DiaToBaseU" 345 0 basechar 0
AnchorPoint: "DiaToBase4" 360 0 basechar 0
AnchorPoint: "DiaToBase3" 380 0 basechar 0
AnchorPoint: "DiaToBase2" 365 0 basechar 0
AnchorPoint: "DiaToBase1" 360 0 basechar 0
AnchorPoint: "RafeToBase" 390 0 basechar 0
LayerCount: 2
Back
SplineSet
111 639 m 1
 189 439 218 241 248 128 c 0
 255.148 101.076 267.964 89 323 89 c 0
 518 89 600 188 600 341 c 0
 600 397.014 579 449 543 476 c 0
 461.88 536.84 358 499 299 453 c 1
 310 509 324 547 347 591 c 1
 384 616 413 623 447 623 c 0
 513 623 566.75 608.194 616 563 c 0
 659.236 523.324 680.619 469.23 680.619 395 c 0
 680.619 315 663 231 615 160 c 0
 565.758 87.163 512 36 431 5 c 4
 374.267 -16.7129 217 -31 187 34 c 0
 157.38 98.1768 144 180 116 282 c 0
 88.765 381.213 69 446 29 516 c 1
 50 562 74 596 111 639 c 1
EndSplineSet
Fore
SplineSet
122 639 m 5
 200 439 222 241 252 128 c 4
 259 101 272 89 327 89 c 4
 522 89 596 188 596 341 c 4
 596 397 575 449 539 476 c 4
 458 537 354 499 295 453 c 5
 306 509 320 547 343 591 c 5
 380 616 409 623 443 623 c 4
 509 623 563 608 612 563 c 4
 655 523 677 469 677 395 c 4
 677 315 656 227 615 160 c 4
 571 88 516 36 435 5 c 4
 378 -17 221 -31 191 34 c 4
 161 98 149 179 123 282 c 4
 98 381 80 446 40 516 c 5
 61 562 85 596 122 639 c 5
EndSplineSet
Validated: 33
Comment: "%DiaToBase1+AD0A-360+AAoA%DiaToBase2+AD0A-365+AAoA%DiaToBaseU+AD0A-345+AAoA%DiaToBase3+AD0A-380+AAoA%RafeToBase+AD0A-390+AAoA%DiaToBase4+AD0A-360+AAoA" 
EndChar

StartChar: afii57673
Encoding: 1497 1497 123
Width: 329
VWidth: 1000
Flags: W
AnchorPoint: "CtxAnchors_Rafe" 220.78 0 basechar 0
AnchorPoint: "CtxAnchors_D3Narrow_M" 155 0 basechar 0
AnchorPoint: "CtxAnchors_D1_M" 150 0 basechar 0
AnchorPoint: "CtxAnchors_D2_M" 155 0 basechar 0
AnchorPoint: "CtxAnchors_D2Narrow_M" 155 0 basechar 0
AnchorPoint: "CtxAnchors_M_D2" 155 0 basechar 0
AnchorPoint: "CtxAnchors_M_D1" 150 0 basechar 0
AnchorPoint: "CtxAnchors_M_D3Narrow" 155 0 basechar 0
AnchorPoint: "CtxAnchors_M_D2Narrow" 155 0 basechar 0
AnchorPoint: "DiaToBaseD" 60 75 basechar 0
AnchorPoint: "DiaToBaseU" 130 0 basechar 0
AnchorPoint: "DiaToBase4" 155 0 basechar 0
AnchorPoint: "DiaToBase3" 155 0 basechar 0
AnchorPoint: "DiaToBase2" 150 0 basechar 0
AnchorPoint: "DiaToBase1" 155 0 basechar 0
AnchorPoint: "RafeToBase" 180 0 basechar 0
LayerCount: 2
Back
SplineSet
111 653.502 m 5
 154 620 194.233 585.296 246 540 c 20
 286 505 299 446 277 393 c 4
 250.759 329.783 220 285 182 239 c 5
 152 210 117 198 73 191 c 5
 120 274 146 320 170 378 c 12
 183.16 409.805 169 437 140 461 c 12
 97.415 496.243 62 519 23 541 c 5
 43 586 72 623 111 653.502 c 5
EndSplineSet
Fore
SplineSet
119 639 m 1
 158 609 201 572 252 527 c 16
 288 496 299 442 280 395 c 0
 256 338 217 274 183 233 c 1
 153 213 123 200 85 190 c 1
 127 264 162 329 183 381 c 8
 195 410 182 434 156 456 c 8
 114 491 75 518 40 538 c 1
 62 576 89 609 119 639 c 1
EndSplineSet
Validated: 33
Comment: "%DiaToBase1+AD0A-155+AAoA%DiaToBase2+AD0A-150+AAoA%DiaToBaseU+AD0A-130+AAoA%DiaToBase3+AD0A-155+AAoA%RafeToBase+AD0A-180+AAoA%DiaToBase4+AD0A-155+AAoA" 
EndChar

StartChar: afii57674
Encoding: 1498 1498 124
Width: 599
VWidth: 1000
Flags: W
HStem: 491 109<169.429 376 455 508.3>
VStem: 369 84<-145.649 491>
AnchorPoint: "DiaToBaseD" 267.5 0 basechar 0
LayerCount: 2
Back
SplineSet
34 479 m 5x90
 62.5 547 100.999 594.5 159.499 653.5 c 1
 162.499 631 163.5 600 188 600 c 6
 553 600 l 5
 544 558 528.423 519.47 497 479 c 5
 454 479 l 5
 453 355 452 94 452 -126 c 1
 432 -174 397 -212 358 -236 c 1
 358 62 362 273 366 479 c 5
 34 479 l 5x90
EndSplineSet
Fore
SplineSet
40 491 m 1
 76 550 112 596 165 654 c 1
 168 631 170 600 194 600 c 2
 559 600 l 1
 544 560 526 524 503 491 c 1
 455 491 l 1
 454 380 453 83 453 -137 c 1
 431 -174 400 -210 369 -236 c 1
 369 62 372 306 376 491 c 1
 40 491 l 1
EndSplineSet
Validated: 1
EndChar

StartChar: afii57675
Encoding: 1499 1499 125
Width: 595
VWidth: 1000
Flags: W
HStem: 0 109<98.1628 416.626> 491 109<179.15 402.634>
AnchorPoint: "CtxAnchors_D3Narrow_M" 280 0 basechar 0
AnchorPoint: "CtxAnchors_D1_M" 280 0 basechar 0
AnchorPoint: "CtxAnchors_D2_M" 290 0 basechar 0
AnchorPoint: "CtxAnchors_D2Narrow_M" 290 0 basechar 0
AnchorPoint: "CtxAnchors_M_D2" 290 0 basechar 0
AnchorPoint: "CtxAnchors_M_D1" 280 0 basechar 0
AnchorPoint: "CtxAnchors_M_D3Narrow" 280 0 basechar 0
AnchorPoint: "CtxAnchors_M_D2Narrow" 290 0 basechar 0
AnchorPoint: "DiaToBaseD" 280 0 basechar 0
AnchorPoint: "DiaToBaseU" 255 0 basechar 0
AnchorPoint: "DiaToBase4" 280 0 basechar 0
AnchorPoint: "DiaToBase3" 290 0 basechar 0
AnchorPoint: "DiaToBase2" 280 0 basechar 0
AnchorPoint: "DiaToBase1" 290 0 basechar 0
AnchorPoint: "RafeToBase" 300 0 basechar 0
AnchorPoint: "DiaToBaseO" 45 0 basechar 0
LayerCount: 2
Back
SplineSet
301 0 m 2
 35 0 l 1
 50 38 74 77 99 109 c 1
 355 109 l 2
 389 109 415 126 435 155 c 0
 461 192 478 259 471 320 c 0
 464 381 430 439 393 463 c 0
 364 482 342 491 294 491 c 2
 50 491 l 1
 84 550 120 598 170 654 c 1
 173 631 174 600 199 600 c 2
 309 600 l 2
 434 600 509 530 535 444 c 0
 565 344 550 228 487 130 c 0
 441 59 393 0 301 0 c 2
EndSplineSet
Fore
SplineSet
322 0 m 2
 40 0 l 1
 55 38 79 77 104 109 c 1
 366 109 l 2
 409 109 435 128 455 163 c 0
 478 203 488 259 481 320 c 0
 472 394 441 440 404 464 c 0
 375 483 337 491 280 491 c 2
 55 491 l 1
 89 550 125 598 175 654 c 1
 178 631 179 600 204 600 c 2
 314 600 l 2
 439 600 514 530 540 444 c 0
 570 344 554 214 508 130 c 0
 467 56 414 0 322 0 c 2
EndSplineSet
Validated: 33
Substitution2: "jaltWideLetters subtable" uniFB24
Comment: "%DiaToBase1+AD0A-290+AAoA%DiaToBase2+AD0A-280+AAoA%DiaToBaseU+AD0A-255+AAoA%DiaToBaseO+AD0A-45+AAoA%DiaToBase3+AD0A-290+AAoA%RafeToBase+AD0A-300+AAoA%DiaToBase4+AD0A-280+AAoA" 
EndChar

StartChar: afii57676
Encoding: 1500 1500 126
Width: 548
VWidth: 1000
Flags: W
HStem: -18 125<115.018 171.236> 491 109<120.479 403.473>
AnchorPoint: "CtxAnchors_D3Narrow_M" 240 0 basechar 0
AnchorPoint: "CtxAnchors_D1_M" 240 0 basechar 0
AnchorPoint: "CtxAnchors_D2_M" 250 0 basechar 0
AnchorPoint: "CtxAnchors_D2Narrow_M" 250 0 basechar 0
AnchorPoint: "CtxAnchors_M_D2" 250 0 basechar 0
AnchorPoint: "CtxAnchors_M_D1" 240 0 basechar 0
AnchorPoint: "CtxAnchors_M_D3Narrow" 240 0 basechar 0
AnchorPoint: "CtxAnchors_M_D2Narrow" 250 0 basechar 0
AnchorPoint: "CtxAnchors_Yerushalam" -100.866 0 basechar 0
AnchorPoint: "DiaToBaseD" 242.5 25 basechar 0
AnchorPoint: "DiaToBaseU" 220 0 basechar 0
AnchorPoint: "DiaToBase4" 240 0 basechar 0
AnchorPoint: "DiaToBase3" 250 0 basechar 0
AnchorPoint: "DiaToBase2" 240 0 basechar 0
AnchorPoint: "DiaToBase1" 230 0 basechar 0
AnchorPoint: "RafeToBase" 300 0 basechar 0
AnchorPoint: "DiaToBaseO" -85 0 basechar 0
LayerCount: 2
Back
SplineSet
86 835 m 1
 103.101 822 102.2 781 103.101 753 c 0
 104.711 702.872 100.804 677.8 104.9 630 c 16
 106.7 609 117.5 600 131.9 600 c 2
 386 600 l 2
 485 600 498 520 493 446 c 8
 483.168 300.488 386.118 156.811 333 108 c 0
 259 40 122 -16 37 -18 c 1
 58 29 78 68.5 105.13 107.379 c 1
 165.31 123.698 293.08 156.339 340 212.438 c 0
 389.686 271.846 400.627 318.831 406.3 393.999 c 16
 410.38 448.059 383.859 491 345.1 491 c 2
 84 491 l 2
 60.6006 491 43.5 500 41.7002 529.7 c 8
 38.9902 574.427 34.5 591.9 29.1006 643.9 c 0
 25.3848 679.678 19.4004 710 5 728 c 1
 30 771.5 54.5 804.5 86 835 c 1
EndSplineSet
Fore
SplineSet
101 835 m 5
 118 822 117 781 118 753 c 4
 120 703 115 678 120 630 c 20
 122 609 133 600 147 600 c 6
 401 600 l 2
 500 600 513 520 508 446 c 8
 498 300 430 189 344 108 c 0
 270 39 137 -16 52 -18 c 1
 73 29 93 68 120 107 c 1
 180 124 306 160 356 213 c 0
 411 271 419 320 421 394 c 0
 422 448 399 491 360 491 c 2
 99 491 l 6
 76 491 59 500 57 530 c 12
 54 575 49 592 44 644 c 4
 40 680 34 710 20 728 c 5
 45 772 69 804 101 835 c 5
EndSplineSet
Validated: 33
Substitution2: "jaltWideLetters subtable" uniFB25
Comment: "%DiaToBase1+AD0A-230+AAoA%DiaToBase2+AD0A-240+AAoA%DiaToBaseU+AD0A-220+AAoA%DiaToBaseO+AD0A--85+AAoA%DiaToBase3+AD0A-250+AAoA%RafeToBase+AD0A-300+AAoA%DiaToBase4+AD0A-240+AAoA" 
EndChar

StartChar: afii57677
Encoding: 1501 1501 127
Width: 711
VWidth: 1000
Flags: W
HStem: 0 109<183.177 573.781> 491 109<175.429 541.01>
VStem: 97 73<123.853 489.309>
AnchorPoint: "DiaToBaseD" 373 0 basechar 0
LayerCount: 2
Back
SplineSet
176 479 m 5xe0
 170 390 171 310.658 171 203 c 16
 171 164 182 121 254 121 c 2
 543 121 l 2
 589 121 586.795 151.086 588 180 c 16
 591 252 584.326 291.873 580 360 c 0
 576 423 555 479 491 479 c 6
 176 479 l 5xe0
34 511 m 1
 63 569 104 614 165.499 653.5 c 1
 168.499 631 169.5 600 194 600 c 2
 501 600 l 2
 607 600 661 534 671 460 c 0
 687.212 340.029 681.1 201.452 667 138 c 0
 655 84 599 0 540 0 c 10
 197 0 l 18
 127 0 93 79 90 138 c 0
 85.9854 216.955 93.79 308.812 92 418 c 16
 91 479 74 483 34 511 c 1
EndSplineSet
Fore
SplineSet
174 491 m 1
 169 402 170 308 170 191 c 16
 170 152 179 109 244 109 c 2
 538 109 l 6
 579 109 578 140 579 168 c 20
 581 240 575 292 571 360 c 4
 568 423 549 491 491 491 c 6
 174 491 l 1
40 511 m 1
 79 565 119 608 171 654 c 1
 174 631 176 600 200 600 c 2
 500 600 l 6
 596 600 644 534 653 460 c 4
 668 340 662 201 650 138 c 4
 639 84 588 0 535 0 c 14
 206 0 l 18
 132 0 99 79 97 138 c 0
 93 217 98 309 98 418 c 16
 98 479 80 483 40 511 c 1
EndSplineSet
Validated: 33
Substitution2: "jaltWideLetters subtable" uniFB26
EndChar

StartChar: afii57678
Encoding: 1502 1502 128
Width: 703
VWidth: 1000
Flags: W
HStem: 0 109<296.726 583> 505 113<351.29 498.552>
VStem: 583 65<112.792 372.507>
AnchorPoint: "CtxAnchors_D3Narrow_M" 350 0 basechar 0
AnchorPoint: "CtxAnchors_D1_M" 350 0 basechar 0
AnchorPoint: "CtxAnchors_D2_M" 350 0 basechar 0
AnchorPoint: "CtxAnchors_D2Narrow_M" 350 0 basechar 0
AnchorPoint: "CtxAnchors_M_D2" 350 0 basechar 0
AnchorPoint: "CtxAnchors_M_D1" 350 0 basechar 0
AnchorPoint: "CtxAnchors_M_D3Narrow" 350 0 basechar 0
AnchorPoint: "CtxAnchors_M_D2Narrow" 350 0 basechar 0
AnchorPoint: "DiaToBaseD" 407.5 -7.5 basechar 0
AnchorPoint: "DiaToBaseU" 340 0 basechar 0
AnchorPoint: "DiaToBase4" 350 0 basechar 0
AnchorPoint: "DiaToBase3" 350 0 basechar 0
AnchorPoint: "DiaToBase2" 350 0 basechar 0
AnchorPoint: "DiaToBase1" 360 0 basechar 0
AnchorPoint: "RafeToBase" 380 0 basechar 0
LayerCount: 2
Back
SplineSet
111 653.501 m 1
 189 561 197 496 219 422 c 1
 297 549 329.003 617.255 437 618 c 0
 582 619 637 461 648 362 c 8
 658.382 268.564 663 210 643 121 c 1
 629 77 609 38 577 0 c 1
 229 0 l 1
 246 45 276 86 315 121 c 1
 583 121 l 1
 581 216 568 314 539 386 c 8
 514.947 445.718 489.927 485.448 410 489 c 0
 320 493 263 401 245 354 c 0
 204.352 247.864 195 196 161 60 c 1
 129.943 11.5732 100 -14 49 -36 c 1
 95 105 108.347 148.265 127 270 c 16
 146 394 92 453 31 528 c 1
 53 586 71 613 111 653.501 c 1
EndSplineSet
Fore
SplineSet
112 639 m 1
 182 556 193 482 213 416 c 1
 283 530 329 617 437 618 c 0
 582 619 637 461 648 362 c 8
 659 264 651 190 640 109 c 1
 623 71 604 38 577 0 c 1
 229 0 l 1
 252 42 276 78 303 109 c 1
 583 109 l 1
 586 214 582 311 555 387 c 8
 531 455 504 505 414 505 c 0
 311 505 250 392 234 349 c 0
 198 254 181 174 151 51 c 1
 118 19 93 0 53 -25 c 1
 93 102 110 155 128 274 c 16
 145 385 95 459 40 526 c 1
 60 568 84 606 112 639 c 1
EndSplineSet
Validated: 33
Comment: "%DiaToBase1+AD0A-360+AAoA%DiaToBase2+AD0A-350+AAoA%DiaToBaseU+AD0A-340+AAoA%DiaToBase3+AD0A-350+AAoA%RafeToBase+AD0A-380+AAoA%DiaToBase4+AD0A-350+AAoA" 
EndChar

StartChar: afii57679
Encoding: 1503 1503 129
Width: 396
VWidth: 1000
Flags: W
VStem: 251 81<40.5 405.985> 263 73<-181.613 14.8152>
AnchorPoint: "DiaToBaseD" 146 0 basechar 0
LayerCount: 2
Back
SplineSet
107 639 m 1
 158 605 212 569 264 527 c 0
 318 485 329 451 330 370 c 0
 332 193 331 30 334 -155 c 1
 316 -201 293 -229 256 -256 c 1
 252 -33 249 120 244 319 c 0
 242 390 228 402 191 429 c 8
 131 473 84 502 33 537 c 1
 49 580 73 610 107 639 c 1
EndSplineSet
Fore
SplineSet
114 639 m 5x80
 165 605 219 569 271 527 c 4
 315 491 330 448 332 378 c 4x80
 336 201 336 18 336 -166 c 1
 317 -205 296 -229 263 -256 c 1x40
 259 -33 256 120 251 319 c 4
 249 390 235 402 198 429 c 12
 138 473 91 502 40 537 c 5
 56 580 80 610 114 639 c 5x80
EndSplineSet
Validated: 1
EndChar

StartChar: afii57680
Encoding: 1504 1504 130
Width: 409
VWidth: 1000
Flags: W
HStem: 0 109<83.6817 270>
VStem: 269 80<109.885 411.855>
AnchorPoint: "CtxAnchors_Rafe" 240.78 0 basechar 0
AnchorPoint: "CtxAnchors_D3Narrow_M" 180 0 basechar 0
AnchorPoint: "CtxAnchors_D1_M" 180 0 basechar 0
AnchorPoint: "CtxAnchors_D2_M" 190 0 basechar 0
AnchorPoint: "CtxAnchors_D2Narrow_M" 190 0 basechar 0
AnchorPoint: "CtxAnchors_M_D2" 190 0 basechar 0
AnchorPoint: "CtxAnchors_M_D1" 180 0 basechar 0
AnchorPoint: "CtxAnchors_M_D3Narrow" 180 0 basechar 0
AnchorPoint: "CtxAnchors_M_D2Narrow" 190 0 basechar 0
AnchorPoint: "DiaToBaseD" 160 0 basechar 0
AnchorPoint: "DiaToBaseU" 180 0 basechar 0
AnchorPoint: "DiaToBase4" 180 0 basechar 0
AnchorPoint: "DiaToBase3" 190 0 basechar 0
AnchorPoint: "DiaToBase2" 180 0 basechar 0
AnchorPoint: "DiaToBase1" 185 0 basechar 0
AnchorPoint: "RafeToBase" 210 0 basechar 0
AnchorPoint: "DiaToBaseO" 20 0 basechar 0
LayerCount: 2
Back
SplineSet
126 653.501 m 1
 185 615 227.586 586.763 276 549 c 0
 326 510 338 464 338 402 c 0
 338 309 339 250 336 154 c 1
 319.677 88.3174 297 46 256 0 c 1
 16 0 l 1
 26 44 53 91 82 121 c 1
 250 121 l 1
 252 224 252.731 260.059 249 344 c 0
 247 389 225 419 191 447 c 8
 142.571 486.882 116 499 57 536 c 1
 66 582 91 625 126 653.501 c 1
EndSplineSet
Fore
SplineSet
139 639 m 1
 192 604 249 565 293 531 c 0
 338 496 349 455 349 399 c 0
 349 315 350 225 347 139 c 1
 332 79 312 41 275 0 c 1
 30 0 l 1
 47 41 66 74 89 109 c 1
 270 109 l 1
 271 202 272 271 269 347 c 0
 267 387 247 414 216 440 c 8
 166 481 130 500 77 533 c 1
 91 570 114 608 139 639 c 1
EndSplineSet
Validated: 33
Comment: "%DiaToBase1+AD0A-185+AAoA%DiaToBase2+AD0A-180+AAoA%DiaToBaseU+AD0A-180+AAoA%DiaToBaseO+AD0A-20+AAoA%DiaToBase3+AD0A-190+AAoA%RafeToBase+AD0A-210+AAoA%DiaToBase4+AD0A-180+AAoA" 
EndChar

StartChar: afii57681
Encoding: 1505 1505 131
Width: 730
VWidth: 1000
Flags: W
HStem: -10 21G<279.5 384.5> 491 109<190.446 579.877>
AnchorPoint: "CtxAnchors_D3Narrow_M" 390 0 basechar 0
AnchorPoint: "CtxAnchors_D1_M" 365 0 basechar 0
AnchorPoint: "CtxAnchors_D2_M" 385 0 basechar 0
AnchorPoint: "CtxAnchors_D2Narrow_M" 385 0 basechar 0
AnchorPoint: "CtxAnchors_M_D2" 385 0 basechar 0
AnchorPoint: "CtxAnchors_M_D1" 365 0 basechar 0
AnchorPoint: "CtxAnchors_M_D3Narrow" 390 0 basechar 0
AnchorPoint: "CtxAnchors_M_D2Narrow" 385 0 basechar 0
AnchorPoint: "DiaToBaseD" 402.5 12.5 basechar 0
AnchorPoint: "DiaToBaseU" 360 0 basechar 0
AnchorPoint: "DiaToBase4" 390 0 basechar 0
AnchorPoint: "DiaToBase3" 385 0 basechar 0
AnchorPoint: "DiaToBase2" 365 0 basechar 0
AnchorPoint: "DiaToBase1" 360 0 basechar 0
AnchorPoint: "RafeToBase" 390 0 basechar 0
AnchorPoint: "DiaToBaseO" 25 0 basechar 0
LayerCount: 2
Back
SplineSet
197 491 m 1
 197 491 235 312 258 198 c 16
 269 145 287 102 339 100 c 0
 379 100 437 121 483 161 c 24
 540 211 568 255 583 327 c 8
 596 393 601 491 528 491 c 2
 197 491 l 1
33 500 m 1
 74 561 115 610 163 654 c 1
 166 631 174 600 199 600 c 2
 565 600 l 2
 651 600 673 555 681 479 c 0
 696 338 633 231 586 163 c 0
 535 90 440 -10 315 -10 c 0
 230 -10 194 54 183 98 c 0
 154 212 135 308 111 395 c 0
 90 470 58 483 33 500 c 1
EndSplineSet
Fore
SplineSet
190 491 m 1
 190 491 228 312 251 198 c 16
 265 129 296 94 354 100 c 0
 501 116 566 186 591 316 c 8
 605 386 608 491 535 491 c 2
 190 491 l 1
40 500 m 1
 78 562 112 606 160 654 c 1
 163 631 171 600 196 600 c 2
 572 600 l 2
 658 600 680 555 688 479 c 0
 703 338 640 231 593 163 c 0
 542 90 447 -10 322 -10 c 0
 237 -10 201 54 190 98 c 0
 161 212 142 308 118 395 c 0
 97 470 65 483 40 500 c 1
EndSplineSet
Validated: 33
Comment: "%DiaToBase1+AD0A-360+AAoA%DiaToBase2+AD0A-365+AAoA%DiaToBaseU+AD0A-360+AAoA%DiaToBaseO+AD0A-25+AAoA%DiaToBase3+AD0A-385+AAoA%RafeToBase+AD0A-390+AAoA%DiaToBase4+AD0A-390+AAoA" 
EndChar

StartChar: afii57682
Encoding: 1506 1506 132
Width: 581
VWidth: 1000
Flags: W
AnchorPoint: "DiaToBaseD" 346 76 basechar 0
AnchorPoint: "RafeToBase" 320 0 basechar 0
LayerCount: 2
Back
SplineSet
117 639 m 1
 181 515 201 465 227 380 c 0
 248 307 272 206 294 126 c 1
 352 157 418 201 422 266 c 8
 430 374 401 492 384 540 c 1
 411 574 444 608 480 639 c 1
 527 512 531 349 488 238 c 0
 411 37 199 -71 6 -147 c 1
 22 -93 42 -41 64 6 c 1
 125 33 185 65 231 92 c 1
 173 276 122 385 32 544 c 1
 59 581 82 608 117 639 c 1
EndSplineSet
Fore
SplineSet
132 639 m 5
 196 515 216 465 242 380 c 4
 263 307 288 202 310 122 c 5
 397 173 452 201 456 274 c 12
 462 379 426 492 409 540 c 5
 436 574 469 608 505 639 c 5
 552 512 553 350 513 238 c 4
 451 63 320 0 27 -128 c 5
 43 -74 57 -41 79 6 c 5
 140 33 202 61 248 88 c 5
 190 272 137 385 47 544 c 5
 74 581 97 608 132 639 c 5
EndSplineSet
Validated: 33
Substitution2: "saltMiscSAlt subtable" uniFB20
Substitution2: "AltAyin subtable" uniFB20
Comment: "%RafeToBase+AD0A-320+AAoA" 
EndChar

StartChar: afii57683
Encoding: 1507 1507 133
Width: 559
VWidth: 1000
Flags: W
VStem: 413.845 86<25.4424 412.954> 427.845 72<-173.182 33.2513>
AnchorPoint: "DiaToBaseD" 317.5 0 basechar 0
LayerCount: 2
Back
SplineSet
170 203 m 1
 76 258 26 330 40 432 c 16
 52 516 158 612 211 639 c 1
 284 607 349 578 417 539 c 0
 474 506 500 468 500 372 c 0
 500 214 498 34 500 -157 c 1
 478 -188 455 -216 428 -238 c 1
 421 44 418 121 414 310 c 0
 412 384 410 396 378 426 c 0
 338 462 224 506 180 523 c 1
 123 468 101 408 171 344 c 0
 189 328 210 312 233 293 c 1
 212 258 193 230 170 203 c 1
EndSplineSet
Fore
SplineSet
169.845 203 m 1x80
 76.8447 263 29.8447 320 41.8447 401 c 0
 53.8447 485 136.845 577 204.845 639 c 1
 277.845 607 348.845 578 416.845 539 c 0
 473.845 506 499.845 468 499.845 372 c 0x80
 499.845 214 499.845 29 499.845 -162 c 1
 478.845 -193 456.845 -214 427.845 -238 c 1x40
 420.845 44 417.845 121 413.845 310 c 0
 411.845 384 409.845 396 377.845 426 c 0
 337.845 462 223.845 506 179.845 523 c 1
 122.845 468 100.845 408 170.845 344 c 0
 188.845 328 209.845 312 232.845 293 c 1
 211.845 258 192.845 230 169.845 203 c 1x80
EndSplineSet
Validated: 33
EndChar

StartChar: afii57684
Encoding: 1508 1508 134
Width: 598
VWidth: 1000
Flags: W
HStem: 0 109<99.6911 456.053>
VStem: 458 83<127.722 413.415>
AnchorPoint: "CtxAnchors_Rafe" 320.78 0 basechar 0
AnchorPoint: "CtxAnchors_D3Narrow_M" 290 0 basechar 0
AnchorPoint: "CtxAnchors_D1_M" 290 0 basechar 0
AnchorPoint: "CtxAnchors_D2_M" 300 0 basechar 0
AnchorPoint: "CtxAnchors_D2Narrow_M" 300 0 basechar 0
AnchorPoint: "CtxAnchors_M_D2" 300 0 basechar 0
AnchorPoint: "CtxAnchors_M_D1" 290 0 basechar 0
AnchorPoint: "CtxAnchors_M_D3Narrow" 290 0 basechar 0
AnchorPoint: "CtxAnchors_M_D2Narrow" 300 0 basechar 0
AnchorPoint: "DiaToBaseD" 352.5 0 basechar 0
AnchorPoint: "DiaToBaseU" 285 0 basechar 0
AnchorPoint: "DiaToBase4" 290 0 basechar 0
AnchorPoint: "DiaToBase3" 300 0 basechar 0
AnchorPoint: "DiaToBase2" 290 0 basechar 0
AnchorPoint: "DiaToBase1" 300 0 basechar 0
AnchorPoint: "RafeToBase" 300 0 basechar 0
AnchorPoint: "DiaToBaseO" 100 0 basechar 0
LayerCount: 2
Back
SplineSet
245 639 m 1
 313 606 369 583 443 538 c 16
 491 508 517 474 520 400 c 0
 525 308 521 224 513 123 c 1
 501 86 474 29 437 0 c 1
 9 0 l 1
 32 39 58 75 85 109 c 1
 401 109 l 1
 423 109 437 127 437 148 c 16
 438 208 439 289 432 352 c 0
 427 399 412 424 369 450 c 8
 311 483 255 508 211 519 c 1
 178 485 156 418 173 395 c 0
 189 374 218 356 254 336 c 1
 237 301 218 268 195 239 c 1
 149 257 93 289 79 355 c 0
 65 420 104 495 131 535 c 0
 164 582 207 612 245 639 c 1
EndSplineSet
Fore
SplineSet
231 639 m 1
 304 614 380 590 464 538 c 16
 512 508 538 474 541 400 c 0
 546 308 542 224 534 123 c 1
 522 86 495 29 458 0 c 1
 30 0 l 1
 53 39 79 75 106 109 c 1
 422 109 l 1
 444 109 458 127 458 148 c 16
 459 208 460 289 453 352 c 0
 448 399 433 424 390 450 c 8
 327 488 257 508 213 519 c 1
 180 485 168 431 182 397 c 0
 191 376 220 356 256 336 c 1
 239 301 220 268 197 239 c 1
 151 257 96 288 85 341 c 0
 71 406 111 481 138 521 c 0
 171 568 195 600 231 639 c 1
EndSplineSet
Validated: 33
Comment: "%DiaToBase1+AD0A-300+AAoA%DiaToBase2+AD0A-290+AAoA%DiaToBaseU+AD0A-285+AAoA%DiaToBaseO+AD0A-100+AAoA%DiaToBase3+AD0A-300+AAoA%RafeToBase+AD0A-300+AAoA%DiaToBase4+AD0A-290+AAoA" 
EndChar

StartChar: afii57685
Encoding: 1509 1509 135
Width: 585
VWidth: 1000
Flags: W
VStem: 400 67<-173.847 -38.6612> 420 106<388.644 547.981>
AnchorPoint: "DiaToBaseD" 332 218.7 basechar 0
LayerCount: 2
Back
SplineSet
331 315 m 1
 422 387 422 455 400.476 539 c 1
 435.888 578 467.512 608 506.225 639 c 1
 559.451 493 505 379 357.855 256 c 1
 403.912 147.495 444.389 -3.63294 447.195 -150 c 1
 429.396 -182 405.858 -211 380.496 -238 c 1
 366.92 -96 346.633 72.1553 257.754 245 c 16
 197.077 363 87.0137 488 20 545 c 1
 49.2373 582 77.9492 613 107.225 639 c 1
 181.662 564 275 433 331 315 c 1
EndSplineSet
Fore
SplineSet
351 315 m 1x80
 442 387 442 455 420 539 c 1
 456 578 488 608 526 639 c 1x40
 579 493 525 379 378 256 c 1
 424 147 465 -5 467 -162 c 1
 449 -191 430 -213 400 -238 c 1
 387 -96 367 72 278 245 c 16
 217 363 107 488 40 545 c 1
 69 582 98 613 127 639 c 1
 202 564 295 433 351 315 c 1x80
EndSplineSet
Validated: 33
EndChar

StartChar: afii57686
Encoding: 1510 1510 136
Width: 600
VWidth: 1000
Flags: W
HStem: 0 109<96.8749 474>
AnchorPoint: "CtxAnchors_D3Narrow_M" 290 0 basechar 0
AnchorPoint: "CtxAnchors_D1_M" 290 0 basechar 0
AnchorPoint: "CtxAnchors_D2_M" 300 0 basechar 0
AnchorPoint: "CtxAnchors_D2Narrow_M" 300 0 basechar 0
AnchorPoint: "CtxAnchors_M_D2" 300 0 basechar 0
AnchorPoint: "CtxAnchors_M_D1" 290 0 basechar 0
AnchorPoint: "CtxAnchors_M_D3Narrow" 290 0 basechar 0
AnchorPoint: "CtxAnchors_M_D2Narrow" 300 0 basechar 0
AnchorPoint: "DiaToBaseD" 222.5 -87.5 basechar 0
AnchorPoint: "DiaToBaseU" 295 0 basechar 0
AnchorPoint: "DiaToBase4" 290 0 basechar 0
AnchorPoint: "DiaToBase3" 300 0 basechar 0
AnchorPoint: "DiaToBase2" 290 0 basechar 0
AnchorPoint: "DiaToBase1" 300 0 basechar 0
AnchorPoint: "RafeToBase" 330 0 basechar 0
AnchorPoint: "DiaToBaseO" 10 0 basechar 0
LayerCount: 2
Back
SplineSet
140 639 m 1
 200 505 289 422 386 333 c 5
 447 420 425 491 404 522 c 1
 428 561 462 603 495 639 c 1
 582 502 532 425 430 292 c 1
 480 244 548 191 538 109 c 1
 518 71 489 32 459 0 c 1
 19 0 l 1
 38 37 66 78 92 109 c 1
 462.5 109 l 1
 467 121 464 135 454 147 c 0
 410.595 199.086 302 271 225 339 c 0
 174 383 100 449 54 530 c 1
 80 569 111 609 140 639 c 1
EndSplineSet
Fore
SplineSet
151 639 m 1
 211 505 302 419 400 330 c 1
 460 417 440 483 415 522 c 1
 439 561 473 603 506 639 c 1
 593 502 543 425 441 292 c 1
 491 244 559 191 549 109 c 1
 529 71 500 32 470 0 c 1
 30 0 l 1
 49 37 77 78 103 109 c 1
 474 109 l 1
 478 121 475 135 465 147 c 0
 422 199 313 271 236 339 c 0
 185 383 111 449 65 530 c 1
 91 569 122 609 151 639 c 1
EndSplineSet
Validated: 33
Comment: "%DiaToBase1+AD0A-300+AAoA%DiaToBase2+AD0A-290+AAoA%DiaToBaseU+AD0A-295+AAoA%DiaToBaseO+AD0A-10+AAoA%DiaToBase3+AD0A-300+AAoA%RafeToBase+AD0A-330+AAoA%DiaToBase4+AD0A-290+AAoA" 
EndChar

StartChar: afii57687
Encoding: 1511 1511 137
Width: 696
VWidth: 1000
Flags: W
HStem: -9 21G<261.5 298> 491 109<164.15 544.606>
VStem: 562 94<330.456 473.91>
AnchorPoint: "CtxAnchors_D3Narrow_M" 470 0 basechar 0
AnchorPoint: "CtxAnchors_D1_M" 380 0 basechar 0
AnchorPoint: "CtxAnchors_D2_M" 450 0 basechar 0
AnchorPoint: "CtxAnchors_D2Narrow_M" 450 0 basechar 0
AnchorPoint: "CtxAnchors_M_D2" 450 0 basechar 0
AnchorPoint: "CtxAnchors_M_D1" 380 0 basechar 0
AnchorPoint: "CtxAnchors_M_D3Narrow" 470 0 basechar 0
AnchorPoint: "CtxAnchors_M_D2Narrow" 450 0 basechar 0
AnchorPoint: "DiaToBaseD" 367.5 12.5 basechar 0
AnchorPoint: "DiaToBaseU" 410 0 basechar 0
AnchorPoint: "DiaToBase4" 470 0 basechar 0
AnchorPoint: "DiaToBase3" 450 0 basechar 0
AnchorPoint: "DiaToBase2" 380 0 basechar 0
AnchorPoint: "DiaToBase1" 350 0 basechar 0
AnchorPoint: "RafeToBase" 370 0 basechar 0
AnchorPoint: "DiaToBaseO" 10 0 basechar 0
LayerCount: 2
Back
SplineSet
175 415 m 1
 189 152 192 67 200 -138 c 1
 181.5 -176 158.5 -204.5 130 -233 c 1
 110 0 107 89 95 298 c 1
 115 335 143 374 175 415 c 1
36 491 m 1
 71 550 105 598 156 654 c 1
 159 632 160 600 185 600 c 2
 541 600 l 2
 610 600 665 575 662 469 c 0
 659 347 597 196 508 107 c 0
 452 51 343 -2 255 -10 c 1
 270 36 286 72 313 113 c 1
 471 150 567 193 568 404 c 0
 568 460 540 491 496 491 c 2
 36 491 l 1
EndSplineSet
Fore
SplineSet
179 415 m 1
 193 152 196 67 204 -138 c 1
 185 -176 163 -204 134 -233 c 1
 114 0 111 89 99 298 c 1
 119 335 147 374 179 415 c 1
40 491 m 1
 75 550 109 598 160 654 c 1
 163 632 164 600 189 600 c 2
 535 600 l 2
 604 600 659 575 656 469 c 0
 653 347 591 196 502 107 c 0
 447 52 341 0 255 -9 c 1
 268 36 287 77 313 114 c 1
 468 151 561 196 562 404 c 0
 562 460 534 491 490 491 c 2
 40 491 l 1
EndSplineSet
Validated: 33
Comment: "%DiaToBase1+AD0A-350+AAoA%DiaToBase2+AD0A-380+AAoA%DiaToBaseU+AD0A-410+AAoA%DiaToBaseO+AD0A-10+AAoA%DiaToBase3+AD0A-450+AAoA%RafeToBase+AD0A-370+AAoA%DiaToBase4+AD0A-470+AAoA" 
EndChar

StartChar: afii57688
Encoding: 1512 1512 138
Width: 610
VWidth: 1000
Flags: W
HStem: 491 109<163.429 421.152>
VStem: 464 86<51.4109 260.521>
AnchorPoint: "CtxAnchors_D3Narrow_M" 320 0 basechar 0
AnchorPoint: "CtxAnchors_D1_M" 460 0 basechar 0
AnchorPoint: "CtxAnchors_D2_M" 400 0 basechar 0
AnchorPoint: "CtxAnchors_D2Narrow_M" 400 0 basechar 0
AnchorPoint: "CtxAnchors_M_D2" 400 0 basechar 0
AnchorPoint: "CtxAnchors_M_D1" 460 0 basechar 0
AnchorPoint: "CtxAnchors_M_D3Narrow" 320 0 basechar 0
AnchorPoint: "CtxAnchors_M_D2Narrow" 400 0 basechar 0
AnchorPoint: "DiaToBaseD" 307.5 0 basechar 0
AnchorPoint: "DiaToBaseU" 430 0 basechar 0
AnchorPoint: "DiaToBase4" 320 0 basechar 0
AnchorPoint: "DiaToBase3" 400 0 basechar 0
AnchorPoint: "DiaToBase2" 460 0 basechar 0
AnchorPoint: "DiaToBase1" 490 0 basechar 0
AnchorPoint: "RafeToBase" 320 0 basechar 0
AnchorPoint: "DiaToBaseO" 20 0 basechar 0
LayerCount: 2
Back
SplineSet
453 398 m 0
 446 460 400 491 366 491 c 2
 40 491 l 1
 74 552 104 593 159 654 c 1
 162 631 164 600 188 600 c 2
 374 600 l 2
 447 600 533 522 537 436 c 0
 543 291 550 61 550 61 c 1
 524 26 499 1 464 -25 c 1
 464 118 462 319 453 398 c 0
EndSplineSet
Fore
SplineSet
453 398 m 0
 448.946 435.444 439.835 456.633 422 471 c 0
 404 485.5 380.5 491 349.5 491 c 2
 40 491 l 1
 74 552 104 593 159 654 c 1
 162 631 164 600 188 600 c 2
 339.5 600 l 2
 402.5 600 450.5 585 484 555 c 0
 520.442 522.366 534.733 477.958 538 399 c 0
 544 254 550 61 550 61 c 1
 524 26 499 1 464 -25 c 1
 464 118 461.5 319.5 453 398 c 0
EndSplineSet
Validated: 1
Substitution2: "jaltWideLetters subtable" uniFB27
Comment: "%DiaToBase1+AD0A-490+AAoA%DiaToBase2+AD0A-460+AAoA%DiaToBaseU+AD0A-430+AAoA%DiaToBaseO+AD0A-20+AAoA%DiaToBase3+AD0A-400+AAoA%RafeToBase+AD0A-320+AAoA%DiaToBase4+AD0A-320+AAoA" 
EndChar

StartChar: afii57689
Encoding: 1513 1513 139
Width: 731
VWidth: 1000
Flags: W
HStem: -10 107<309.265 436.627>
AnchorPoint: "CtxAnchors_D3Narrow_M" 400 0 basechar 0
AnchorPoint: "CtxAnchors_D1_M" 380 0 basechar 0
AnchorPoint: "CtxAnchors_D2_M" 390 0 basechar 0
AnchorPoint: "CtxAnchors_D2Narrow_M" 390 0 basechar 0
AnchorPoint: "CtxAnchors_M_D2" 390 0 basechar 0
AnchorPoint: "CtxAnchors_M_D1" 380 0 basechar 0
AnchorPoint: "CtxAnchors_M_D3Narrow" 400 0 basechar 0
AnchorPoint: "CtxAnchors_M_D2Narrow" 390 0 basechar 0
AnchorPoint: "DiaToBaseD" 470 -40 basechar 0
AnchorPoint: "DiaToBaseU" 360 0 basechar 0
AnchorPoint: "DiaToBase4" 400 0 basechar 0
AnchorPoint: "DiaToBase3" 390 0 basechar 0
AnchorPoint: "DiaToBase2" 380 0 basechar 0
AnchorPoint: "DiaToBase1" 370 0 basechar 0
AnchorPoint: "RafeToBase" 390 0 basechar 0
LayerCount: 2
Back
SplineSet
243 235 m 1
 264 161 280 97 348 97 c 0
 387 97 445 124 493 162 c 0
 551 207 583 272 577 372 c 0
 572 454 555 508 542 551 c 1
 567 585 597 612 634 639 c 1
 659 572 686 460 663 349 c 16
 647 270 603 182 549 126 c 0
 481 52 399 -13 320 -10 c 0
 281 -9 243 8 213 66 c 0
 181 128 155 208 128 296 c 0
 103 375 81 442 20 539 c 1
 40 574 69 614 100 639 c 1
 137 576 226 292 226 292 c 17
 264 314 314 353 323 400 c 0
 335 465 312 519 303 553 c 1
 323 584 350 614 382 639 c 1
 402 617 439 489 412 398 c 16
 391 326 323 280 243 235 c 1
EndSplineSet
Fore
SplineSet
263 235 m 1
 284 161 300 97 368 97 c 0
 407 97 465 124 513 162 c 0
 571 207 603 272 597 372 c 0
 592 454 575 508 562 551 c 1
 587 585 617 612 654 639 c 1
 679 572 705.562 460.402 683 349 c 16
 667 270 623 182 569 126 c 0
 501 52 419 -13 340 -10 c 0
 301 -9 263 8 233 66 c 0
 201 128 175 208 148 296 c 0
 123 375 101 442 40 539 c 1
 60 574 89 614 120 639 c 1
 157 576 246 292 246 292 c 17
 284 314 334 353 343 400 c 0
 355 465 329 519 311 553 c 1
 331 584 358 615 387 639 c 1
 424 600 458.772 489.79 432 398 c 16
 411 326 343 280 263 235 c 1
EndSplineSet
Validated: 33
Comment: "%DiaToBase1+AD0A-370+AAoA%DiaToBase2+AD0A-380+AAoA%DiaToBaseU+AD0A-360+AAoA%DiaToBase3+AD0A-390+AAoA%RafeToBase+AD0A-390+AAoA%DiaToBase4+AD0A-400+AAoA" 
EndChar

StartChar: afii57690
Encoding: 1514 1514 140
Width: 728
VWidth: 1000
Flags: W
HStem: 0 109<95.4646 235> 491 109<264 554.274>
VStem: 235 64<111.114 307.922> 584 82<106.583 459.986> 600 68<46.7461 240.416>
AnchorPoint: "CtxAnchors_D3Narrow_M" 400 0 basechar 0
AnchorPoint: "CtxAnchors_D1_M" 420 0 basechar 0
AnchorPoint: "CtxAnchors_D2_M" 380 0 basechar 0
AnchorPoint: "CtxAnchors_D2Narrow_M" 380 0 basechar 0
AnchorPoint: "CtxAnchors_M_D2" 380 0 basechar 0
AnchorPoint: "CtxAnchors_M_D1" 420 0 basechar 0
AnchorPoint: "CtxAnchors_M_D3Narrow" 400 0 basechar 0
AnchorPoint: "CtxAnchors_M_D2Narrow" 380 0 basechar 0
AnchorPoint: "DiaToBaseD" 440 -22.5 basechar 0
AnchorPoint: "DiaToBaseU" 400 0 basechar 0
AnchorPoint: "DiaToBase4" 400 0 basechar 0
AnchorPoint: "DiaToBase3" 380 0 basechar 0
AnchorPoint: "DiaToBase2" 420 0 basechar 0
AnchorPoint: "DiaToBase1" 420 0 basechar 0
AnchorPoint: "RafeToBase" 410 0 basechar 0
AnchorPoint: "DiaToBaseO" 55 0 basechar 0
LayerCount: 2
Back
SplineSet
265 491 m 17
 281 395 300 237 300 184 c 0
 300 133 280 80 246 0 c 1
 31 0 l 1
 49 40 68 73 92 109 c 1
 236 109 l 1
 228 251 174 491 174 491 c 25
 53 491 l 1
 91 549 139 601 193 654 c 1
 196 631 197 600 222 600 c 2
 491 600 l 2
 621 600 657 509 657 430 c 2
 659 61 l 1
 645 20 624 -10 592 -36 c 1
 584 104 575 385 575 385 c 2
 571 467 528 491 469 491 c 2
 265 491 l 17
EndSplineSet
Fore
SplineSet
264 491 m 17xf0
 280 395 299 237 299 184 c 0
 299 133 279 80 245 0 c 1
 40 0 l 1
 58 40 77 73 101 109 c 1
 235 109 l 1
 227 251 173 491 173 491 c 25
 62 491 l 1
 100 549 148 601 202 654 c 1
 205 631 206 600 231 600 c 2
 500 600 l 2
 630 600 666 509 666 430 c 2xf0
 668 61 l 1
 648 26 630 0 600 -25 c 1xe8
 592 115 584 385 584 385 c 2
 580 467 537 491 478 491 c 2
 264 491 l 17xf0
EndSplineSet
Validated: 1
Substitution2: "jaltWideLetters subtable" uniFB28
Comment: "%DiaToBase1+AD0A-420+AAoA%DiaToBase2+AD0A-420+AAoA%DiaToBaseU+AD0A-400+AAoA%DiaToBaseO+AD0A-55+AAoA%DiaToBase3+AD0A-380+AAoA%RafeToBase+AD0A-410+AAoA%DiaToBase4+AD0A-400+AAoA" 
EndChar

StartChar: endash
Encoding: 8211 8211 150
Width: 632
VWidth: 1048
Flags: W
HStem: 258 84<82 550>
VStem: 50 532<258 342>
LayerCount: 2
Fore
SplineSet
82 342 m 1
 582 342 l 1
 575.673 310.113 565.15 281.907 550 258 c 1
 50 258 l 1
 55.7129 287.754 64.9453 316.232 82 342 c 1
EndSplineSet
Validated: 1
EndChar

StartChar: emdash
Encoding: 8212 8212 151
Width: 932
VWidth: 1048
Flags: W
HStem: 258 84<82 850>
LayerCount: 2
Fore
SplineSet
82 342 m 1
 882 342 l 1
 875.673 310.113 865.149 281.907 850 258 c 1
 50 258 l 1
 55.7129 287.754 64.9453 316.232 82 342 c 1
EndSplineSet
Validated: 1
EndChar

StartChar: afii00208
Encoding: 8213 8213 152
Width: 1332
VWidth: 1048
Flags: W
HStem: 258 84<82 1250>
LayerCount: 2
Fore
SplineSet
82 342 m 1
 1282 342 l 5
 1275.67 310.113 1265.15 281.907 1250 258 c 5
 50 258 l 1
 55.7129 287.754 64.9453 316.232 82 342 c 1
EndSplineSet
Validated: 1
EndChar

StartChar: afii57705
Encoding: 64287 64287 157
Width: 658
VWidth: 1000
Flags: W
LayerCount: 2
Back
SplineSet
119 639 m 1
 158 609 201 572 252 527 c 16
 288 496 299 442 280 395 c 0
 256 338 217 274 183 233 c 1
 153 213 123 200 85 190 c 1
 127 264 162 329 183 381 c 8
 195 410 182 434 156 456 c 8
 114 491 75 518 40 538 c 1
 62 576 89 609 119 639 c 1
427 639 m 1
 466 609 509 572 560 527 c 16
 596 496 607 442 588 395 c 0
 564 338 525 274 491 233 c 1
 461 213 431 200 393 190 c 1
 435 264 470 329 491 381 c 8
 503 410 490 434 464 456 c 8
 422 491 383 518 348 538 c 1
 370 576 397 609 427 639 c 1
186.029 100.088 m 1
 434.529 100.088 l 5
 431.328 73.9609 424.115 52.3223 411 29.5 c 5
 162.5 29.5 l 17
 165.701 55.627 172.914 77.2656 186.029 100.088 c 1
EndSplineSet
Fore
Refer: 101 1463 N 1 0 0 1 315 170 2
Refer: 123 1497 N 1 0 0 1 0 0 2
Refer: 123 1497 N 1 0 0 1 329 0 2
Validated: 1
Ligature2: "ccmpYiddish3 subtable" afii57673 afii57673 afii57798
Ligature2: "ccmpYiddish3 subtable" afii57718 afii57798
Ligature2: "ccmpYiddish_dflt subtable" afii57718 afii57798
LCarets2: 2 0 0 
EndChar

StartChar: uniFB20
Encoding: 64288 64288 158
Width: 587
VWidth: 1000
Flags: W
HStem: -5 109<93.4815 231.536>
AnchorPoint: "CtxAnchors_D3Narrow_M" 290 0 basechar 0
AnchorPoint: "CtxAnchors_D1_M" 290 0 basechar 0
AnchorPoint: "CtxAnchors_D2_M" 295 0 basechar 0
AnchorPoint: "CtxAnchors_D2Narrow_M" 295 0 basechar 0
AnchorPoint: "CtxAnchors_M_D2" 295 0 basechar 0
AnchorPoint: "CtxAnchors_M_D1" 290 0 basechar 0
AnchorPoint: "CtxAnchors_M_D3Narrow" 290 0 basechar 0
AnchorPoint: "CtxAnchors_M_D2Narrow" 295 0 basechar 0
AnchorPoint: "DiaToBaseD" 350 82 basechar 0
AnchorPoint: "DiaToBaseU" 285 0 basechar 0
AnchorPoint: "DiaToBase4" 290 0 basechar 0
AnchorPoint: "DiaToBase3" 295 0 basechar 0
AnchorPoint: "DiaToBase2" 290 0 basechar 0
AnchorPoint: "DiaToBase1" 300 0 basechar 0
AnchorPoint: "RafeToBase" 330 0 basechar 0
AnchorPoint: "DiaToBaseO" 20 0 basechar 0
LayerCount: 2
Back
SplineSet
132 639 m 5
 196 515 216 465 242 380 c 4
 263 307 288 202 310 122 c 5
 397 173 452 201 456 274 c 12
 462 379 426 492 409 540 c 5
 436 574 469 608 505 639 c 5
 552 512 553 350 513 238 c 4
 451 63 320 0 27 -128 c 5
 43 -74 57 -41 79 6 c 5
 140 33 202 61 248 88 c 5
 190 272 137 385 47 544 c 5
 74 581 97 608 132 639 c 5
EndSplineSet
Fore
SplineSet
241 108.5 m 1
 193.5 274 151 371 52 548 c 1
 81.0059 588.029 95.9014 604.843 134 639 c 1
 181 550 213 479 242 384 c 0
 266.721 303.018 291 208 307 120 c 1
 366 139 453 187 462 273 c 0
 472.947 377.602 431 484 412 538 c 1
 444.387 579.255 471.07 608.913 511 639 c 1
 563 497.496 552.708 350.703 520 240 c 0
 494 152 384 -5 118 -5 c 2
 30 -5 l 1
 47 35 68 68 101 104 c 1
 180 104 l 2
 204 104 241 108.5 241 108.5 c 1
EndSplineSet
Validated: 33
Comment: "%DiaToBase1+AD0A-300+AAoA%DiaToBase2+AD0A-290+AAoA%DiaToBase3+AD0A-295+AAoA%DiaToBaseU+AD0A-285+AAoA%DiaToBaseO+AD0A-20+AAoA%RafeToBase+AD0A-330+AAoA%DiaToBase4+AD0A-290+AAoA" 
EndChar

StartChar: uniFB29
Encoding: 64297 64297 159
Width: 732
VWidth: 1068
Flags: W
HStem: 278 82<131 326 406 600>
VStem: 326 80<360 549>
LayerCount: 2
Back
SplineSet
100 278 m 1
 105.713 307.754 114.945 336.232 132 362 c 5
 326 362 l 5
 326 549 l 1
 349.906 564.15 374.113 574.672 406 581 c 1
 406 362 l 5
 632 362 l 5
 625.672 330.113 615.15 301.906 600 278 c 1
 100 278 l 1
EndSplineSet
Fore
SplineSet
100 278 m 1
 105.713 307.754 113.945 334.232 131 360 c 1
 326 360 l 1
 326 549 l 1
 349.906 564.15 374.113 574.672 406 581 c 1
 406 360 l 1
 631 360 l 1
 624.672 328.113 615.15 301.906 600 278 c 1
 100 278 l 1
EndSplineSet
Validated: 1
EndChar

StartChar: uniFB2A
Encoding: 64298 64298 160
Width: 731
VWidth: 1000
Flags: W
HStem: -10 107<309.265 436.627>
AnchorPoint: "CtxAnchors_Rafe" 318.186 0 basechar 0
AnchorPoint: "CtxAnchors_D3Narrow_M" 400 0 basechar 0
AnchorPoint: "CtxAnchors_D1_M" 380 0 basechar 0
AnchorPoint: "CtxAnchors_D2_M" 390 0 basechar 0
AnchorPoint: "CtxAnchors_D2Narrow_M" 390 0 basechar 0
AnchorPoint: "CtxAnchors_M_D2" 390 0 basechar 0
AnchorPoint: "CtxAnchors_M_D1" 380 0 basechar 0
AnchorPoint: "CtxAnchors_M_D3Narrow" 400 0 basechar 0
AnchorPoint: "CtxAnchors_M_D2Narrow" 390 0 basechar 0
AnchorPoint: "DiaToBaseU" 360 0 basechar 0
AnchorPoint: "DiaToBase4" 400 0 basechar 0
AnchorPoint: "DiaToBase3" 390 0 basechar 0
AnchorPoint: "DiaToBase2" 380 0 basechar 0
AnchorPoint: "DiaToBase1" 370 0 basechar 0
AnchorPoint: "RafeToBase" 390 0 basechar 0
LayerCount: 2
Back
SplineSet
263 235 m 1
 284 161 300 97 368 97 c 0
 407 97 465 124 513 162 c 0
 571 207 603 272 597 372 c 0
 592 454 575 508 562 551 c 1
 587 585 617 612 654 639 c 1
 679 572 705.562 460.402 683 349 c 16
 667 270 623 182 569 126 c 0
 501 52 419 -13 340 -10 c 0
 301 -9 263 8 233 66 c 0
 201 128 175 208 148 296 c 0
 123 375 101 442 40 539 c 1
 60 574 89 614 120 639 c 1
 157 576 246 292 246 292 c 17
 284 314 334 353 343 400 c 0
 355 465 329 519 311 553 c 1
 331 584 358 615 387 639 c 1
 424 600 458.772 489.79 432 398 c 16
 411 326 343 280 263 235 c 1
503.235 675.965 m 1
 516.525 698.303 532.661 714.439 555 727.729 c 1
 577.34 714.439 593.476 698.303 606.766 675.965 c 1
 593.476 653.626 577.34 637.49 555 624.2 c 1
 532.661 637.49 516.525 653.626 503.235 675.965 c 1
EndSplineSet
Fore
Refer: 110 1473 S 1 0 0 1 0 0 2
Refer: 139 1513 N 1 0 0 1 0 0 2
Validated: 1
Ligature2: "ccmpSinShin subtable" afii57689 afii57804
LCarets2: 1 0 
EndChar

StartChar: uniFB2B
Encoding: 64299 64299 161
Width: 731
VWidth: 1000
Flags: W
HStem: -10 107<309.265 436.627>
AnchorPoint: "CtxAnchors_Rafe" 443.545 0 basechar 0
AnchorPoint: "CtxAnchors_D3Narrow_M" 400 0 basechar 0
AnchorPoint: "CtxAnchors_D1_M" 380 0 basechar 0
AnchorPoint: "CtxAnchors_D2_M" 390 0 basechar 0
AnchorPoint: "CtxAnchors_D2Narrow_M" 390 0 basechar 0
AnchorPoint: "CtxAnchors_M_D2" 390 0 basechar 0
AnchorPoint: "CtxAnchors_M_D1" 380 0 basechar 0
AnchorPoint: "CtxAnchors_M_D3Narrow" 400 0 basechar 0
AnchorPoint: "CtxAnchors_M_D2Narrow" 390 0 basechar 0
AnchorPoint: "DiaToBaseU" 360 0 basechar 0
AnchorPoint: "DiaToBase4" 400 0 basechar 0
AnchorPoint: "DiaToBase3" 390 0 basechar 0
AnchorPoint: "DiaToBase2" 380 0 basechar 0
AnchorPoint: "DiaToBase1" 370 0 basechar 0
AnchorPoint: "RafeToBase" 390 0 basechar 0
LayerCount: 2
Back
SplineSet
263 235 m 1
 284 161 300 97 368 97 c 0
 407 97 465 124 513 162 c 0
 571 207 603 272 597 372 c 0
 592 454 575 508 562 551 c 1
 587 585 617 612 654 639 c 1
 679 572 705.562 460.402 683 349 c 16
 667 270 623 182 569 126 c 0
 501 52 419 -13 340 -10 c 0
 301 -9 263 8 233 66 c 0
 201 128 175 208 148 296 c 0
 123 375 101 442 40 539 c 1
 60 574 89 614 120 639 c 1
 157 576 246 292 246 292 c 17
 284 314 334 353 343 400 c 0
 355 465 329 519 311 553 c 1
 331 584 358 615 387 639 c 1
 424 600 458.772 489.79 432 398 c 16
 411 326 343 280 263 235 c 1
170 675.965 m 1
 183.29 698.303 199.426 714.439 221.765 727.729 c 1
 244.104 714.439 260.24 698.303 273.53 675.965 c 1
 260.24 653.626 244.104 637.49 221.765 624.2 c 1
 199.426 637.49 183.29 653.626 170 675.965 c 1
EndSplineSet
Fore
Refer: 111 1474 N 1 0 0 1 0 0 2
Refer: 139 1513 N 1 0 0 1 0 0 2
Validated: 1
Ligature2: "ccmpSinShin subtable" afii57689 afii57803
LCarets2: 1 0 
EndChar

StartChar: uniFB4F
Encoding: 64335 64335 192
Width: 692
VWidth: 1000
Flags: W
LayerCount: 2
Back
SplineSet
658 -20 m 1
 499.624 167.614 296 375 119 508 c 0
 107.166 516.892 100.187 528.352 98.5 544.5 c 0
 95 578 91 609.667 87 644 c 0
 82.8084 679.978 77 710 63 728 c 1
 88 772 112 804 144 835 c 1
 161 822 160 781 161 753 c 0
 163 703 159.433 669.207 164.5 616 c 16
 165.657 603.851 169.826 595.718 175.753 590.815 c 0
 297.245 497.197 406.857 402.143 499 310 c 1
 556 401 563 491 527 547 c 1
 549 585 577 616 604 639 c 1
 710 544 593 323 543 266 c 1
 612 199 659 141 705 86 c 1
 694 51 678 13.5 658 -20 c 1
EndSplineSet
Fore
SplineSet
615 -20 m 1
 428 174 253 322 76 447 c 0
 62.9854 456.192 57.2373 471.427 55.5 490.8 c 0
 51 541 48 585.001 44 626.2 c 0
 39.8086 669.374 34 705.4 20 727 c 1
 44 771 67 802 101 834.4 c 1
 118 818.8 123 769 123 714 c 0
 123 668 118.371 622.316 123 564 c 16
 124.157 549.421 127.392 538.538 134.253 533.777 c 0
 255 450 341 380 441 292 c 1
 506 398 529 470 484 547 c 1
 506 585 534 616 561 639 c 1
 667 544 554 332 488 252 c 1
 557 193 616 141 662 86 c 1
 651 51 635 13.5 615 -20 c 1
EndSplineSet
Validated: 33
Ligature2: "dligAlephLamed subtable" afii57664 afii57676
Ligature2: "ccmpAlephLamed subtable" afii57664 afii57676
LCarets2: 1 0 
EndChar

StartChar: sterling
Encoding: 163 163 194
Width: 619
VWidth: 1000
Flags: W
HStem: 0 109<118.303 146 226 495.2> 288 74<112.727 146 226 373.561> 605 135<421.207 488.935>
VStem: 146 80<109 288 362 484.3>
LayerCount: 2
Back
SplineSet
111 32 m 25
 191 52 l 25
 191 374 l 2
 191 600 290 586 449 605 c 1
 476 647 492 691 504 740 c 1
 300.721 721.52 111 585.052 111 344 c 2
 111 32 l 25
84 362 m 1
 67 341 52 315 43 288 c 1
 332 288 l 1
 350 309 364 335 373 362 c 1
 84 362 l 1
89 109 m 1
 64 75 48 40 35 0 c 1
 454 0 l 1
 481 34 501 70 514 109 c 1
 89 109 l 1
EndSplineSet
Fore
SplineSet
124 109 m 1
 146 109 l 1
 146 288 l 1
 78 288 l 1
 87 315 102 341 119 362 c 1
 146.358 362 l 1
 155.558 591.846 340.837 721.985 539 740 c 1
 527 691 511 647 484 605 c 1
 325 586 226 600 226 374 c 2
 226 362 l 1
 408 362 l 1
 399 335 385 309 367 288 c 1
 226 288 l 1
 226 109 l 1
 549 109 l 1
 536 70 516 34 489 0 c 1
 70 0 l 1
 83 40 99 75 124 109 c 1
EndSplineSet
Validated: 1
EndChar

StartChar: afii57799
Encoding: 1456 1456 195
Width: 0
VWidth: 1100
Flags: HMW
AnchorPoint: "CtxAnchors_M_D1" -70.7959 0 mark 0
AnchorPoint: "ColumnToBaseMark" -122.765 -106.764 basemark 0
AnchorPoint: "DotToBaseMark" -105.765 -106.764 basemark 0
AnchorPoint: "BarToBaseNarrowMark" -79.7646 -106.764 basemark 0
AnchorPoint: "BarToBaseMark" -95.7646 -106.764 basemark 0
AnchorPoint: "2DotsToBaseMark" 51.7646 -106.764 mark 0
AnchorPoint: "DiaToBase1" 0 0 mark 0
LayerCount: 2
Back
SplineSet
-47.0586 -214.705 m 1
 -34.9766 -194.397 -20.3086 -179.729 0 -167.646 c 1
 20.3086 -179.729 34.9766 -194.397 47.0586 -214.705 c 1
 34.9766 -235.013 20.3086 -249.683 0 -261.765 c 1
 -20.3086 -249.683 -34.9766 -235.013 -47.0586 -214.705 c 1
-47.0586 -97.0586 m 1
 -34.9766 -76.751 -20.3086 -62.0811 0 -50 c 1
 20.3086 -62.0811 34.9766 -76.751 47.0586 -97.0586 c 1
 34.9766 -117.366 20.3086 -132.035 0 -144.117 c 1
 -20.3086 -132.035 -34.9766 -117.366 -47.0586 -97.0586 c 1
EndSplineSet
Fore
SplineSet
-51.7646 -236.176 m 1
 -38.4746 -213.837 -22.3398 -197.702 0 -184.41 c 1
 22.3398 -197.702 38.4746 -213.837 51.7646 -236.176 c 1
 38.4746 -258.515 22.3398 -274.651 0 -287.941 c 1
 -22.3398 -274.651 -38.4746 -258.515 -51.7646 -236.176 c 1
-51.7646 -106.765 m 1
 -38.4746 -84.4258 -22.3398 -68.2891 0 -55 c 1
 22.3398 -68.2891 38.4746 -84.4258 51.7646 -106.765 c 1
 38.4746 -129.103 22.3398 -145.238 0 -158.528 c 1
 -22.3398 -145.238 -38.4746 -129.103 -51.7646 -106.765 c 1
EndSplineSet
Validated: 1
Comment: "+AAoA%BarToBaseMark+AD0A-44+AAoA%BarToBaseNarrowMark+AD0A-28+AAoA%ColumnToBaseMark+AD0A-71+AAoA%DotToBaseMark+AD0A-54" 
EndChar

StartChar: afii57636
Encoding: 8362 8362 196
Width: 954
VWidth: 1000
Flags: W
HStem: -10 111<409.4 626.5> 491 109<208 401.026>
VStem: 340.598 80.023<142.3 410.829> 569.797 81.2028<234.634 388.812> 577.933 83.207<186 257>
LayerCount: 2
Back
SplineSet
365.621 363 m 1
 364.5 311 365 257.017 365 193 c 0
 365 154 376 111 448 111 c 2
 473 111 l 2
 497 111 552.869 110.542 600 127 c 16
 663 149 730 209 735 281 c 8
 742.254 385.458 700 490 681 544 c 1
 708 588 743 626 788 653.504 c 1
 840 512 840.708 360.703 808 250 c 0
 782 162 674 -10 408 -10 c 2
 391 -10 l 2
 321 -10 287 69 284 128 c 0
 280.428 198.248 284.178 278.7 285.598 372.5 c 1
 311 378.5 341 375.5 365.621 363 c 1
521.075 184 m 1
 519.089 206.172 516.626 230.107 513.561 258 c 0
 503.561 349 488.561 441 387.561 466 c 0
 349.653 475.383 257.561 479 160.561 479 c 1
 161.561 342 161.561 142 145.561 60 c 1
 124.727 11.9209 93.5605 -12 51.5605 -36 c 1
 71.5605 174 79.5605 351 39.5605 518 c 1
 68.5605 579 100.561 614 151.06 653.5 c 1
 154.06 631 155.061 600 179.561 600 c 2
 179.561 600 280.211 600 344.561 600 c 16
 509.561 600 584.561 487 602.561 380 c 0
 607.695 349.481 613 307 615 270 c 1
 589 225 557 202 521.075 184 c 1
EndSplineSet
Fore
SplineSet
199 654 m 1xe8
 202 631 203 600 228 600 c 2
 228 600 328 600 393 600 c 16
 558 600 637 488 651 380 c 0xf0
 656.179 338.965 659.454 298.724 661.14 257 c 1
 639 227 610 205 577.933 186 c 1
 576.055 215.118 573.763 242.983 571 270 c 0
 562 361 546 453 445 478 c 0
 407 487 305 491 208 491 c 1
 208.985 369.788 209 132.039 194.645 54.333 c 1
 165.444 16.7725 133.56 -9.5459 110.941 -25 c 1
 128.267 161.211 135.278 362.064 95 533 c 1
 121 588 154 618 199 654 c 1xe8
420.621 363 m 1
 419.5 311 420 257.017 420 193 c 0
 420 154 431 101 503 101 c 0
 598 101 661.866 115.72 713 153 c 0
 756.676 184.843 790.479 233.332 797 300 c 8
 806.533 397.45 775 495 752 547 c 1
 778 583 807 610 847 639 c 1
 893 514 895.708 360.703 863 250 c 0
 837 162 729 -10 463 -10 c 2
 446 -10 l 2
 376 -10 342 69 339 128 c 0
 335.428 198.248 339.178 278.7 340.598 372.5 c 1
 366 378.5 396 375.5 420.621 363 c 1
EndSplineSet
Validated: 33
EndChar

StartChar: Euro
Encoding: 8364 8364 197
Width: 612
VWidth: 1000
Flags: W
HStem: -13 21G<384.891 436> 242 64<200.893 386> 362 64<188.214 435> 594 104<429.95 529.362>
VStem: 70 472<242 698>
LayerCount: 2
Back
SplineSet
123.954 426 m 5
 105.635 406.5 93.8682 385.5 85.1895 362 c 5
 388.189 362 l 5
 405.096 379 418.292 402 426.954 426 c 5
 123.954 426 l 5
66.1445 306 m 5
 47.8252 286.5 36.0586 265.5 27.3799 242 c 5
 343.38 242 l 5
 360.286 259 373.482 282 382.145 306 c 5
 66.1445 306 l 5
167.706 519 m 4
 214.576 580 294.078 598 390.311 598 c 4
 417.705 598 443.163 597.06 466.5 591.5 c 5
 485 623 495.806 658.565 502 696.5 c 5
 428.5 717.5 326.188 711.832 278.2 691 c 4
 157.979 638.81 68.75 516.669 54.0391 394.92 c 4
 39.0029 270.493 74.7432 142.61 145.055 75.3271 c 12
 218.205 5.32715 314.773 -16.625 387.833 -16.625 c 4
 411 -16.625 432.5 -13 452.5 -7.5 c 5
 465 21 472.5 54 474.5 86 c 5
 378.887 65.6113 228.141 94 172 197 c 4
 141.825 252.361 134.052 310.07 131.539 382 c 4
 129.671 435.506 149.209 494.926 167.706 519 c 4
EndSplineSet
Fore
SplineSet
97.3701 290.383 m 1
 95.1025 324.55 96.542 359.873 102 394.922 c 0
 120.969 516.672 214.453 638.812 336.5 691 c 0
 385.219 711.828 464.5 717 542 698 c 1
 533 659 519.5 626 500.5 594 c 1
 480.5 597 466 598 445.359 598 c 0
 349.125 598 269 580 220 519 c 0
 205.901 501.45 193.761 465.124 188.214 426 c 1
 476 426 l 1
 466.5 402 452.5 379 435 362 c 1
 185.168 362 l 1
 185.518 342.373 186.456 323.796 188.361 306 c 1
 427 306 l 1
 417.5 282 403.5 259 386 242 c 1
 200.893 242 l 1
 205.543 226.683 211.473 211.758 219 197 c 0
 271.547 94 418 62 527 88 c 1
 523.5 56.5 513.5 26 499.333 -2.66699 c 1
 475.333 -9.33301 450.578 -13 421.422 -13 c 0
 348.359 -13 252.98 8.54883 181.858 78.9531 c 16
 142.254 118.157 115.111 174.316 103.188 242 c 1
 70 242 l 1
 77.0166 259.357 85.6699 275.35 97.3701 290.383 c 1
EndSplineSet
Validated: 33
EndChar

StartChar: SF110000
Encoding: 9474 9474 198
Width: 570
VWidth: 970
Flags: W
VStem: 245 80<-300 960>
LayerCount: 2
Fore
SplineSet
325 960 m 1
 325 -300 l 1
 245 -300 l 1
 245 960 l 1
 325 960 l 1
EndSplineSet
Validated: 1
EndChar

StartChar: uni25CC
Encoding: 9676 9676 199
Width: 614
VWidth: 1000
Flags: W
HStem: 23.5762 55.9043<278.133 333.874> 42.5215 55.9062<183.092 238.834 373.173 428.914> 96.3574 55.9066<102.443 158.185 453.822 509.563> 177.007 55.906<48.607 104.351 507.656 563.398> 272.046 55.907<29.6617 85.4038 526.602 582.345> 367.086 55.907<48.607 104.351 507.656 563.398> 447.735 55.907<102.443 158.185 453.822 509.563> 501.571 55.906<183.092 238.834 373.173 428.914> 520.518 55.906<278.133 333.874>
VStem: 29.5801 55.9053<272.128 327.871> 48.5254 55.9076<177.089 232.831 367.168 422.911> 102.361 55.906<96.439 152.182 447.817 503.56> 183.01 55.906<42.6031 98.3461 501.653 557.395> 278.051 55.905<23.6578 79.3989 520.6 576.342> 373.091 55.905<42.6031 98.3461 501.653 557.395> 453.74 55.905<96.439 152.182 447.817 503.56> 507.574 55.906<177.089 232.831 367.168 422.911> 526.52 55.907<272.128 327.871>
AnchorPoint: "CtxAnchors_Rafe" 500 0 basechar 0
AnchorPoint: "CtxAnchors_D3Narrow_M" 306 0 basechar 0
AnchorPoint: "CtxAnchors_D2Narrow_M" 306 0 basechar 0
AnchorPoint: "CtxAnchors_D2_M" 306 0 basechar 0
AnchorPoint: "CtxAnchors_D1_M" 306 0 basechar 0
AnchorPoint: "CtxAnchors_M_D3Narrow" 306 0 basechar 0
AnchorPoint: "CtxAnchors_M_D2Narrow" 306 0 basechar 0
AnchorPoint: "CtxAnchors_M_D2" 306 0 basechar 0
AnchorPoint: "CtxAnchors_M_D1" 306 0 basechar 0
AnchorPoint: "DiaToBaseU" 306 0 basechar 0
AnchorPoint: "DiaToBase4" 306 0 basechar 0
AnchorPoint: "DiaToBase3" 306 0 basechar 0
AnchorPoint: "DiaToBase2" 306 0 basechar 0
AnchorPoint: "DiaToBase1" 306 0 basechar 0
AnchorPoint: "RafeToBase" 306 0 basechar 0
AnchorPoint: "DiaToBaseO" 0 0 basechar 0
AnchorPoint: "DiaToBaseD" 306 0 basechar 0
LayerCount: 2
Fore
SplineSet
76.4785 232.913 m 0x1c2e
 91.9082 232.913 104.433 220.39 104.433 204.96 c 0
 104.433 189.529 91.9082 177.007 76.4785 177.007 c 0
 61.0479 177.007 48.5254 189.529 48.5254 204.96 c 0
 48.5254 220.39 61.0479 232.913 76.4785 232.913 c 0x1c2e
210.963 98.4277 m 0x5c0e
 226.394 98.4277 238.916 85.9043 238.916 70.4746 c 0
 238.916 55.0439 226.394 42.5215 210.963 42.5215 c 0
 195.534 42.5215 183.01 55.0439 183.01 70.4746 c 0
 183.01 85.9043 195.534 98.4277 210.963 98.4277 c 0x5c0e
401.043 98.4277 m 0
 416.473 98.4277 428.996 85.9043 428.996 70.4746 c 0
 428.996 55.0439 416.473 42.5215 401.043 42.5215 c 0
 385.612 42.5215 373.091 55.0439 373.091 70.4746 c 0
 373.091 85.9043 385.612 98.4277 401.043 98.4277 c 0
535.528 232.913 m 0
 550.958 232.913 563.48 220.39 563.48 204.96 c 0
 563.48 189.529 550.958 177.007 535.528 177.007 c 0
 520.099 177.007 507.574 189.529 507.574 204.96 c 0x1c0e80
 507.574 220.39 520.099 232.913 535.528 232.913 c 0
535.528 422.993 m 0
 550.958 422.993 563.48 410.47 563.48 395.039 c 0
 563.48 379.609 550.958 367.086 535.528 367.086 c 0
 520.099 367.086 507.574 379.609 507.574 395.039 c 0
 507.574 410.47 520.099 422.993 535.528 422.993 c 0
401.043 557.477 m 0x1d0e
 416.473 557.477 428.996 544.955 428.996 529.525 c 0
 428.996 514.095 416.473 501.571 401.043 501.571 c 0
 385.612 501.571 373.091 514.095 373.091 529.525 c 0
 373.091 544.955 385.612 557.477 401.043 557.477 c 0x1d0e
210.963 557.477 m 0
 226.394 557.477 238.916 544.955 238.916 529.525 c 0
 238.916 514.095 226.394 501.571 210.963 501.571 c 0
 195.534 501.571 183.01 514.095 183.01 529.525 c 0
 183.01 544.955 195.534 557.477 210.963 557.477 c 0
76.4785 422.993 m 0
 91.9082 422.993 104.433 410.47 104.433 395.039 c 0
 104.433 379.609 91.9082 367.086 76.4785 367.086 c 0
 61.0479 367.086 48.5254 379.609 48.5254 395.039 c 0x1c2e
 48.5254 410.47 61.0479 422.993 76.4785 422.993 c 0
57.5322 327.953 m 0
 72.9629 327.953 85.4854 315.429 85.4854 300 c 0
 85.4854 284.57 72.9629 272.046 57.5322 272.046 c 0
 42.1025 272.046 29.5801 284.57 29.5801 300 c 0x1c4e
 29.5801 315.429 42.1025 327.953 57.5322 327.953 c 0
130.312 503.642 m 0x1e1e
 145.744 503.642 158.267 491.119 158.267 475.688 c 0
 158.267 460.259 145.744 447.735 130.312 447.735 c 0
 114.884 447.735 102.361 460.259 102.361 475.688 c 0
 102.361 491.119 114.884 503.642 130.312 503.642 c 0x1e1e
130.312 152.264 m 0x3c1e
 145.744 152.264 158.267 139.74 158.267 124.311 c 0
 158.267 108.88 145.744 96.3574 130.312 96.3574 c 0
 114.884 96.3574 102.361 108.88 102.361 124.311 c 0
 102.361 139.74 114.884 152.264 130.312 152.264 c 0x3c1e
481.693 152.264 m 0
 497.123 152.264 509.645 139.74 509.645 124.311 c 0
 509.645 108.88 497.123 96.3574 481.693 96.3574 c 0
 466.262 96.3574 453.74 108.88 453.74 124.311 c 0x3c0f
 453.74 139.74 466.262 152.264 481.693 152.264 c 0
481.693 503.642 m 0x1e0f
 497.123 503.642 509.645 491.119 509.645 475.688 c 0
 509.645 460.259 497.123 447.735 481.693 447.735 c 0
 466.262 447.735 453.74 460.259 453.74 475.688 c 0
 453.74 491.119 466.262 503.642 481.693 503.642 c 0x1e0f
306.003 576.424 m 0x1c8e
 321.433 576.424 333.956 563.9 333.956 548.471 c 0
 333.956 533.04 321.433 520.518 306.003 520.518 c 0
 290.572 520.518 278.051 533.04 278.051 548.471 c 0
 278.051 563.9 290.572 576.424 306.003 576.424 c 0x1c8e
306.003 79.4805 m 0x9c0e
 321.433 79.4805 333.956 66.959 333.956 51.5283 c 0
 333.956 36.0986 321.433 23.5762 306.003 23.5762 c 4
 290.572 23.5762 278.051 36.0986 278.051 51.5283 c 0
 278.051 66.959 290.572 79.4805 306.003 79.4805 c 0x9c0e
554.475 327.953 m 0
 569.905 327.953 582.427 315.429 582.427 300 c 0
 582.427 284.57 569.905 272.046 554.475 272.046 c 0
 539.045 272.046 526.52 284.57 526.52 300 c 0x1c0e40
 526.52 315.429 539.045 327.953 554.475 327.953 c 0
EndSplineSet
Validated: 1
Comment: "%DiaToBase1+AD0A-306+AAoA%DiaToBase2+AD0A-306+AAoA%DiaToBase3+AD0A-306+AAoA%DiaToBase4+AD0A-306+AAoA%DiaToBaseO+AD0A-0+AAoA%DiaToBaseU+AD0A-306+AAoA%DiaToBaseD+AD0A-306+AAoA%RafeToBase+AD0A-306" 
EndChar

StartChar: uniFB1D
Encoding: 64285 64285 203
Width: 329
VWidth: 1000
Flags: W
LayerCount: 2
Back
SplineSet
-51.7646 -106.765 m 5
 -38.4746 -84.4258 -22.3398 -68.2891 0 -55 c 5
 22.3398 -68.2891 38.4746 -84.4258 51.7646 -106.765 c 5
 38.4746 -129.103 22.3398 -145.238 0 -158.528 c 5
 -22.3398 -145.238 -38.4746 -129.103 -51.7646 -106.765 c 5
EndSplineSet
Fore
Refer: 98 1460 N 1 0 0 1 155 0 2
Refer: 123 1497 N 1 0 0 1 0 0 3
Validated: 1
Substitution2: "ccmpYiddish1 subtable" uniE804
LCarets2: 1 0 
EndChar

StartChar: uniFB1E
Encoding: 64286 64286 204
Width: 0
VWidth: 1000
Flags: W
VStem: -129.15 251.164
AnchorPoint: "CtxAnchors_Rafe" 0 0 mark 0
AnchorPoint: "RafeToBase" 0 0 mark 0
LayerCount: 2
Back
SplineSet
-117.485 736.5 m 5
 141.015 736.5 l 5
 137.813 710.373 130.601 688.734 117.485 665.912 c 5
 -141.015 665.912 l 21
 -137.813 692.039 -130.601 713.678 -117.485 736.5 c 5
EndSplineSet
Fore
SplineSet
-82.8984 758.783 m 1
 -2.15039 688 75.3496 722 119.979 762.879 c 1
 126.296 738.477 126.645 714.128 122.014 688.5 c 1
 90.3496 659.5 -15.1504 618 -129.15 700.5 c 1
 -119.504 720.93 -101.782 744.277 -82.8984 758.783 c 1
EndSplineSet
Validated: 33
EndChar

StartChar: uni0000
Encoding: 0 0 205
Width: 950
VWidth: 1000
Flags: W
TeX: 78 0
HStem: -150 75<150 800> 675 75<150 800>
VStem: 75 75<-75 675> 800 75<-75 675>
LayerCount: 2
Fore
SplineSet
75 750 m 1
 875 750 l 1
 875 -150 l 1
 75 -150 l 1
 75 750 l 1
150 675 m 5
 150 -75 l 5
 800 -75 l 1
 800 675 l 1
 150 675 l 5
EndSplineSet
Validated: 513
EndChar

StartChar: ellipsis
Encoding: 8230 8230 206
Width: 948
VWidth: 1000
Flags: W
HStem: -24 172<179 181 485 487 791 793>
VStem: 100 156<58 61> 406 156<58 61> 712 156<58 61>
CounterMasks: 1 00
LayerCount: 2
Back
SplineSet
668.323 147.686 m 1
 702.78 119.264 724.775 92.1299 745.5 58.2793 c 1
 725.746 26.042 700.671 -1.98828 670.382 -23.5674 c 1
 639.163 0.829102 611.871 27.4531 589.524 60.9473 c 1
 612.271 96.5654 638.841 123.334 668.323 147.686 c 1
398.323 147.686 m 1
 432.78 119.264 454.775 92.1299 475.5 58.2793 c 1
 455.746 26.042 430.671 -1.98828 400.382 -23.5674 c 1
 369.163 0.829102 341.871 27.4531 319.524 60.9473 c 1
 342.271 96.5654 368.841 123.334 398.323 147.686 c 1
128.799 147.686 m 1
 163.256 119.264 185.251 92.1299 205.976 58.2793 c 1
 186.222 26.042 161.147 -1.98828 130.858 -23.5674 c 1
 99.6387 0.829102 72.3467 27.4531 50 60.9473 c 1
 72.7471 96.5654 99.3164 123.334 128.799 147.686 c 1
EndSplineSet
Fore
Refer: 13 46 N 1 0 0 1 652 0 2
Refer: 13 46 N 1 0 0 1 346 0 2
Refer: 13 46 N 1 0 0 1 40 0 2
Validated: 1
EndChar

StartChar: minus
Encoding: 8722 8722 207
Width: 732
VWidth: 1048
Flags: W
HStem: 278 84<132 600>
VStem: 100 532<278 362>
LayerCount: 2
Back
SplineSet
406 91 m 5
 380.232 73.9453 355.754 64.7129 326 59 c 5
 326 278 l 5
 100 278 l 5
 105.713 307.754 114.945 336.232 132 362 c 5
 326 362 l 5
 326 549 l 5
 349.906 564.15 374.113 574.672 406 581 c 5
 406 362 l 5
 632 362 l 5
 625.672 330.113 615.15 301.906 600 278 c 5
 406 278 l 5
 406 91 l 5
EndSplineSet
Fore
Refer: 150 8211 N 1 0 0 1 50 20 2
Validated: 1
EndChar

StartChar: uni05BA
Encoding: 1466 1466 208
Width: 0
VWidth: 1040
Flags: W
HStem: 638.85 103.529
VStem: -65.7646 103.529
LayerCount: 2
Fore
SplineSet
-65.7646 690.615 m 1
 -52.4746 712.954 -36.3398 729.091 -14 742.379 c 1
 8.33984 729.091 24.4746 712.954 37.7646 690.615 c 1
 24.4746 668.277 8.33984 652.141 -14 638.85 c 1
 -36.3398 652.141 -52.4746 668.277 -65.7646 690.615 c 1
EndSplineSet
Validated: 1
EndChar

StartChar: uni05C7
Encoding: 1479 1479 209
Width: 0
VWidth: 1100
Flags: W
HStem: -139.5 70.5879<-102.565 -35.293 35.2949 100.594>
VStem: -35.293 70.5879<-299.765 -139.5>
AnchorPoint: "CtxAnchors_M_D2" -65.7959 0 mark 0
AnchorPoint: "ColumnToBaseMark" -183 -106.764 basemark 0
AnchorPoint: "DotToBaseMark" -166 -106.764 basemark 0
AnchorPoint: "BarToBaseMark" 120.029 -106.764 mark 0
AnchorPoint: "DiaToBase2" 0 0 mark 0
LayerCount: 2
Back
SplineSet
116.5 -139.5 m 1
 35.2949 -139.5 l 1
 35.2949 -296.994 l 1
 23.0059 -299.056 12.4609 -299.935 0 -299.935 c 1
 -12.459 -299.935 -23.0059 -299.056 -35.293 -296.994 c 1
 -35.293 -139.5 l 1
 -142 -139.5 l 17
 -138.799 -113.373 -131.586 -91.7344 -118.471 -68.9121 c 1
 140.029 -68.9121 l 1
 136.828 -95.0391 129.615 -116.678 116.5 -139.5 c 1
EndSplineSet
Fore
SplineSet
96.5 -139.5 m 5
 35.2949 -139.5 l 1
 35.2949 -296.994 l 1
 23.0059 -299.056 12.4609 -299.935 0 -299.935 c 1
 -12.459 -299.935 -23.0059 -299.056 -35.293 -296.994 c 1
 -35.293 -139.5 l 1
 -122 -139.5 l 17
 -118.799 -113.373 -111.586 -91.7344 -98.4707 -68.9121 c 1
 120.029 -68.9121 l 5
 116.828 -95.0391 109.615 -116.678 96.5 -139.5 c 5
EndSplineSet
Validated: 1
EndChar

StartChar: uni05C5
Encoding: 1477 1477 210
Width: 0
VWidth: 1064
Flags: W
HStem: -214.24 124.235
VStem: -62.1172 124.234
LayerCount: 2
Fore
SplineSet
-62.1172 -152.122 m 5
 -46.1699 -125.315 -26.8076 -105.951 0 -90.0049 c 5
 26.8076 -105.951 46.1699 -125.315 62.1172 -152.122 c 5
 46.1699 -178.928 26.8076 -198.291 0 -214.24 c 5
 -26.8076 -198.291 -46.1699 -178.928 -62.1172 -152.122 c 5
EndSplineSet
Validated: 1
EndChar

StartChar: uniE806
Encoding: 59398 59398 220
Width: 0
VWidth: 1100
Flags: W
HStem: -287.941 232.941
VStem: 30.5576 70.5894<-282.83 -60.1696>
AnchorPoint: "ColumnToBaseMark" -280.911 -106.764 basemark 0
AnchorPoint: "DotToBaseNarrowMark" -270.911 -106.764 basemark 0
AnchorPoint: "BarToBaseNarrowMark" -270.911 -106.764 basemark 0
AnchorPoint: "2DotsToBaseNarrowMark" 242.911 -106.764 mark 0
AnchorPoint: "DiaToBase4" 0 0 mark 0
LayerCount: 2
Fore
SplineSet
101.147 -62.9414 m 1
 101.147 -280.059 l 1
 88.8584 -282.121 78.3135 -283 65.8525 -283 c 0
 53.3916 -283 42.8467 -282.121 30.5576 -280.059 c 1
 30.5576 -62.9414 l 17
 42.8467 -60.8789 53.3916 -60 65.8525 -60 c 0
 78.3135 -60 88.8584 -60.8789 101.147 -62.9414 c 1
-176.734 -236.176 m 1
 -163.444 -213.837 -147.309 -197.702 -124.971 -184.41 c 1
 -102.632 -197.702 -86.4951 -213.837 -73.2051 -236.176 c 1
 -86.4951 -258.515 -102.632 -274.651 -124.971 -287.941 c 1
 -147.309 -274.651 -163.444 -258.515 -176.734 -236.176 c 1
139.382 -236.176 m 1
 152.671 -213.837 168.809 -197.702 191.147 -184.41 c 1
 213.485 -197.702 229.621 -213.837 242.911 -236.176 c 1
 229.621 -258.516 213.485 -274.651 191.147 -287.941 c 1
 168.809 -274.651 152.671 -258.516 139.382 -236.176 c 1
139.382 -106.766 m 1
 152.671 -84.4258 168.809 -68.2891 191.147 -55 c 1
 213.485 -68.2891 229.621 -84.4258 242.911 -106.766 c 1
 229.621 -129.104 213.485 -145.238 191.147 -158.528 c 1
 168.809 -145.238 152.671 -129.104 139.382 -106.766 c 1
-110.558 -106.765 m 1
 -97.2676 -84.4258 -81.1318 -68.2891 -58.7939 -55 c 1
 -36.4551 -68.2891 -20.3184 -84.4258 -7.0293 -106.765 c 1
 -20.3184 -129.103 -36.4551 -145.238 -58.7939 -158.528 c 1
 -81.1318 -145.238 -97.2676 -129.103 -110.558 -106.765 c 1
-242.911 -106.765 m 1
 -229.621 -84.4258 -213.485 -68.2891 -191.147 -55 c 1
 -168.808 -68.2891 -152.671 -84.4258 -139.382 -106.765 c 1
 -152.671 -129.103 -168.808 -145.238 -191.147 -158.528 c 1
 -213.485 -145.238 -229.621 -129.103 -242.911 -106.765 c 1
EndSplineSet
Validated: 1
Ligature2: "ccmpCustomPrecomp subtable" afii57801 afii301 afii57839
LCarets2: 2 0 0 
EndChar

StartChar: uniE807
Encoding: 59399 59399 221
Width: 0
VWidth: 1100
Flags: W
HStem: -139.628 70.588<-224.223 -32.7418>
VStem: 31.3047 70.5913<-282.83 -60.1696>
AnchorPoint: "ColumnToBaseMark" -288.658 -106.764 basemark 0
AnchorPoint: "2DotsToBaseNarrowMark" 243.658 -106.764 mark 0
AnchorPoint: "DiaToBase4" 0 0 mark 0
LayerCount: 2
Fore
SplineSet
101.896 -62.9414 m 1
 101.896 -280.059 l 5
 89.6055 -282.121 79.0605 -283 66.5996 -283 c 0
 54.1387 -283 43.5938 -282.121 31.3047 -280.059 c 1
 31.3047 -62.9414 l 17
 43.5938 -60.8789 54.1387 -60 66.5996 -60 c 0
 79.0605 -60 89.6055 -60.8789 101.896 -62.9414 c 1
140.129 -236.176 m 1
 153.418 -213.837 169.557 -197.702 191.896 -184.41 c 1
 214.232 -197.702 230.369 -213.837 243.658 -236.176 c 1
 230.369 -258.516 214.232 -274.651 191.896 -287.941 c 1
 169.557 -274.651 153.418 -258.516 140.129 -236.176 c 1
140.129 -106.766 m 1
 153.418 -84.4258 169.557 -68.2891 191.896 -55 c 1
 214.232 -68.2891 230.369 -84.4258 243.658 -106.766 c 1
 230.369 -129.104 214.232 -145.238 191.896 -158.528 c 1
 169.557 -145.238 153.418 -129.104 140.129 -106.766 c 1
-220.129 -69.04 m 1
 -13.3066 -69.04 l 1
 -16.5078 -95.167 -23.7207 -116.806 -36.8359 -139.628 c 1
 -243.658 -139.628 l 17
 -240.457 -113.501 -233.244 -91.8623 -220.129 -69.04 c 1
EndSplineSet
Validated: 1
Ligature2: "ccmpCustomPrecomp subtable" afii57800 afii301 afii57839
LCarets2: 2 0 0 
EndChar

StartChar: uniE808
Encoding: 59400 59400 222
Width: 0
VWidth: 1100
Flags: W
HStem: -275.059 207.118<34.1035 104.693> -139.263 70.5882<-225.318 -159.866 -89.2783 -23.2204>
VStem: -159.865 70.5877<-246.834 -139.262> 34.1035 70.5895<-277.83 -65.1696>
AnchorPoint: "ColumnToBaseMark" -291.457 -106.764 basemark 0
AnchorPoint: "2DotsToBaseNarrowMark" 246.457 -106.764 mark 0
AnchorPoint: "DiaToBase4" 0 0 mark 0
LayerCount: 2
Fore
SplineSet
104.693 -67.9414 m 1xb0
 104.693 -275.059 l 1
 92.4043 -277.121 81.8594 -278 69.3984 -278 c 0
 56.9375 -278 46.3926 -277.121 34.1035 -275.059 c 1
 34.1035 -67.9414 l 17
 46.3926 -65.8789 56.9375 -65 69.3984 -65 c 0
 81.8594 -65 92.4043 -65.8789 104.693 -67.9414 c 1xb0
142.928 -236.176 m 1
 156.217 -213.837 172.354 -197.702 194.693 -184.41 c 1
 217.031 -197.702 233.166 -213.837 246.457 -236.176 c 1
 233.166 -258.516 217.031 -274.651 194.693 -287.941 c 1
 172.354 -274.651 156.217 -258.516 142.928 -236.176 c 1
142.928 -106.766 m 1
 156.217 -84.4258 172.354 -68.2891 194.693 -55 c 1
 217.031 -68.2891 233.166 -84.4258 246.457 -106.766 c 1
 233.166 -129.104 217.031 -145.238 194.693 -158.528 c 1
 172.354 -145.238 156.217 -129.104 142.928 -106.766 c 1
-27.3145 -139.262 m 1
 -89.2783 -139.262 l 1
 -89.2773 -244.062 l 5
 -101.566 -246.125 -112.111 -247.003 -124.572 -247.003 c 5
 -137.031 -247.003 -147.578 -246.125 -159.865 -244.062 c 5
 -159.866 -139.262 l 1
 -246.457 -139.263 l 17
 -243.256 -113.136 -236.043 -91.4971 -222.928 -68.6748 c 1
 -219.201 -68.6748 l 0x70
 -3.78516 -68.6738 l 1
 -6.98633 -94.8008 -14.1992 -116.439 -27.3145 -139.262 c 1
EndSplineSet
Validated: 1
Ligature2: "ccmpCustomPrecomp subtable" afii57802 afii301 afii57839
LCarets2: 2 0 0 
EndChar

StartChar: tsere.narrow
Encoding: 65536 -1 224
Width: 0
VWidth: 0
Flags: W
HStem: -158.528 103.528
VStem: -117 235.882
AnchorPoint: "CtxAnchors_M_D2Narrow" -54.2959 0 mark 0
AnchorPoint: "ColumnToBaseMark" -155 -106.764 basemark 0
AnchorPoint: "DotToBaseNarrowMark" -145 -106.764 basemark 0
AnchorPoint: "BarToBaseNarrowMark" -145 -106.764 basemark 0
AnchorPoint: "DotToBaseNarrowMark" 118.882 -106.764 mark 0
LayerCount: 2
Fore
SplineSet
15.3525 -106.765 m 0
 28.6436 -84.4258 44.7793 -68.2891 67.1172 -55 c 0
 89.4561 -68.2891 105.593 -84.4258 118.882 -106.765 c 0
 105.593 -129.103 89.4561 -145.238 67.1172 -158.528 c 0
 44.7793 -145.238 28.6436 -129.103 15.3525 -106.765 c 0
-117 -106.765 m 0
 -103.71 -84.4258 -87.5742 -68.2891 -65.2363 -55 c 0
 -42.8975 -68.2891 -26.7598 -84.4258 -13.4707 -106.765 c 0
 -26.7598 -129.103 -42.8975 -145.238 -65.2363 -158.528 c 0
 -87.5742 -145.238 -103.71 -129.103 -117 -106.765 c 0
EndSplineSet
Validated: 1
Comment: "+AAoA%BarToBaseNarrowMark+AD0A-28+AAoA%ColumnToBaseMark+AD0A-38+AAoA%DotToBaseNarrowMark+AD0A-28" 
EndChar

StartChar: patah.narrow
Encoding: 65537 -1 225
Width: 0
VWidth: 0
Flags: W
HStem: -139.628 70.588<-95.5648 95.9165>
VStem: -115 230.352
AnchorPoint: "CtxAnchors_M_D2Narrow" -57.7959 0 mark 0
AnchorPoint: "ColumnToBaseMark" -160 -106.764 basemark 0
AnchorPoint: "BarToBaseNarrowMark" 115.352 -106.764 mark 0
LayerCount: 2
Fore
SplineSet
-91.4707 -69.04 m 0
 115.352 -69.04 l 0
 112.15 -95.167 104.938 -116.806 91.8223 -139.628 c 0
 -115 -139.628 l 0
 -111.799 -113.501 -104.586 -91.8623 -91.4707 -69.04 c 0
EndSplineSet
Validated: 1
Comment: "+AAoA%ColumnToBaseMark+AD0A-45" 
EndChar

StartChar: qamats.narrow
Encoding: 65538 -1 226
Width: 0
VWidth: 0
Flags: W
HStem: -139.263 70.5882<-101.565 -34.4092 36.1787 102.237>
VStem: -34.4082 70.5879<-246.834 -139.262>
AnchorPoint: "CtxAnchors_M_D2Narrow" -57.7959 0 mark 0
AnchorPoint: "ColumnToBaseMark" -166 -106.764 basemark 0
AnchorPoint: "BarToBaseNarrowMark" 121.672 -106.764 mark 0
LayerCount: 2
Fore
SplineSet
98.1426 -139.262 m 0
 36.1787 -139.262 l 0
 36.1797 -244.062 l 4
 23.8906 -246.125 13.3457 -247.003 0.884766 -247.003 c 4
 -11.5742 -247.003 -22.1211 -246.125 -34.4082 -244.062 c 4
 -34.4092 -139.262 l 0
 -121 -139.263 l 0
 -117.799 -113.136 -110.586 -91.4971 -97.4707 -68.6748 c 0
 -93.7441 -68.6748 l 0
 121.672 -68.6738 l 0
 118.471 -94.8008 111.258 -116.439 98.1426 -139.262 c 0
EndSplineSet
Validated: 1
EndChar

StartChar: hatafsegol.narrow
Encoding: 65539 -1 227
Width: 0
VWidth: 0
Flags: W
HStem: -287.941 232.941
VStem: -180 360.528
AnchorPoint: "CtxAnchors_M_D3Narrow" -54.2959 0 mark 0
AnchorPoint: "ColumnToBaseMark" -218 -106.764 basemark 0
AnchorPoint: "DotToBaseNarrowMark" -208 -106.764 basemark 0
AnchorPoint: "BarToBaseNarrowMark" -208 -106.764 basemark 0
AnchorPoint: "2DotsToBaseNarrowMark" 180.528 -106.764 mark 0
LayerCount: 2
Fore
SplineSet
76.999 -106.766 m 0
 90.2881 -84.4258 106.426 -68.2891 128.764 -55 c 0
 151.102 -68.2891 167.238 -84.4258 180.528 -106.766 c 0
 167.238 -129.104 151.102 -145.238 128.764 -158.528 c 0
 106.426 -145.238 90.2881 -129.104 76.999 -106.766 c 0
76.999 -236.176 m 0
 90.2881 -213.837 106.426 -197.702 128.764 -184.41 c 0
 151.102 -197.702 167.238 -213.837 180.528 -236.176 c 0
 167.238 -258.516 151.102 -274.651 128.764 -287.941 c 0
 106.426 -274.651 90.2881 -258.516 76.999 -236.176 c 0
-47.6475 -106.765 m 0
 -34.3564 -84.4258 -18.2207 -68.2891 4.11719 -55 c 0
 26.4561 -68.2891 42.5928 -84.4258 55.8818 -106.765 c 0
 42.5928 -129.103 26.4561 -145.238 4.11719 -158.528 c 0
 -18.2207 -145.238 -34.3564 -129.103 -47.6475 -106.765 c 0
-113.823 -236.176 m 0
 -100.533 -213.837 -84.3984 -197.702 -62.0596 -184.41 c 0
 -39.7207 -197.702 -23.584 -213.837 -10.2939 -236.176 c 0
 -23.584 -258.515 -39.7207 -274.651 -62.0596 -287.941 c 0
 -84.3984 -274.651 -100.533 -258.515 -113.823 -236.176 c 0
-180 -106.765 m 0
 -166.71 -84.4258 -150.574 -68.2891 -128.236 -55 c 0
 -105.897 -68.2891 -89.7598 -84.4258 -76.4707 -106.765 c 0
 -89.7598 -129.103 -105.897 -145.238 -128.236 -158.528 c 0
 -150.574 -145.238 -166.71 -129.103 -180 -106.765 c 0
EndSplineSet
Validated: 1
EndChar

StartChar: hatafpatah.narrow
Encoding: 65540 -1 228
Width: 0
VWidth: 0
Flags: W
HStem: -139.628 70.588<-161.565 29.9164>
VStem: -181 362.023
AnchorPoint: "CtxAnchors_M_D3Narrow" -57.7959 0 mark 0
AnchorPoint: "ColumnToBaseMark" -226 -106.764 basemark 0
AnchorPoint: "2DotsToBaseNarrowMark" 181.023 -106.764 mark 0
LayerCount: 2
Fore
SplineSet
77.4941 -106.766 m 0
 90.7832 -84.4258 106.922 -68.2891 129.261 -55 c 0
 151.597 -68.2891 167.734 -84.4258 181.023 -106.766 c 0
 167.734 -129.104 151.597 -145.238 129.261 -158.528 c 0
 106.922 -145.238 90.7832 -129.104 77.4941 -106.766 c 0
77.4941 -236.176 m 0
 90.7832 -213.837 106.922 -197.702 129.261 -184.41 c 0
 151.597 -197.702 167.734 -213.837 181.023 -236.176 c 0
 167.734 -258.516 151.597 -274.651 129.261 -287.941 c 0
 106.922 -274.651 90.7832 -258.516 77.4941 -236.176 c 0
-157.471 -69.04 m 0
 49.3516 -69.04 l 0
 46.1504 -95.167 38.9375 -116.806 25.8223 -139.628 c 0
 -181 -139.628 l 0
 -177.799 -113.501 -170.586 -91.8623 -157.471 -69.04 c 0
EndSplineSet
Validated: 1
EndChar

StartChar: hatafqamats.narrow
Encoding: 65541 -1 229
Width: 0
VWidth: 0
Flags: W
HStem: -139.263 70.5882<-163.565 -96.4092 -25.8213 40.2367>
VStem: -96.4082 70.5879<-246.834 -139.262>
AnchorPoint: "CtxAnchors_M_D3Narrow" -57.7959 0 mark 0
AnchorPoint: "ColumnToBaseMark" -228 -106.764 basemark 0
AnchorPoint: "2DotsToBaseNarrowMark" 184.62 -106.764 mark 0
LayerCount: 2
Fore
SplineSet
81.0908 -106.766 m 0
 94.3799 -84.4258 110.517 -68.2891 132.855 -55 c 0
 155.193 -68.2891 171.329 -84.4258 184.62 -106.766 c 0
 171.329 -129.104 155.193 -145.238 132.855 -158.528 c 0
 110.517 -145.238 94.3799 -129.104 81.0908 -106.766 c 0
81.0908 -236.176 m 0
 94.3799 -213.837 110.517 -197.702 132.855 -184.41 c 0
 155.193 -197.702 171.329 -213.837 184.62 -236.176 c 0
 171.329 -258.516 155.193 -274.651 132.855 -287.941 c 0
 110.517 -274.651 94.3799 -258.516 81.0908 -236.176 c 0
36.1426 -139.262 m 0
 -25.8213 -139.262 l 0
 -25.8203 -244.062 l 4
 -38.1094 -246.125 -48.6543 -247.003 -61.1152 -247.003 c 4
 -73.5742 -247.003 -84.1211 -246.125 -96.4082 -244.062 c 4
 -96.4092 -139.262 l 0
 -183 -139.263 l 0
 -179.799 -113.136 -172.586 -91.4971 -159.471 -68.6748 c 0
 -155.744 -68.6748 l 0
 59.6719 -68.6738 l 0
 56.4707 -94.8008 49.2578 -116.439 36.1426 -139.262 c 0
EndSplineSet
Validated: 1
EndChar

StartChar: segol.narrow
Encoding: 65542 -1 230
Width: 0
VWidth: 0
Flags: W
HStem: -287.941 232.941
VStem: -117 235.882
AnchorPoint: "CtxAnchors_M_D2Narrow" -54.2959 0 mark 0
AnchorPoint: "ColumnToBaseMark" -155 -106.764 basemark 0
AnchorPoint: "DotToBaseNarrowMark" -145 -106.764 basemark 0
AnchorPoint: "BarToBaseNarrowMark" -145 -106.764 basemark 0
AnchorPoint: "DotToBaseNarrowMark" 118.882 -106.764 mark 0
LayerCount: 2
Fore
SplineSet
15.3525 -106.765 m 0
 28.6436 -84.4258 44.7793 -68.2891 67.1172 -55 c 0
 89.4561 -68.2891 105.593 -84.4258 118.882 -106.765 c 0
 105.593 -129.103 89.4561 -145.238 67.1172 -158.528 c 0
 44.7793 -145.238 28.6436 -129.103 15.3525 -106.765 c 0
-50.8232 -236.176 m 0
 -37.5332 -213.837 -21.3984 -197.702 0.94043 -184.41 c 0
 23.2793 -197.702 39.416 -213.837 52.7061 -236.176 c 0
 39.416 -258.515 23.2793 -274.651 0.94043 -287.941 c 0
 -21.3984 -274.651 -37.5332 -258.515 -50.8232 -236.176 c 0
-117 -106.765 m 0
 -103.71 -84.4258 -87.5742 -68.2891 -65.2363 -55 c 0
 -42.8975 -68.2891 -26.7598 -84.4258 -13.4707 -106.765 c 0
 -26.7598 -129.103 -42.8975 -145.238 -65.2363 -158.528 c 0
 -87.5742 -145.238 -103.71 -129.103 -117 -106.765 c 0
EndSplineSet
Validated: 1
EndChar

StartChar: uniE809
Encoding: 59401 59401 253
Width: 0
VWidth: 1000
Flags: W
HStem: -255.906 55.9062<-27.8706 27.8716> -195.906 55.9062<-87.8706 -32.1284 32.1294 87.8716> -135.906 55.9062<-27.8706 27.8716>
VStem: -87.9521 55.9053<-195.825 -140.082> -27.9521 55.9053<-255.825 -200.082 -135.825 -80.0816> 32.0479 55.9053<-195.825 -140.082>
CounterMasks: 1 fc
AnchorPoint: "CtxAnchors_Rafe" 0 0 mark 0
AnchorPoint: "CtxAnchors_D3Narrow_M" 0 0 mark 0
AnchorPoint: "CtxAnchors_D2Narrow_M" 0 0 mark 0
AnchorPoint: "CtxAnchors_D2_M" 0 0 mark 0
AnchorPoint: "CtxAnchors_D1_M" 0 0 mark 0
AnchorPoint: "CtxAnchors_M_D3Narrow" 0 0 mark 0
AnchorPoint: "CtxAnchors_M_D2Narrow" 0 0 mark 0
AnchorPoint: "CtxAnchors_M_D2" 0 0 mark 0
AnchorPoint: "CtxAnchors_M_D1" 0 0 mark 0
LayerCount: 2
Fore
SplineSet
-60 -140 m 0
 -44.5703 -140 -32.0469 -152.524 -32.0469 -167.953 c 0
 -32.0469 -183.384 -44.5703 -195.906 -60 -195.906 c 0
 -75.4307 -195.906 -87.9521 -183.384 -87.9521 -167.953 c 0
 -87.9521 -152.524 -75.4307 -140 -60 -140 c 0
0 -200 m 0
 15.4297 -200 27.9531 -212.524 27.9531 -227.953 c 0
 27.9531 -243.384 15.4297 -255.906 0 -255.906 c 0
 -15.4307 -255.906 -27.9521 -243.384 -27.9521 -227.953 c 0
 -27.9521 -212.524 -15.4307 -200 0 -200 c 0
60 -140 m 0
 75.4297 -140 87.9531 -152.524 87.9531 -167.953 c 0
 87.9531 -183.384 75.4297 -195.906 60 -195.906 c 0
 44.5693 -195.906 32.0479 -183.384 32.0479 -167.953 c 0
 32.0479 -152.524 44.5693 -140 60 -140 c 0
0 -80 m 0
 15.4297 -80 27.9531 -92.5244 27.9531 -107.953 c 0
 27.9531 -123.384 15.4297 -135.906 0 -135.906 c 0
 -15.4307 -135.906 -27.9521 -123.384 -27.9521 -107.953 c 0
 -27.9521 -92.5244 -15.4307 -80 0 -80 c 0
EndSplineSet
Validated: 1
EndChar

